<svg xmlns="http://www.w3.org/2000/svg" width="780" height="717.865" viewBox="0 0 780 717.865"><path d="M3604.6,467.31c-5.969.056-6.674.281-7.174,2.272-.459,1.83-2.407,2.749-11.394,5.375-5.961,1.742-11.524,3.027-12.361,2.855a3.352,3.352,0,0,0-2.828,1.336c-1.313,1.657-21.035,6.852-26.012,6.852a5.009,5.009,0,0,0-4.045,2.25c-3.632,5.518-16.81,17.646-22.627,20.824l-6.27,3.426-1.748-2.141c-1.282-1.57-2.187-1.894-3.393-1.219-1.184.662-3.542-.046-8.428-2.529-5.294-2.691-7.41-4.455-9.627-8.029-1.563-2.52-3.091-4.582-3.4-4.582-.8,0-9.55,7.18-10.92,8.963a2.873,2.873,0,0,0-.3,3.111c1.378,2.575-.05,5.9-4.553,10.6-3.639,3.8-5.067,4.551-10.6,5.582a67.936,67.936,0,0,1-11.582,1.061c-4.924-.123-5.223.017-5.811,2.693-.341,1.552-1.2,3.045-1.916,3.318s-1.575,1.887-1.914,3.584c-.374,1.87-1.235,3.086-2.184,3.086-1.656,0-7.1-2.577-14.4-6.816-6.089-3.538-12.556-3.763-16.772-.584-4.867,3.671-6.69,3.188-8.119-2.154-1-3.737-1.832-4.812-4.623-5.979-4.109-1.717-5.794-1.788-20.787-.881-11.622.7-11.741.687-15.184-1.94-1.909-1.456-3.854-2.646-4.324-2.646s-2.344-1.244-4.164-2.764c-3.64-3.038-6.076-8.767-6.1-14.34-.01-1.982-.3-6.308-.645-9.613l-.627-6.01-4.234,1.273c-6.734,2.027-15.025,2.784-17.281,1.576-1.632-.873-2.746-.578-5.871,1.559a36.383,36.383,0,0,1-8.262,3.975,29.108,29.108,0,0,0-7.5,3.662c-2.49,1.867-4.27,2.3-9.1,2.217-3.3-.058-6.529-.433-7.176-.834-1.5-.927-12.55,3.124-13.658,5.006-.573.972-1.748,1.214-3.752.773-2.065-.454-3.9-.032-6.285,1.439a14.1,14.1,0,0,1-5.246,2.105c-1.035.014-3.855,1.884-6.266,4.158l-4.381,4.135-.336,9.592c-.184,5.275-.292,10.265-.242,11.09s.24,7.125.424,14c.3,11.119.09,13.068-1.875,17.639-2.162,5.031-2.312,5.152-7.207,5.742-2.75.331-6.436.607-8.191.611-3.523.01-5.146,1.571-3.422,3.295,1.84,1.84,1.284,3.586-2.137,6.7-2.7,2.461-4.115,2.962-8.41,2.986-4.516.026-5.486.413-7.748,3.1-1.926,2.289-2.348,3.515-1.658,4.8a3.222,3.222,0,0,1,.012,3.178,9.323,9.323,0,0,0-.93,4.076c-.019,3.2-5.373,8.777-9.154,9.541-1.908.386-3.053,1.59-4.139,4.354-1.643,4.183-6.363,7.254-13.09,8.516a16.646,16.646,0,0,0-6.453,2.953c-4.374,3.667-10.107,6.332-12.471,5.8-1.937-.439-1.839-.184.791,2.068a14.562,14.562,0,0,0,3.75,2.606c1.5.072.763,5.035-.75,5.035a1.508,1.508,0,0,0-1.5,1.508c0,1.258.332,1.3,2,.26,1.593-.995,2.4-1,3.986-.008a8.293,8.293,0,0,0,3.5,1.24c.833,0,1.514.454,1.514,1.008s1.1,1.965,2.451,3.137a11.345,11.345,0,0,1,3.127,5.211,23.437,23.437,0,0,0,1.484,4.611c4.084,7.743,4.69,10.491,2.584,11.734a9,9,0,0,0-2.535,3.049,4.128,4.128,0,0,1-3.492,2.25c-6.111,0-7.377,8.844-1.557,10.873,1.681.586,2.938,1.743,2.938,2.707,0,2.245-3.662,8.076-5.52,8.789a3.014,3.014,0,0,0-1.48,2.717c0,1.852-.379,2.049-2.75,1.426a27.916,27.916,0,0,0-6.176-.676,13.374,13.374,0,0,1-5.264-.937c-1.96-1.049-2.105-.855-3.242,4.338-.429,1.961-2.366,3.866-6.834,6.729-7.318,4.688-10.979,5.116-13.309,1.561-1.62-2.473-1.629-2.472-13.99-1.846l-12.369.627-1.127-2.9a21.861,21.861,0,0,1-.615-8.059l.512-5.158-4.406,1.949c-3.331,1.473-4.88,1.7-6.352.908a9.958,9.958,0,0,0-3.93-1.043c-1.422,0-2.458-1.244-3.66-4.393-1.67-4.373-1.695-4.389-5.832-3.861a41.726,41.726,0,0,0-4.369.688,10.441,10.441,0,0,0,1.25,2.977c2.533,4.883,1.925,6.129-4.326,8.84-5.738,2.488-11.211,7.912-11.211,11.111,0,2.457,7.065,13.552,9.883,15.52a18.83,18.83,0,0,0,5.117,2.447c1.543.382,3.413,2.23,4.885,4.828l2.385,4.207-2.154,1.744L3075,742.851l5.018,4.941c2.76,2.717,5.021,5.338,5.023,5.824s1.351,2.908,3,5.383,2.994,5.3,3,6.285c.01,2.374-2.9,6.715-4.494,6.715-1.537,0-2.755,3.5-2.521,7.25.141,2.259-.244,2.751-2.154,2.758-1.537.005-2.745.909-3.561,2.666-1.527,3.289-.695,4.434,5.258,7.232q8.594,4.04,6.5,9.523c-1.325,3.485-1.465,3.146,1.869,4.527a20.416,20.416,0,0,1,6.145,5.244l3.252,4.047-2.266,5.125a73.524,73.524,0,0,0-3.746,12.6c-1.348,6.809-1.967,8-6.936,13.365-4.779,5.162-5.374,6.256-4.807,8.84.731,3.33-2.143,15.249-4.062,16.842-.953.791-.7,2.331,1.145,6.893,1.715,4.247,2.455,8.271,2.67,14.529l.3,8.656-4.82,2.623c-5.461,2.972-5.667,4.55-.689,5.277,3.061.447,3.527.945,4.438,4.719.56,2.32,1.572,4.771,2.25,5.449a4.314,4.314,0,0,1,1.232,2.523,4.045,4.045,0,0,0,2,2.541,4.05,4.05,0,0,1,2,2.576c0,.834.685,1.11,1.844.742,1.057-.336,2.869.214,4.25,1.289,4.939,3.846,15.794,7.64,24.906,8.705a24.373,24.373,0,0,1,3,.48c.275.1,3.158.253,6.406.332,5.5.134,6.013.349,7.453,3.166a15.66,15.66,0,0,0,4.592,5.01,12.5,12.5,0,0,1,4.037,4.227c.543,1.232,1.565,2.24,2.271,2.24s1.78,1.088,2.385,2.416a5.7,5.7,0,0,0,3.066,2.93c1.465.383,1.8,1.042,1.313,2.584-.385,1.211-.214,2.07.41,2.07,1.413,0,1.3,4.105-.332,11.693l-1.33,6.193,2.758,2.641c2.26,2.165,2.882,3.843,3.447,9.307.625,6.037,1.078,7.067,4.8,10.9,4.57,4.708,9.765,6.77,19.228,7.635,5.269.481,7.038.125,14.453-2.91,9.736-3.985,12.045-4.219,14.527-1.477,1.466,1.62,1.7,3.127,1.264,8.25-.805,9.538-3.958,16.889-8.23,19.19-2.918,1.571-3.5,2.42-3.4,4.986.267,6.989,1.247,9.043,4.875,10.219,3.663,1.187,4.723,3.157,4.906,9.115.069,2.232-.523,3.63-1.9,4.49-2.743,1.713-2.583,2.116,2.055,5.186,4.718,3.122,11.95,13.719,11.936,17.488-.01,1.427-1.14,5.023-2.521,7.99s-2.3,5.608-2.039,5.867,3.082-1.949,6.271-4.908c10.414-9.661,9.889-9.353,12.738-7.486,5.832,3.821,11.56.813,11.56-6.07,0-2.832.554-3.535,4.25-5.381a101,101,0,0,0,9.371-5.6l5.121-3.475-1.871-6.012a66.861,66.861,0,0,1-1.871-6.758c0-.41,1.949-2.732,4.33-5.16a62.088,62.088,0,0,0,6.143-7.207,21.189,21.189,0,0,1,5.99-5.238c3.949-2.314,4.86-2.428,16.607-2.061,6.836.214,15.9.719,20.135,1.123l7.705.734,2.168-3.676c2.478-4.2,4.042-4.2,5.295-.01,2.686,8.992,4.413,12.291,9.115,17.406,4.448,4.839,5.505,6.8,7.354,13.648,2.658,9.851,2.673,11.433.158,16.363-3.3,6.477-2.87,7.363,5.25,10.721a82.218,82.218,0,0,0,23.193,6.229c5.037.619,7.322.3,15-2.109,10.062-3.154,16.43-3.113,26.057.168,4.853,1.654,5,1.82,5,5.6,0,5.04,2.243,7.827,11,13.672,11.649,7.775,14.924,10.424,26.469,21.408,11.717,11.148,19.241,21.352,27.295,37.016,3.725,7.245,4.693,8.387,8.262,9.75,5.431,2.074,6.15,2,15.139-1.457a63.864,63.864,0,0,1,9.02-3c.676,0,3.776,1.5,6.891,3.334,5.248,3.09,5.984,3.261,10.045,2.332l4.381-1V1178.7c0-4.312.671-5.958,5.129-12.582a117.449,117.449,0,0,1,8.383-11.121c4.579-4.924,11.856-15.484,20.367-29.557,9.4-15.544,20.063-28.692,28.18-34.754,9.625-7.188,13.568-11.405,15.473-16.551,3.993-10.785,10.712-21.913,16.766-27.77,3.337-3.228,8.139-7.906,10.672-10.394,5.212-5.122,11.235-8.975,14.031-8.975a4.553,4.553,0,0,1,3.193,1.844c.719,1.014,3.781,2.645,6.807,3.623s10.225,3.792,16,6.252l10.5,4.473,12.5-.684c12.552-.686,19.828-1.992,69.5-12.475,26.566-5.607,34.547-8.622,46.256-17.478,7.485-5.662,9.244-7.974,9.244-12.148,0-6.146-19.259-31.8-29.371-39.129-4.721-3.42-49.428-45.186-59.475-55.561-5.007-5.171-5.1-7.269-.432-10.2,2.154-1.355,3.222-2.831,3.27-4.514.094-3.347,4.251-7.9,7.875-8.623,1.984-.4,3.522-1.684,4.76-3.982,1.006-1.867,2.149-3.394,2.543-3.394s3.442-2.523,6.773-5.607c5.849-5.415,6.057-5.778,6.057-10.59,0-4.448.475-5.536,4.424-10.143a39.948,39.948,0,0,1,8.75-7.555,30.991,30.991,0,0,0,7.219-5.8c2.715-3.2,2.822-3.647,1.727-7.3l-1.168-3.894-24.725.131c-23.306.123-25.03,0-30.014-2.055a28.715,28.715,0,0,0-8.23-2.184c-6.922,0-18.693-7.555-22.976-14.746-1.3-2.176-3.758-4.054-7.465-5.693-3.425-1.515-5.954-3.373-6.641-4.881-.634-1.392-3.217-3.424-6.027-4.74a23.654,23.654,0,0,1-8.146-6.553c-5.573-7.338-8.873-6.463-12.551,3.33-1.891,5.035-3.677,7.787-16.676,25.678-3.3,4.542-7.561,10.561-9.469,13.377-2.9,4.284-4.4,5.46-9.168,7.2s-6.124,2.8-8.328,6.559c-4.765,8.132-9.295,11.883-18.074,14.965l-8.041,2.822-6.5,9.092-6.5,9.092,3.176,2.75c1.747,1.513,4.266,2.75,5.6,2.75,2.223,0,6.8,4.528,6.8,6.727,0,.444-1.928,3.05-4.283,5.791a90.158,90.158,0,0,0-6.023,7.732c-.957,1.513-2.639,2.75-3.74,2.75-2.366,0-4.227-4.065-3.389-7.4.4-1.605-.4-3.528-2.748-6.6-1.824-2.385-3.766-4.475-4.316-4.643s-1.675,1.147-2.5,2.922c-1.174,2.526-2.209,3.295-4.764,3.541-2.685.259-3.532.96-4.787,3.963-2.6,6.213-4.086,7.223-10.654,7.223-3.285,0-7.18-.664-8.8-1.5-2.267-1.172-3.439-1.257-5.357-.383-3.526,1.607-11.016-1.431-14.371-5.83a28.4,28.4,0,0,0-6.926-5.932c-5.324-3.12-5.531-5.132-1.41-13.732a53.6,53.6,0,0,0,3.551-9.244c.569-2.875.43-3.085-1.771-2.664-3.122.6-7.713-4.635-7.713-8.791,0-2.855.123-2.926,5.25-2.965l5.25-.039-2.812-1.523c-1.546-.838-2.664-2.059-2.482-2.711.479-1.72,24.8-13.567,27.988-13.631a15.751,15.751,0,0,0,6.16-2.1l3.469-2.047-2.045-7.519c-2.425-8.919-2.25-9.437,6.363-18.953,6.67-7.369,10.333-15.663,9.908-22.434-.534-8.513-.389-10.521,1.3-17.9,1.6-7.016,4.839-12.1,7.705-12.1a.933.933,0,0,0,.949-.91c0-.5,2.1-1.927,4.66-3.168l4.66-2.256-2.66-2.121c-3.017-2.405-3.465-6.089-1.258-10.357,1.666-3.222,2.451-8.5,3.076-20.688.254-4.95.644-10.125.865-11.5.979-6.09,2.814-15.248,3.318-16.562.384-1-.166-1.437-1.8-1.437a30.61,30.61,0,0,1-7.617-2,31.142,31.142,0,0,0-7.283-2,2.6,2.6,0,0,1-2.078-4.356c.607-.731.846-1.586.531-1.9s-.069-1.511.545-2.658c.979-1.83.835-2.088-1.17-2.1-3.78-.025-5.109-1.555-5.336-6.146a43.094,43.094,0,0,0-.943-7.1c-1.114-4.22.835-5.809,6.885-5.611,6.757.221,9.342-.708,11.024-3.961,1.964-3.8.981-11.905-1.541-12.705-1.03-.327-1.873-.991-1.873-1.479,0-1.615,2.307-5.981,3.16-5.981,1.461,0,.906-5.232-.678-6.391-1.352-.989-1.335-1.579.164-5.394,1.213-3.087,1.38-4.589.6-5.373-2.051-2.051.861-5.833,6.572-8.535,6.74-3.189,11.481-8.1,13.674-14.164.923-2.553,2.424-6.114,3.334-7.912,1.591-3.144,1.563-3.442-.734-7.771-2.011-3.791-2.208-4.9-1.238-7.029.913-2,.841-3.126-.35-5.428-3-5.794-1.142-10.58,3.164-8.17,2.122,1.188,5.336-.2,5.336-2.311,0-2.02,3.788-4.39,6.064-3.795,1.064.278,1.936,1.081,1.936,1.783,0,1.766,2.327,2.49,8,2.49,7.022,0,8-.609,8-4.984a22.5,22.5,0,0,1,1.453-7.248c1.4-3.344,6.942-9.065,9.664-9.973.972-.324.751-1.145-.848-3.178a24.448,24.448,0,0,1-3.3-6.221c-1.044-3.162-.821-4.168,2.443-11.041,3.04-6.4,3.592-8.618,3.592-14.436,0-10.17-.334-10.312-23.09-9.715l-18.033.473-1.844-3.611a11.539,11.539,0,0,1-1.346-6.215c.5-2.6.481-2.6-6.123-2.541Z" transform="translate(-3057.036 -467.294)" fill="#d1add8"/></svg>