<svg xmlns="http://www.w3.org/2000/svg" width="1635.333" height="1119.191" viewBox="0 0 1635.333 1119.191"><path d="M1500.5,2530.4c-2.623.234-17.251,6.115-18.959,7.721a4.325,4.325,0,0,1-2.574.893c-2.214,0-17.548,6.709-22.477,9.834-2.2,1.395-7.473,4.239-11.719,6.32s-8.579,4.644-9.629,5.693c-2.1,2.1-10.807,5.166-21.652,7.629-3.85.875-9.7,2.217-13,2.984-14.357,3.336-21.18,4.784-40.5,8.594-11.275,2.223-27.576,5.357-36.223,6.965s-17.872,3.6-20.5,4.432c-5.265,1.663-24.758,4.95-38.777,6.539-16.4,1.859-36.942,4.812-41,5.895a47.854,47.854,0,0,1-9.846,1.092c-6.236.026-11.24,2.146-12.2,5.168-.3.941-2.1,2.629-4,3.75s-3.455,2.663-3.455,3.426-1.084,2.558-2.41,3.988a14.735,14.735,0,0,0-3.1,5.9,44.642,44.642,0,0,1-2.463,7.295c-2.22,5-4.029,10.68-4.029,12.633,0,.82-1.332,2.475-2.959,3.678-1.832,1.355-3.641,4.143-4.75,7.322-2.235,6.405-7.44,11.5-14.812,14.5a39.133,39.133,0,0,0-8.5,4.73,22.975,22.975,0,0,1-6.3,3.578c-2.753.908-3.61,1.893-4.641,5.336a86.32,86.32,0,0,1-4.615,10.881,54.213,54.213,0,0,0-4.426,13.375,42.974,42.974,0,0,1-2.412,9.342,57.868,57.868,0,0,0-2.932,9.7,144.457,144.457,0,0,1-5.516,17c-2.157,5.461-5.359,14.653-7.117,20.428a105.186,105.186,0,0,1-5.607,14.877c-1.325,2.407-2.41,5.107-2.41,6,0,2.748-5.68,13.8-11.252,21.912a138.032,138.032,0,0,0-8.689,14.711c-1.865,3.85-4.369,8.575-5.564,10.5a24.553,24.553,0,0,0-2.822,7c-.357,1.925-1.138,5.75-1.734,8.5a77.745,77.745,0,0,0-1.367,10c-.162,2.863-2.024,9.488-4.355,15.5-2.24,5.775-5.386,13.875-6.994,18-3.879,9.951-6.221,17.344-6.221,19.643,0,2.422-5.046,16.631-7.838,22.068a20.736,20.736,0,0,0-2.162,5.6c0,.765-2.438,6.363-5.42,12.438-4.151,8.457-7.021,12.753-12.25,18.334-7.839,8.367-13.5,13.666-17.227,16.143-6.064,4.024-21.7,14.83-22.826,15.775a18.689,18.689,0,0,1-3.5,2.055,47.632,47.632,0,0,0-4.277,2.248c-8.109,4.943-16.666,9.814-18.186,10.35a16.7,16.7,0,0,0-4.314,2.928,48.612,48.612,0,0,1-8.691,5.352,77.232,77.232,0,0,0-13,8.914c-8.561,7.356-13.009,10.142-22.365,14.01-12.34,5.1-31.617,9.059-37.955,7.791-2.823-.565-3.1-.3-6.184,6.1a60.8,60.8,0,0,1-8.018,11.982c-2.633,2.907-4.787,5.682-4.787,6.164s-2.515,2.839-5.59,5.238-7.687,6.217-10.25,8.482c-6.284,5.554-9.718,7.152-18.346,8.547-6.564,1.061-7.741,1.614-11.473,5.377-5.84,5.889-13.9,17.451-18.289,26.228l-3.725,7.449,1.832,3.592c1.553,3.046,1.756,5.268,1.346,14.639-.266,6.076-.648,12.174-.848,13.549-1.077,7.4-1.919,11.043-2.668,11.506-.46.284-1.605,2.875-2.543,5.756a29.673,29.673,0,0,1-2.937,6.738,13.1,13.1,0,0,0-1.857,4.8c-.342,1.815-2.428,6.395-4.637,10.176s-4.016,7.54-4.016,8.354c0,2.184-12.574,20.69-16.424,24.172-3.372,3.05-3.9,4.538-9.256,26-.823,3.3-2.073,7.575-2.777,9.5-2.838,7.754-3.6,11.032-3.986,17.127-.789,12.453-7.185,26.138-18.689,40-6.16,7.421-9.867,15.441-9.867,21.346a21.532,21.532,0,0,1-2.5,10.109c-1.373,2.706-2.5,5.95-2.5,7.209a17.77,17.77,0,0,1-1.947,6.1c-1.519,2.977-1.818,5.02-1.371,9.355.472,4.57.088,6.784-2.184,12.574-2.633,6.712-2.7,7.319-1.531,13.529.9,4.779.947,7.808.17,11.434a17.536,17.536,0,0,0-.027,8.666c.567,2.053.763,4.435.436,5.289a3.566,3.566,0,0,0,.9,3.207c3.688,4.075,4.508,9.431,3.41,22.287-.575,6.736-1.487,13.072-2.025,14.078-.557,1.04-.694,4.5-.318,8.01.578,5.412.224,7.51-2.842,16.863-1.926,5.875-4.617,13.3-5.981,16.5-3.957,9.288-5.893,19.518-5.143,27.17.606,6.177.474,6.841-1.869,9.363-2.51,2.7-2.513,2.736-.9,7.768,1.672,5.23,2.318,5.957,19.773,22.246,8.472,7.906,12.224,9.682,23.949,11.33,13.094,1.841,25.388,9.036,30.3,17.734a32.519,32.519,0,0,0,19.047,15.8l7.106,2.287,23.775-7.627c13.076-4.2,25.125-7.88,26.775-8.187s16.463-1.242,32.918-2.076c29.45-1.493,30.1-1.481,41.5.586,18.07,3.277,57.529,13.724,68.582,18.158,10.309,4.135,21.07,7.154,22.453,6.3.433-.267,10.884-3.149,23.227-6.4,15.947-4.2,24.779-7.089,30.518-9.975,4.442-2.233,17.015-7.258,27.939-11.166l19.863-7.107,23-2.1c18.973-1.736,24.331-1.912,30.6-1,10.1,1.469,52.332,10.944,57.4,12.877,2.2.839,12.146,4.594,22.1,8.342s19.929,7.746,22.162,8.885a176.984,176.984,0,0,0,24.736,9.746c7.533,2.007,17.134.956,42.59-4.666,12.569-2.776,25.455-5.948,28.633-7.049a67.064,67.064,0,0,1,29.709-2.816,298.793,298.793,0,0,1,44.588,9.412c6.427,1.922,12.2,3.494,12.832,3.494.856,0,1.208-59.02,1.4-233.75l.252-233.75,54.5-.23c29.975-.126,227.19-.239,438.25-.25l383.75-.02v-330.72l-9.25-1.225a148.018,148.018,0,0,1-34.482-8.775l-9.336-3.574-12.873-14.182-12.873-14.184-11.344-4.922c-11.246-4.881-11.476-5.048-27.117-19.842-13.692-12.95-17.607-16.02-29.66-23.25-7.638-4.581-14.307-8.33-14.82-8.33s-7.642,3.092-15.84,6.871c-15.95,7.352-18.157,7.988-38.447,11.1L2090.763,2770l-8.137-6.348c-4.476-3.49-13.537-9.759-20.137-13.93-22.954-14.506-26.032-16.6-31.416-21.363-6.417-5.68-13.084-15.557-13.084-19.383a5.767,5.767,0,0,0-1.437-3.916,64.814,64.814,0,0,1-5.75-7.105c-2.754-3.776-5.577-6.428-7.812-7.34l-3.5-1.426-2.346,3.9c-2.018,3.356-3.273,4.189-9,5.967-7.747,2.4-11.555,2.027-18.141-1.8-5.248-3.048-7.552-5.471-9.639-10.131-4.079-9.112-7.619-10.874-14.883-7.41-3.419,1.63-3.736,1.619-7.223-.25-2.257-1.21-7.43-6.717-13.578-14.455-9.141-11.5-10.381-12.674-15.562-14.672a35.131,35.131,0,0,0-12.629-2.211c-10.041-.057-36.783,2.447-45,4.213-3.85.828-14.875,2.225-24.5,3.105s-23.817,2.55-31.537,3.711l-14.037,2.111-4.209-2.148a32.372,32.372,0,0,0-8.562-2.744c-6.507-.892-24.278,2.372-28.94,5.314-2.955,1.865-5.045,2.384-9.029,2.24-5.743-.207-41.314,1.905-43.686,2.594-.825.24-7.575,1.143-15,2.008l-13.5,1.572-8-4.068c-7.54-3.833-20.393-8.094-41-13.594a66.813,66.813,0,0,0-18.768-2.418c-9.7-.014-9.836-.049-19.5-4.928-12.838-6.482-17.1-11.044-25.67-27.514-3.7-7.11-8.406-15.435-10.455-18.5-6.34-9.484-12.748-25.469-14.174-35.356-1.208-8.376-1.455-8.954-5.35-12.443-5.806-5.2-12.324-13.81-13.088-17.287-.358-1.63-1.092-3.235-1.631-3.568a.643.643,0,0,0-.355-.031Z" transform="translate(-684.656 -2530.388)" fill="#d1add8"/></svg>