<svg xmlns="http://www.w3.org/2000/svg" width="1329.953" height="1038.976" viewBox="0 0 1329.953 1038.976"><path d="M680.6,3566l-3.619,3.881a37.482,37.482,0,0,1-8.762,6.486c-5.4,2.734-7.208,4.944-7.219,8.793a13.862,13.862,0,0,1-1.5,5.18,13.781,13.781,0,0,0-1.494,5.174c0,5.729-6.859,10.4-25.646,17.477-5.97,2.248-12.072,4.965-13.562,6.037a12.078,12.078,0,0,1-3.461,1.949c-.413,0-2.567,1.913-4.789,4.25s-5.616,5.679-7.541,7.426c-4.693,4.259-10.85,12.039-17.619,22.264q-14.917,22.533-28.881,31.879c-5.773,3.87-18.532,15.93-24.146,22.824a102.805,102.805,0,0,1-8.1,8.672c-2.338,2.167-4.25,4.461-4.25,5.1,0,1.391-8.366,9.533-12.287,11.957-2.376,1.469-2.7,2.195-2.217,4.926.8,4.482-1.985,8.517-9.908,14.371-10.577,7.814-12.5,8.987-24.975,15.262-13.286,6.681-17.624,9.925-15.137,11.316.838.469,1.523,2.126,1.523,3.682a5.994,5.994,0,0,0,1.5,4.072,4.064,4.064,0,0,1,1.5,2.473c0,.676,1.112,3.324,2.473,5.883,1.976,3.716,2.278,5.167,1.5,7.213-1.288,3.388-1.228,4.085.227,2.631a6.433,6.433,0,0,1,3.893-1.2c2.013,0,2.844.609,3.3,2.42.86,3.427-.074,5.2-3.953,7.484-2.577,1.521-3.65,3.049-4.5,6.41-.854,3.392-2.594,5.847-7.525,10.615-3.529,3.412-6.416,6.782-6.416,7.488,0,1.979-4.505,9.994-8.713,15.5-2.083,2.729-5.1,7.073-6.705,9.656s-3.63,4.909-4.5,5.168c-1.379.41-6.763,10.3-8.49,15.6a4.163,4.163,0,0,1-2.65,2.381c-1.126.294-3.571,2.918-5.434,5.83-2.091,3.269-4.722,5.927-6.881,6.951l-3.5,1.658,2.435,4.361c1.339,2.4,2.434,5.307,2.434,6.467s-2.569,7.374-5.709,13.809c-4.886,10.012-6.905,12.94-14,20.3-7.234,7.506-8.291,9.058-8.291,12.174a10.051,10.051,0,0,1-2.5,6.541c-1.375,1.634-2.5,3.39-2.5,3.9s-2.271,4.225-5.047,8.254c-3.882,5.635-4.924,7.927-4.512,9.928.8,3.87-7.924,17.812-15.74,25.162-2.795,2.628-5.878,6.87-6.559,8.881,1.676-.995,2.437-.913,4.383.129a12.09,12.09,0,0,1,3.4,2.836c4.07,3.254,7.03,10.308,7.02,18.094-.011,7.909-3.283,16.862-6.8,18.615a38.146,38.146,0,0,0-6.5,5.1,55.135,55.135,0,0,1-6.68,5.488c-3.555,2.186-15.283,6.795-17.293,6.795a1.553,1.553,0,0,0-1.672,1.385,13.125,13.125,0,0,1-1.488,4.25c-1.142,2.2-1.2,2.959-.25,3.266,3.942,1.274,3.638,7.562-.678,13.975-4.413,6.558-9.119,16.618-9.982,21.34-.374,2.043-.839,8.793-1.033,15-.2,6.5-.971,12.98-1.812,15.285a54.162,54.162,0,0,0-2.174,9.488,26.671,26.671,0,0,1-2.7,8.707c-1.784,2.887-13.073,12.305-14.75,12.305-1.161,0-3.973,6.341-4.435,10a36.858,36.858,0,0,1-1.522,6.5,88.075,88.075,0,0,0-2.312,11.918c-1.217,8.8-4.811,17.638-8.375,20.6a6.026,6.026,0,0,0-1.484,4.086c0,6.749-24.154,19.9-36.547,19.9-3.673,0-4.492-.436-6.574-3.494-4.046-5.94-9.052-4.349-14.139,4.494a25.12,25.12,0,0,1-5.33,6.5,45.485,45.485,0,0,0-4,3.25,4.228,4.228,0,0,1-2.279,1.25c-1.979,0-4.127,4.5-4.127,8.65,0,4.58-1.313,6.442-6.346,9-1.735.882-3.254,1.683-3.375,1.779-.374.3-7.375,19.755-9.256,25.723a99.064,99.064,0,0,1-4.365,11,45.026,45.026,0,0,0-3.059,7.848,52.742,52.742,0,0,1-4.455,12.5,23,23,0,0,0-1.744,8.154c-.23,7.184-4.354,15.381-10.908,21.688-4.762,4.582-5.5,5.858-6.629,11.422-1.223,6.035-1.189,6.32.934,7.807a5.179,5.179,0,0,1,2.2,3.535c0,2.625-2.611,7.627-6.027,11.551-2.393,2.749-2.687,3.784-2.275,8a50.984,50.984,0,0,0,1.4,7.895c.607,2,.529,4.929-.23,8.5a105.677,105.677,0,0,0-1.416,14.949c-.141,5.225-.751,11.071-1.354,12.992a27.607,27.607,0,0,0-1.1,6.852c0,1.846-1.152,7.681-2.559,12.967a115.345,115.345,0,0,0-3.088,16.15,66.427,66.427,0,0,1-1.875,11.039,66.282,66.282,0,0,0-2.58,20.252,41.481,41.481,0,0,1-.764,9.5c-4.08,18.46-4.384,20.655-3.77,27.27.391,4.208.251,7.1-.363,7.477-.551.34-1.007,2.056-1.014,3.811a44.248,44.248,0,0,1-1.488,8.691,55.09,55.09,0,0,0-1.488,11.75c-.01,5.509-.227,6.229-1.951,6.246H117.8c.561,0,1.057-.016,1.521-.039-1.284-.06-1.393-.706-.842-3.645a25.732,25.732,0,0,1,3.4-7.75c4.9-7.365,7.216-15.137,12.131-40.748,2.672-13.923,5.5-27.114,6.279-29.314l1.422-4,20.9-.754c11.5-.415,245.17-.864,519.28-1l498.38-.246-.66-11c-1.054-17.55-5.395-85.656-8.094-127-1.364-20.9-4.51-70.625-6.99-110.5s-4.94-76.2-5.463-80.721-4.857-22.468-9.629-39.881l-8.676-31.658,5.24-17.621c2.883-9.691,5.813-18.969,6.51-20.619s7.316-11.12,14.709-21.045c12.879-17.288,13.837-18.314,22.871-24.449,5.186-3.522,30.58-20.8,56.43-38.4l47-31.99,55-8.227,27.5-13.83c24.862-12.5,28.891-14.208,42-17.75,7.975-2.155,16.864-4.582,19.754-5.395l5.254-1.479-.508-265.18-13-3.865c-20.114-5.979-42.166-10.113-54-10.123-8.054-.01-11.46.482-17.5,2.512-4.125,1.386-18.075,4.878-31,7.762-35.323,7.881-41.858,7.554-65-3.252-4.675-2.183-16.15-6.824-25.5-10.314s-18.8-7.108-21-8.039c-4.287-1.813-45.64-11.493-57.9-13.553-6.381-1.072-10.561-.953-30.252.857l-22.85,2.1-18.029,6.508c-9.916,3.579-22.516,8.606-28,11.172-6.82,3.191-16.448,6.376-30.471,10.08-11.275,2.979-21.986,5.9-23.8,6.5-4.2,1.381-13.884-.862-26.689-6.182-9.72-4.038-48.984-14.486-67.268-17.9-10.592-1.978-12.548-2.04-33-1.031-39.317,1.94-39.819,2.021-67.043,10.883l-24.3,7.912-8.109-2.645c-9.548-3.113-16.281-8.5-20.947-16.774-4.8-8.513-15.467-14.93-27.9-16.793-2.444-.366-7.287-1.4-10.764-2.289-5.935-1.523-7.161-2.4-20.051-14.342-12.405-11.494-13.911-13.259-15.631-18.32Z" transform="translate(-113.067 -3566)" fill="#d1add8"/></svg>