<svg xmlns="http://www.w3.org/2000/svg" width="740.465" height="621.304" viewBox="0 0 740.465 621.304"><path d="M2497.3,1124.7c-.567-.1-1.655.608-3.986,2.326-4.6,3.394-5.283,5.062-7.322,17.973a85.449,85.449,0,0,1-3.646,14c-2.823,7.456-2.662,12.727.686,22.457,2.971,8.635,2.7,15.233-.791,19.564a77.248,77.248,0,0,0-5.426,7.979c-3.658,6.287-11.424,13.811-15.383,14.9a23.534,23.534,0,0,0-6.105,2.885c-4.2,2.968-21.939,11.643-29.174,14.266S2409.614,1251.5,2404.84,1259c-2.4,3.773-3.385,4.509-6.08,4.551-10.154.159-11.856.5-14.012,2.8a12.6,12.6,0,0,1-5.941,3.043c-2.174.4-4.176,1.508-4.785,2.646-.767,1.433-2.1,1.957-4.977,1.957-2.906,0-4.208.521-5,2a3.963,3.963,0,0,1-3.088,2c-1.342,0-2.367,1-3.062,3-.881,2.527-1.573,3-4.389,3-4.317,0-4.768-.9-3.326-6.623l1.191-4.727-3.629-3.074c-2.278-1.93-4.908-5.868-7.062-10.576-3.115-6.807-8.65-23.391-10.088-30.228-.741-3.524-8.139-12.067-12.191-14.078-3.773-1.873-6.944-1.266-10.477,2.006-2.346,2.173-3.241,2.37-8.5,1.865-8.94-.857-12.592-.662-15.879.848-1.65.758-4.253,1.959-5.785,2.67-2.2,1.02-3.481,1.042-6.072.105a20.052,20.052,0,0,0-4.629-1.187c-3,0-15.912-7-17.182-9.314-2.412-4.4-9.274-12.345-12.535-14.514a11.083,11.083,0,0,1-4.408-6.15c-.84-2.8-1.763-4.021-3.047-4.021-1.216,0-1.842-.728-1.842-2.143,0-4.006,3.981-15.532,5.994-17.354a6.719,6.719,0,0,0,2.006-2.523c0-.391-3.413-3.534-7.584-6.984-8.685-7.184-6.671-7.661-16.875,4-6.863,7.845-19.624,19.556-36.8,33.772-11.628,9.626-12.622,10.706-11.25,12.223a5.678,5.678,0,0,1,1.506,2.721c0,1.847,2.465,5.66,6.291,9.73,3.207,3.412,3.709,4.59,3.709,8.713,0,8.3-4.714,19.469-11.258,26.674-3.037,3.344-3.773,4.825-3.232,6.5a43.334,43.334,0,0,1,1.2,5.35c.4,2.54,1.244,3.481,4.2,4.662,6.519,2.609,7.737,9.06,3.605,19.111-2.255,5.485-2.332,6.185-.977,8.9,2.846,5.705,1.1,18.43-3.312,24.172-2.331,3.032-9.847,11.872-11.8,13.877-1.016,1.044-1.52,3.055-3.34,13.291a16.584,16.584,0,0,1-1.8,5.5,14.7,14.7,0,0,0-1.781,4.8c-.469,2.248-2.746,5.652-6.365,9.516-3.1,3.308-8.56,9.549-12.135,13.869s-7.451,8.813-8.613,9.984-5.49,6.406-9.617,11.631-8.463,10.356-9.637,11.4-2.133,2.333-2.133,2.855-3.488,4.907-7.75,9.746-8.875,10.43-10.25,12.424c-4.179,6.058-11.733,15.786-16.385,21.1l-4.4,5.029-.5,10.971c-.358,7.815-1.067,12.263-2.465,15.469-2.369,5.434-9.906,16.465-16.451,24.078-3.5,4.068-4.795,6.416-4.795,8.678a7.527,7.527,0,0,1-1.5,4.6,5.085,5.085,0,0,0-1.5,2.867c0,1.664-7.415,13.06-11.365,17.467-3.348,3.735-5.686,7.926-4.873,8.738a5.49,5.49,0,0,0,2.832.57c5.6,0,8.9,10.46,8.182,25.934-.353,7.646-.988,10.77-3.162,15.56-1.5,3.3-2.5,6.833-2.232,7.858a8.919,8.919,0,0,1-.5,4.467,5.383,5.383,0,0,0,.242,4.908c1.06,1.981.775,3.407-2.039,10.223-2.4,5.815-3.094,8.72-2.609,10.928a8.623,8.623,0,0,1-.418,5.021c-.9,1.679-.7,2.217,1.182,3.209,3.327,1.752,3.783,2.824,3.779,8.893a91.474,91.474,0,0,0,2.524,19.209c.463,1.853-.01,4.124-1.488,7.184-2.3,4.756-2.488,6.2-1.467,11.357.509,2.57,1.139,3.25,3.01,3.25a22.372,22.372,0,0,1,6.359,1.6c4.322,1.729,5.567,4.637,4.881,11.4-.311,3.061-.039,3.4,3.941,4.863l4.277,1.574-.17,6.035a27.52,27.52,0,0,0,1.814,11.033c1.092,2.75,2.269,5.787,2.613,6.75.951,2.655,6.216,2.213,10.246-.861,2.31-1.762,4.158-2.427,5.684-2.047,2,.5,2.775-.423,6.678-7.891,3.946-7.548,4.718-8.451,7.227-8.451a5.055,5.055,0,0,1,4.494,2.57l1.684,2.57,3.5-6.621c3.074-5.823,3.807-6.585,6.088-6.32,2.092.243,2.586.825,2.557,3.016-.032,2.343.28,2.637,2.271,2.137,1.549-.389,5.092.774,10.768,3.535,4.652,2.263,9.119,4.113,9.93,4.113,2.639,0,6.516-2.26,7.115-4.148a4.656,4.656,0,0,1,3.27-2.437c1.476-.324,3.134-.707,3.684-.852a14.979,14.979,0,0,1,4.875,1.088c4.89,1.7,4.625,1.757,4.625-.928,0-2.778,2.619-6.723,4.463-6.723.742,0,3.624,3.07,6.406,6.822s6.539,7.621,8.35,8.6a24.146,24.146,0,0,1,6.285,5.752c3.457,4.6,4.518,4.611,14.818.213,3.4-1.451,7.19-2.6,8.428-2.553s3.038.047,4,0c6.7-.33,25.624.3,29.293.971a21.5,21.5,0,0,0,6.957.219c2.144-.514,2.539-1.233,2.775-5.059a88.892,88.892,0,0,1,1.322-9.711c.934-4.694,1.5-5.515,5.33-7.762a52.353,52.353,0,0,1,9.592-4.086c3.495-1.038,7.654-3.509,12.188-7.24,17.875-14.709,18-14.766,23.3-10.723,1.919,1.464,3.49,3.335,3.49,4.158s1.178,2.59,2.617,3.924c1.586,1.47,2.384,3.036,2.023,3.975-.334.87.273,2.417,1.383,3.527a7.318,7.318,0,0,1,1.977,4.418c0,1.343.423,2.7.939,3.021s.945,4.149.955,8.512c.013,6.016.517,8.91,2.082,11.978,3.1,6.073,4.392,5.22,3.773-2.49l-.525-6.537,3.637-1.883a44.51,44.51,0,0,0,8.6-6.963c5.328-5.455,7.717-6.156,10.973-3.219,2.684,2.421,9.92,4.139,17.442,4.139a31.5,31.5,0,0,1,8.809,1.107c1.548.609,7.54,1.542,13.314,2.074,12.91,1.19,13.19,1.193,20.113.3,3.808-.494,5.837-.365,6.309.4,1.158,1.874,11.075,1.349,14.772-.781a29.025,29.025,0,0,1,8.807-2.625c9.174-1.2,14.1-3.154,18.412-7.3,3.289-3.161,6.262-4.644,15.205-7.586l11.115-3.658,5.17,2.037a32.806,32.806,0,0,0,9.963,2.039,33.746,33.746,0,0,1,10.975,2.514l6.186,2.514,4.738-2.264a18.5,18.5,0,0,0,7.98-7.244c3.865-5.932,8.256-18.549,8.256-23.723,0-2.3.585-4.025,1.553-4.566.854-.478,2.359-4,3.342-7.816,2.774-10.785,5.482-14.228,15.938-20.262l9.037-5.217-1.678-2.924c-2.325-4.051-.735-5.547,3.881-3.65a14.644,14.644,0,0,0,6.52.934c2.664-.409,3.255-.078,4.279,2.395.987,2.383,2.14,3.09,6.791,4.172,3.081.716,6.132,1.507,6.781,1.756,1.269.487,3.064-2.544,3.947-6.666.361-1.683,2-3.344,4.828-4.893a47,47,0,0,0,6.781-4.525,37.817,37.817,0,0,1,8.758-4.594c6.376-2.457,7.35-3.706,9.764-12.537.308-1.128,9.392-2.4,17.123-2.4,3.533,0,5.056-.634,8.1-3.375a19.571,19.571,0,0,1,7.1-4.1,13.023,13.023,0,0,0,5.5-2.875c1.865-1.865,3.284-2.148,10.754-2.148,7.944,0,9.157-.283,15.779-3.674,18.388-9.416,28.05-18.255,26.537-24.281-.867-3.456,3.267-8.814,9.477-12.281,4.2-2.343,4.927-3.28,6.578-8.449,1.355-4.24,2.345-5.814,3.656-5.814,2.479,0,3.452-2.241,4.9-11.279.687-4.278,1.635-8.017,2.107-8.309s.857-1.628.857-2.971c0-2.379-.2-2.441-7.777-2.441h-7.775l-2.758-4.25a37.789,37.789,0,0,1-3.83-7.83c-.943-3.144-1.738-3.8-6.52-5.43-2.995-1.018-5.723-2.3-6.064-2.854s-.536-4.13-.434-7.951l.186-6.947-5.93.672c-6.546.741-6.87.531-8.176-5.258-.61-2.705-.435-4.032.7-5.283q1.511-1.67.445-2.328c-2.052-1.269-1.029-3.3,3.01-5.971,2.266-1.5,4.528-4,5.1-5.633.649-1.861,1.72-2.937,2.926-2.937a1.736,1.736,0,0,0,1.9-1.893c0-2.176,1.864-3.107,6.221-3.107a5.764,5.764,0,0,0,4.328-1.736c1.206-1.649,1.367-1.649,3.189,0a6.685,6.685,0,0,0,3.561,1.736c.9,0,3.568,1.332,5.922,2.961l4.279,2.963,8.363-2.463a58.351,58.351,0,0,1,15.5-2.492c8.147-.036,11.866-1.706,9.035-4.055-1.3-1.078-1.485-2.356-.924-6.381.386-2.768.694-5.791.682-6.717-.032-2.5,2.626-4.435,4.086-2.975,1.722,1.723,2.758,1.407,2.758-.842,0-1.111-.667-2-1.5-2a1.611,1.611,0,0,1-1.5-1.7c0-.932-1.077-2.845-2.395-4.25a43.133,43.133,0,0,1-5.105-7.8c-1.49-2.887-3.027-5.25-3.416-5.25s-.678-4.742-.645-10.537c.048-8.2.393-10.759,1.561-11.543,1.279-.859,1.166-1.242-.771-2.6a89.719,89.719,0,0,1-7.143-6.238c-5.558-5.3-7.072-9.336-7.08-18.881,0-3.515-.642-7.531-1.445-9.084-2.7-5.22-1.722-20.928,1.729-27.783,2.374-4.717,2.825-9.211,1.236-12.283-1.3-2.5-1.227-4.01.629-13.936,2.191-11.718,1.792-14.437-1.979-13.451-.964.252-2.876-.584-4.252-1.859s-3.3-2.162-4.287-1.973a4.965,4.965,0,0,1-3.611-1.309c-1.2-1.088-2.051-1.289-2.484-.588-.918,1.485-4.541,1.337-4.545-.186-.01-2.143-7.146-9.75-9.152-9.75a2.783,2.783,0,0,1-2.482-1.5c-.324-.844-1.811-1.5-3.4-1.5-1.962,0-3.023-.62-3.471-2.031-1.028-3.239-5.107-6.828-6.65-5.85-1.964,1.245-5.256,1.064-6.7-.369a6.511,6.511,0,0,0-3.951-1.25c-2.251,0-2.749-.493-3.033-3-.435-3.83-8.854-15.782-10.475-14.871-.652.367-2.618,1.726-4.369,3.02-3.856,2.85-6.987,2.956-10.316.352-3.289-2.573-4.789-2.5-5.18.25-.262,1.844-.952,2.25-3.82,2.25-3.15,0-3.532-.3-3.826-3-.4-3.642-2.174-5.877-2.174-2.734,0,2.691-2.662,4.17-8.812,4.9-3.652.433-5.065.189-6.094-1.051-.911-1.1-2.978-1.616-6.467-1.623-6.393-.012-14.175-3.478-17.988-8.01a23.056,23.056,0,0,0-5.961-4.9c-2.517-1.263-3.139-2.166-2.99-4.338.124-1.807-.3-2.744-1.25-2.744a1.474,1.474,0,0,1-1.437-1.5,1.5,1.5,0,0,0-1.48-1.5c-.815,0-1.753-1.238-2.084-2.75-1.044-4.764-1.261-5.087-3.625-5.422-1.947-.276-2.327-.951-2.42-4.281-.061-2.174-.623-4.125-1.25-4.334a2.475,2.475,0,0,1-1.141-2.3c0-1.352-.7-1.916-2.377-1.916a18.69,18.69,0,0,1-5.75-1.414c-3.564-1.494-12.888-8.186-14.074-10.1-2.38-3.844-9.869-10.34-12.615-10.943-1.751-.385-3.184-1.09-3.184-1.568,0-1.8-4.816-5.973-6.9-5.973a2.913,2.913,0,0,1-2.707-1.75,17.541,17.541,0,0,0-1.451-3.25c-.5-.825-1.83-3.412-2.953-5.75s-2.419-4.25-2.881-4.25c-1.75,0-6.111-7.711-6.111-10.805,0-2.124-.487-3.2-1.449-3.2-1.925,0-6.213-4.044-6.68-6.3-.123-.593-.277-.941-.617-1Z" transform="translate(-2015.581 -1124.691)" fill="#d1add8"/></svg>