<svg xmlns="http://www.w3.org/2000/svg" width="956.525" height="854.375" viewBox="0 0 956.525 854.375"><path d="M2550.7,1637.3c-.968-.035-1.576.192-1.207.789.743,1.2-.943,2.476-11.029,8.338-7.627,4.432-9.4,5.971-11.646,10.082a47.51,47.51,0,0,0-3.893,10.723c-.685,3.23-1.761,6.2-2.389,6.592s-1.719,3.6-2.426,7.119c-1.827,9.1-4.61,15.995-8.914,22.111-2.967,4.217-4.919,5.816-9.52,7.791l-5.789,2.484-6.711-2.586a59.762,59.762,0,0,0-12.967-3.2,41.582,41.582,0,0,1-9.406-1.932c-2.867-1.206-4.106-1.01-13.746,2.174-8.369,2.764-11.445,4.317-14.645,7.389-4.319,4.146-7.157,5.276-17.418,6.93-3.559.573-7.888,1.918-9.619,2.988-3.661,2.262-15.187,2.728-18.367.742-1.51-.943-3.014-.927-6.947.082-2.761.708-5.523.977-6.137.6s-5.934-1.078-11.822-1.551-12.49-1.489-14.672-2.258a18.367,18.367,0,0,0-7.281-.91c-4.447.655-15.06-1.546-18.295-3.795l-2.609-1.814-4.8,4.869c-2.638,2.679-5.965,5.353-7.391,5.943-2.407,1-2.578,1.485-2.373,6.807.27,7.016-.489,8.362-4.834,8.57-3.149.151-3.58-.22-6.137-5.268-2.249-4.44-2.75-6.75-2.75-12.689,0-3.994-.45-7.541-1-7.881s-1-1.925-1-3.523a4.2,4.2,0,0,0-2-3.977,4.147,4.147,0,0,1-2-3.477c0-1.323-.457-2.688-1.016-3.033a11.623,11.623,0,0,1-2.414-3.979,10.161,10.161,0,0,0-3.373-4.406c-2.272-1.216-3.676-.335-15.375,9.637-4.027,3.433-9.347,6.974-11.822,7.871-8.321,3.017-14.8,6.428-15.514,8.164a77.738,77.738,0,0,0-1.863,10.129c-1.147,8.345-1.18,8.413-4.641,9.611-2.754.953-5.167.932-11.484-.1-9.9-1.62-20.2-1.762-24.295-.336-2.075.724-3.681.752-4.869.088-1.245-.7-2.578-.576-4.484.41a96.961,96.961,0,0,1-10.48,3.871c-8.546,2.714-8.928,2.62-12.422-3.033a19.736,19.736,0,0,0-6.078-5.609c-2.2-1.237-5.943-4.863-8.316-8.057-4.455-5.995-5.553-6-5.553-.037,0,2.4-.219,2.51-3.75,1.865-10.9-1.99-11.146-1.978-13.232.674a16.651,16.651,0,0,1-5.883,4.078c-3.817,1.527-4.075,1.489-11.633-1.8-4.251-1.848-8.182-3.813-8.734-4.365s-2.521-.756-4.377-.455c-2.03.329-3.984.041-4.906-.725-1.811-1.5-1.661-1.632-4.381,3.762-2.578,5.111-6.05,5.788-8.729,1.7-2.063-3.148-2.542-2.709-7.332,6.717-3.563,7.011-3.886,7.338-7.309,7.408a12.792,12.792,0,0,0-7.164,2.807c-3.451,2.632-3.755,2.684-8.219,1.424-4.611-1.3-4.651-1.352-7.858-9.67-2.44-6.33-3.1-9.4-2.74-12.631.471-4.177.4-4.3-3.2-5.484-4.24-1.4-5.415-3.743-4.8-9.574.481-4.6-.69-6.082-5.58-7.061-3.919-.784-5.11,1.475-3.172,6.014,1.706,3.994,1.541,8.8-.476,13.842-1.531,3.826-1.515,4.078.357,5.389,5.045,3.533,3.4,11.329-6.451,30.623-1.334,2.613-2.428,5.545-2.428,6.517s-1.8,3.947-4,6.609-4,5.721-4,6.8a9.188,9.188,0,0,1-.906,3.65,23.845,23.845,0,0,0-1.393,6.354c-.434,4.168-.252,4.716,1.719,5.211a14.968,14.968,0,0,0,6.008-.5c4.382-1.21,7.811-.571,11.666,2.174a10.3,10.3,0,0,0,4.129,1.934c1.942,0,12.479,11.413,14.572,15.783,1.325,2.766,2.6,3.8,5.705,4.645,3.65.989,4.329,1.739,7.758,8.564,2.067,4.115,3.954,8.161,4.193,8.994s1.155,4.055,2.033,7.158c1.418,5.013,2.336,6.642,6.537,11.606a5.364,5.364,0,0,0,3.584,1.25c8.567,0,9.69,6.375,5.107,29-.836,4.125-2.265,12.225-3.178,18s-2.286,13.008-3.051,16.07-1.147,6.5-.848,7.649c1.2,4.579-6.815,32.911-11.25,39.781-1.775,2.75-6.218,11.75-9.871,20s-7.738,16.97-9.078,19.377-2.437,5.237-2.437,6.289-1.575,4.253-3.5,7.111-3.5,6.161-3.5,7.34-2.059,4.785-4.576,8.014a59.138,59.138,0,0,0-5.889,8.869c-1.35,3.088-14.548,16.908-29.6,31-6.129,5.737-9.276,9.565-11.123,13.531-1.416,3.042-3.3,6.135-4.191,6.873-2.07,1.718-2.067,5.479.01,8.643a7.244,7.244,0,0,1,1.025,5.465c-.346,1.732-.176,2.988.406,2.988,1.359,0,.572,10.96-1,13.894-1.431,2.674-.614,7.105,1.309,7.105.729,0,4.11-1.8,7.514-4,4.166-2.692,7.313-4,9.629-4,2.827,0,3.724-.544,5.025-3.061,3.556-6.877,7.624.249,5.523,9.676-.677,3.039-2.137,6.052-3.6,7.424-1.352,1.271-2.459,2.712-2.459,3.2s1.575,2.378,3.5,4.193c2.277,2.148,3.5,4.221,3.5,5.934,0,1.448.534,2.631,1.186,2.631s2.259,1.008,3.57,2.24c2.063,1.938,3.283,2.2,9.064,1.939,8.468-.38,9.932-.823,10.7-3.246.343-1.081,2.231-2.638,4.2-3.459a20.048,20.048,0,0,0,5.879-3.982c1.724-1.86,3.329-2.492,6.338-2.492,3.478,0,4.117.347,4.666,2.535.659,2.626,4.907,5.465,8.178,5.465a7.136,7.136,0,0,1,4.037,2.3c1.805,1.922,2.01,2.828,1.244,5.5-.922,3.215.2,4.576,1.336,1.619,1.274-3.32.573-9.19-1.395-11.691-2.525-3.21-2.547-5.351-.064-6,2.5-.654,5.354,1.386,8.064,5.771,2.271,3.674,5.363,4.6,6.393,1.92a20.945,20.945,0,0,0,.607-5.479c0-4.187,1.909-6.168,7.188-7.465,2.454-.6,2.91-.219,5.285,4.469,1.449,2.859,3.691,5.628,5.064,6.254a3.755,3.755,0,0,1,2.463,3.428,4.169,4.169,0,0,0,2,3.373c1.518.812,2,.76,2.006-.215a29.642,29.642,0,0,1,1.047-5.035c1.165-4.194,4.347-5.215,5.447-1.748.542,1.708,1.21,1.91,4.553,1.375,2.771-.443,4.633-.158,6.367.979,2.385,1.563,2.46,1.534,2.766-1.123.264-2.289,1.111-3,5.234-4.363,4.458-1.479,5.1-2.087,6.826-6.488,1.049-2.671,2.4-5.163,3-5.535s4.177-.985,7.941-1.363c5.446-.547,7.344-.36,9.291.916a11.046,11.046,0,0,0,5.1,1.6c1.459,0,4.121,1.238,5.916,2.75s5.211,4.325,7.594,6.25c6.014,4.859,8.906,8.034,8.906,9.775,0,.815,2.925,4.583,6.5,8.373s6.5,7.57,6.5,8.4a18.815,18.815,0,0,1-1.453,4.992c-1.366,3.27-1.231,4.261,2.232,16.508,3.183,11.253,4.2,13.564,7.453,16.951,2.073,2.157,3.768,4.208,3.768,4.557a14.917,14.917,0,0,0,2.1,3.588c2.653,3.726,4.869,11.934,4.885,18.092.012,4.716-.024,4.768-7.705,10.871a89.214,89.214,0,0,1-9.973,7.16l-2.258,1.027,2.975,3.387c3.374,3.843,3.587,5,1.479,8.006-2.39,3.413-13.5,11.31-15.9,11.31-4.858,0-6.084-5.107-2.451-10.209l2.15-3.02-2.4.748c-6.6,2.058-7.141,2.458-6.473,4.75,1.771,6.072,1.765,9.122-.023,14.385-1.858,5.465-1.856,5.542.109,6.9,3.9,2.7,4.486,3.563,4.486,6.58a11.931,11.931,0,0,1-1.982,5.842l-1.984,2.785,2.734,10.863,2.732,10.863,3.535.563c6.632,1.057,7.617,2.86,3.045,5.561-2.631,1.554-2.952,2.316-3.25,7.713-.315,5.714-.192,6.078,2.689,7.965,1.661,1.087,5.486,5.341,8.5,9.451s6.381,7.806,7.48,8.215c2.857,1.062,15.545,2.829,25.639,3.57l8.639.635,4.021,4.943c2.99,3.675,4.2,6.207,4.7,9.873.373,2.712.435,5.323.139,5.8s2.392,3.764,5.977,7.3a88.189,88.189,0,0,1,11.889,15.422c5.319,8.911,23.277,32.278,45.5,59.2l11.5,13.932.258-58.238.258-58.24,3.738-1.2c2.058-.658,10.9-4.741,19.646-9.074s16.679-7.879,17.627-7.879a4.378,4.378,0,0,0,2.926-1.447c.661-.8,3.3-2.234,5.871-3.2a43.8,43.8,0,0,0,9.066-5.053c2.417-1.818,4.748-3.3,5.182-3.3s1.088-.941,1.453-2.092c.822-2.589,25.4-27.908,27.471-28.295.825-.154,3.715-2.4,6.424-4.98s5.634-4.605,6.5-4.49,3.772-1.944,6.455-4.574a39.751,39.751,0,0,1,8.5-6.449,30.447,30.447,0,0,0,7.275-5.4c2.254-2.3,4.233-3.509,5.162-3.152,1.4.537,19.538-11.907,21.143-14.5a3.027,3.027,0,0,1,2.359-1.064c.936,0,2.822-1.031,4.191-2.289a63.232,63.232,0,0,1,8.99-5.916c3.575-2,8.208-4.79,10.295-6.211s4.458-2.584,5.27-2.584c1.028,0,1.305-.681.916-2.25-.444-1.789.743-3.554,5.8-8.617,6.948-6.959,10.034-9.043,13.471-9.1,1.238-.02,2.25-.648,2.25-1.4,0-1.3,5.4-3.8,11.25-5.2,1.665-.4,2.75-1.328,2.75-2.357,0-2,8.571-9.617,15-13.332a97.531,97.531,0,0,1,11.5-5.254c3.85-1.46,8.25-3.328,9.779-4.15a22.878,22.878,0,0,1,7.365-1.867,22.753,22.753,0,0,0,4.793-.676c1.271-1.845,3.563-10.153,3.563-12.912,0-3.938,2.579-7.029,7.383-8.85,3.055-1.157,11.821-.072,15.555,1.926,3.537,1.893,15.759,1.166,25.912-1.539,5.308-1.414,10.848-2.332,12.312-2.041a3.946,3.946,0,0,0,3.881-.937c.669-.807,3.072-1.749,5.338-2.094,3.676-.56,5.628-2.162,18.119-14.856,11.324-11.508,14.955-14.587,18.994-16.113,2.746-1.038,8.146-3.489,12-5.447,6.178-3.139,7.847-3.549,14.119-3.469,5.863.075,8.236.648,13.5,3.258,9.245,4.584,13.5,5.521,16.971,3.729,3.435-1.776,8.085-1.887,9.74-.232.809.809,3.761,1.117,8.717.91,6.173-.258,8.117.054,11.033,1.775a17.291,17.291,0,0,0,7.432,2.09,8.785,8.785,0,0,1,6.537,2.453,13.333,13.333,0,0,0,7.3,3.031c2.56.318,6.229.767,8.154,1,4.654.554,7-.917,11.893-7.443s9.059-8.447,20.482-9.451c4.861-.427,8.448-1.266,9.373-2.191a4.424,4.424,0,0,1,4.26-.893c1.519.333,6.9.937,11.967,1.342,8.287.662,9.335.552,10.492-1.1,1.531-2.185,9.4-7.322,15.133-9.877,3.815-1.7,4.33-2.435,7.434-10.6a80.893,80.893,0,0,1,5.15-11.424c2.3-3.367,2.291-5.366-.059-8.691-4.419-6.253-3.286-13.847,3.094-20.74,2.566-2.773,2.741-3.382,1.719-6-.625-1.6-1.734-9.214-2.465-16.914s-2-16.974-2.818-20.609a71.6,71.6,0,0,1-1.52-12.719c-.016-3.359-.44-6.911-.941-7.891a22.815,22.815,0,0,1-1.506-4.93c-.533-2.82-.056-3.658,4.607-8.057,3.482-3.284,6.747-5.339,9.865-6.207,5.02-1.4,7.039-4.409,4-5.965-4.526-2.317-9.96-2.084-19.7.84-5.392,1.619-10.19,2.7-10.66,2.414s-2.621-4.042-4.781-8.338l-3.928-7.811,2.512-8.18c3.067-9.985,3.611-8.846-12.354-25.875-6.187-6.6-11.25-12.656-11.25-13.459,0-1.513,12.914-14.3,17.432-17.262,4.5-2.948,3.52-6.608-3.682-13.758a194.3,194.3,0,0,1-13.088-14.951c-6.138-7.85-7.176-8.744-10.143-8.744-3.627,0-4.505-1.225-4.541-6.332a10.723,10.723,0,0,0-1.844-5.535l-1.82-2.369-3.979,2.633c-2.6,1.72-7.94,3.5-15.406,5.135-6.286,1.376-13.2,2.917-15.369,3.426s-4.313.7-4.77.414-1.952-2.73-3.326-5.441c-3.153-6.221-6.048-6.782-6.092-1.18-.016,2.063-.182,6-.369,8.75a57.551,57.551,0,0,0,.379,10c.677,4.717.5,5.3-3.082,10.221-2.09,2.871-4.51,5.234-5.377,5.25s-2.625-1.089-3.908-2.455c-3.61-3.843-7.235-3.963-20.949-.691-12.337,2.943-12.428,2.949-16.633,1.146a136.926,136.926,0,0,0-13.816-4.363,93.486,93.486,0,0,1-13.416-4.5c-4.235-2.161-5.184-1.872-6.932,2.109-.655,1.492-3.848,5.992-7.1,10s-9.151,12.462-13.119,18.787-8.046,12.4-9.062,13.5c-1.429,1.546-1.875,3.7-1.963,9.5-.127,8.418.336,14.461,1.352,17.639.727,2.274-2.736,9.361-4.574,9.361-4.285,0-10.427-7.284-16.76-19.881l-3.209-6.383-6.168.563c-5.877.535-6.461.377-12.312-3.316-6.047-3.817-6.169-3.847-7.9-1.93-2.57,2.839-5.562,2.405-11.475-1.662l-5.246-3.607-4.734,2.219c-4.23,1.981-5.519,2.125-12.078,1.357-7.211-.844-7.354-.917-7.992-4.049-.674-3.309.408-5.311,2.871-5.311,2.928,0,8.2-3.258,8.2-5.066a13.393,13.393,0,0,1,1.176-4.418c1.059-2.324.756-3.171-3.066-8.592-3.732-5.291-4.5-7.357-6.373-17.219-1.173-6.163-2.2-11.329-2.295-11.482s-2.429.859-5.2,2.25c-7.834,3.935-8.73,3.606-10.775-3.949-1.827-6.749-1.571-15.489.527-18.018.586-.706,5.354-3.441,10.594-6.076,8.159-4.1,10.24-5.689,14.5-11.037,3.682-4.628,5.8-6.41,8.191-6.881,4.438-.876,8.723-2.6,8.723-3.512a42.443,42.443,0,0,0-3.529-6.617c-3.246-5.391-6.52-14.38-8.082-22.189-.479-2.394-.238-3.314.99-3.785q3.205-1.23-.035-15.1c-1.653-7.067-1.742-7.2-5.262-7.768-3.838-.619-26.08-2.5-29.863-2.525a3.22,3.22,0,0,1-2.877-1.566c-.665-1.734,3.233-6.449,5.332-6.449a1.405,1.405,0,0,0,1.326-1.465,3.625,3.625,0,0,1,2-2.535c2.406-1.287,2.556-4.426.451-9.463-1.9-4.544-.662-9.334,3.381-13.082,3.108-2.882,2.819-2.937-4.928-.93-5.562,1.441-6.1,1.417-9.756-.449-3.2-1.631-3.978-2.636-4.486-5.771-.615-3.789.615-18.337,2.352-27.805,1.71-9.325,1.956-24.165.434-26.174a7.414,7.414,0,0,1-1.416-3.592c-.018-.971-1.381-4.156-3.031-7.08-3.369-5.97-3.634-8.2-1.564-13.152l1.436-3.436-3.461-.648c-1.9-.357-4.01-1.39-4.684-2.293-.762-1.021-3.377-1.808-4.99-1.867Z" transform="translate(-1972.031 -1637.296)" fill="#d1add8"/></svg>