<svg xmlns="http://www.w3.org/2000/svg" width="816.566" height="1171.816" viewBox="0 0 816.566 1171.816"><path d="M3818.2,289.03c-1.187-.04-5.374,4.95-4.789,5.9a.83.83,0,0,1-.512,1.26c-.588.2-1.227,1.473-1.42,2.836-.043.3-.1.6-.154.9.01.019.013.048.024.064.28.453.17.825-.207.953a26.113,26.113,0,0,1-3.83,9.258,16.46,16.46,0,0,0-1.455,3.672c0,1.647-8.1,15.449-11.631,19.8-3.058,3.778-6.78,5.946-9.6,5.895-3.922,2.491-7,2.9-9.26,1.248-.258.367-.506.714-.795,1.143-.763,1.133-1.583,2.226-2.432,3.277,1.844.842.421,3.948-3.748,7.617-4.085,3.6-8.521,5.621-11.039,5.039a5.1,5.1,0,0,0-2.395.4c-1.477.6-4.142,1.362-14.988,4.316-3.018.822-6.393,2.316-7.5,3.32-4.455,4.043-6,4.291-19.34,3.105-12.421-1.1-19.172-2.605-19.172-4.266,0-.459-.87-.368-1.934.2-3.489,1.867-8.506,1.091-15.926-2.465-4.14-1.984-8.852-3.5-10.877-3.5-5.049,0-24.55-11.7-30.875-18.527-2.308-2.49-2.933-2.659-7.574-2.043-2.782.369-5.711,1.324-6.508,2.121a4.93,4.93,0,0,1-2.795,1.449c-1.161,0-3.512,7.5-3.512,11.2,0,2.276-5.262,7.887-9.309,9.928-2.306,1.163-4.343,2.248-4.529,2.412s.662,1.651,1.885,3.3c1.471,1.99,1.972,3.622,1.484,4.828-1.353,3.343-1.927,11.7-1.7,24.68.126,7.072-.171,13.372-.662,14-1.181,1.512-1.405,9.642-.3,11.041,2.179,2.771,2.164,11.285-.031,18.2-1.205,3.8-2.079,7.718-1.941,8.713a4.682,4.682,0,0,1-.885,3.176c-.848,1.022-.831,2.384.07,5.393,1.378,4.6,4.546,5.975,9.457,4.107,4.511-1.715,7.652.406,7.352,4.965-.514,7.807-1.207,7.549,20.18,7.549h19.094l2.418,2.807c2.114,2.453,2.418,3.793,2.418,10.668,0,6.9-.421,8.74-3.439,15.039-3.8,7.934-3.691,9.664.969,15.2,2.991,3.555,3.174,6.427.465,7.287-2.97.943-7.86,5.341-9.529,8.568a19.61,19.61,0,0,0-1.465,7.432c0,4.362-.192,4.681-3.709,6.15-5.267,2.2-16.976,1.5-18.9-1.133-.91-1.244-1.391-1.43-1.391-.539,0,2.571-3.247,5.019-6.656,5.019h-3.348l1.984,3.7c1.712,3.2,1.8,3.984.639,5.758-1.152,1.758-1.1,2.521.385,5.285a36.8,36.8,0,0,0,3.021,4.785c.977,1.177,1.01,1.834.133,2.711a4.719,4.719,0,0,0-1.158,2.908,3.207,3.207,0,0,1-1.418,2.551c-.781.44-2.367,3.2-3.525,6.146-3.172,8.058-6.584,11.865-13.732,15.312-4.947,2.386-6.133,3.364-5.3,4.369.778.937.66,2.288-.424,4.883-1.421,3.4-1.4,3.588.449,3.588,2.018,0,2.805,3.352,1.043,4.441-.5.308-.683,1.414-.41,2.457a6.606,6.606,0,0,1-.662,4.063c-.878,1.641-.879,2.506,0,3.563.677.816.888,2.622.508,4.352a7.244,7.244,0,0,0,.58,4.926c1.555,2.489-.536,7.327-5.018,11.615-2.665,2.549-3.792,2.918-8.959,2.918h-5.91l.992,2.85a11.063,11.063,0,0,1,.371,5.334c-.561,2.236-.32,2.482,2.422,2.482,2.353,0,3.266.587,4.025,2.584.54,1.421.768,2.933.5,3.359s.07,1.948.742,3.381c1.273,2.713,8.114,5.676,13.1,5.676,1.377,0,2.806.492,3.178,1.094.636,1.029-.581,9.088-2.553,16.906a122.647,122.647,0,0,0-1.475,15c-.73,14.153-1.216,17.445-3.3,22.367l-1.639,3.869,3.705,3.394c2.038,1.867,3.705,3.806,3.705,4.309s-2.429,2.3-5.4,4-5.656,3.758-5.969,4.574a2.332,2.332,0,0,1-1.928,1.484c-4.71,0-9.294,14.567-7.477,23.76.854,4.321.618,5.7-2.25,13.139a41.019,41.019,0,0,1-9.062,14.775c-5.812,6.413-5.854,6.5-5.4,11.645a76.2,76.2,0,0,0,1.408,9.127c.524,2.17.755,4.264.514,4.654-.991,1.6-9.458,5.9-11.615,5.894-1.277,0-6.912,2.1-12.522,4.676-8.873,4.075-9.978,4.848-8.5,5.941,1.593,1.179,1.6,1.432.02,4.072-1.325,2.221-2.528,2.881-5.693,3.121-3.872.294-3.956.373-2.35,2.25a6.463,6.463,0,0,0,4.318,1.945c2.136,0,2.768.574,3.242,2.945.647,3.234-2.6,14.519-4.932,17.133-2,2.238-1.743,4.68.559,5.41,1.081.343,4.119,2.819,6.75,5.5,5.75,5.862,9.236,7.445,12.814,5.815,2.028-.924,3.212-.821,6.031.523,4.422,2.109,11.756,2.2,13.443.166a13.14,13.14,0,0,0,1.906-4.711c.567-2.771,1.237-3.345,4.961-4.252,3.459-.842,4.573-1.685,5.668-4.289s1.933-3.242,4.318-3.242c4.421,0,11.088,8.231,11.312,13.969.132,3.373.355,3.832,1.152,2.359a44.056,44.056,0,0,1,4.393-5.648c3.777-4.238,3.834-6.009.207-6.525-3.058-.435-11.922-7.1-11.922-8.963,0-.769,3.262-6.015,7.25-11.658l7.25-10.262,8.627-3.2c9.3-3.455,11.633-5.366,17.137-14.068,3.021-4.777,4.186-5.74,8.857-7.33,4.413-1.5,6.008-2.725,8.879-6.812,3.8-5.406,12.982-18.2,19.746-27.512a48.487,48.487,0,0,0,5.928-11.078,22.308,22.308,0,0,1,4.346-7.787c2.289-2.193,3.241-2.463,6.734-1.9,3.333.533,4.648,1.457,7.266,5.1a22.743,22.743,0,0,0,8.5,7.053c2.919,1.432,5.777,3.633,6.35,4.891.6,1.322,3.193,3.212,6.137,4.479a17.359,17.359,0,0,1,8.047,6.482c4.336,6.3,10.73,11.132,16.48,12.447,2.729.624,8.113,2.108,11.963,3.3,6.476,2,8.882,2.151,32.176,1.981l25.178-.184,1.572,4.615a29.326,29.326,0,0,1,1.574,6.9c0,3.027-5.27,8.91-11.629,12.98-7.569,4.845-11.371,10.091-11.371,15.689,0,4.021-.546,5.122-4.895,9.881-2.692,2.945-6.024,5.96-7.406,6.7a13.26,13.26,0,0,0-4.316,4.693,7.093,7.093,0,0,1-4.844,4c-4.052.866-6.539,3.661-6.539,7.348,0,2.34-.673,3.365-3,4.568-1.65.853-3,1.9-3,2.32,0,1.967,53.344,52.59,61.791,58.639,4.533,3.246,17.66,18.015,22.111,24.879.771,1.189,2.614,3.962,4.094,6.162,4.145,6.161,4.988,9.516,3.652,14.541-1.552,5.841-10.831,13.511-24.148,19.961-9.421,4.563-12.086,5.277-46,12.338-46.549,9.692-44.914,9.413-59.564,10.125l-12.562.611-10.82-4.623c-5.952-2.542-13.526-5.485-16.83-6.541s-6.544-2.653-7.2-3.549c-1.093-1.5-1.429-1.475-4.107.225a54.969,54.969,0,0,0-7.008,5.881c-2.25,2.217-7.084,6.933-10.742,10.48-6.591,6.39-7.873,8.531-18.506,30.914-1.577,3.32-5.414,6.984-16.16,15.432-6.474,5.089-13.885,13.985-21.221,25.473-2.9,4.547-8.362,13.1-12.129,19A182.875,182.875,0,0,1,3562.042,1156c-9.639,11.237-13.431,17.578-14.09,23.566-1.088,9.881,3.4,15.566,19.258,24.416,3.163,1.765,5.75,3.558,5.75,3.986a26.859,26.859,0,0,1-2.449,5.16c-2.147,3.841-2.328,4.915-1.475,8.715,1.656,7.372,4.566,11.7,12.994,19.314,8.395,7.588,13.14,15.029,17.434,27.342,2.532,7.261,3.508,18.369,1.9,21.6l-1.295,2.6,4.891-.967a27.008,27.008,0,0,1,8.283-.332c2.79.523,3.583,1.263,4.473,4.162a11.929,11.929,0,0,1,.164,6.729c-1.876,6.541-1.413,7.461,4.127,8.223,7.745,1.065,21.039.825,27.394-.494,6.379-1.324,11.561-.075,11.561,2.787,0,.856-3.375,5.025-7.5,9.264s-7.5,8.518-7.5,9.508c0,2.067,3.763,6.43,5.547,6.43,2.113,0,10.819-4.184,15.191-7.3,3.789-2.7,5.008-3.019,11.5-3,5.824.014,9.337.757,17.748,3.758,5.768,2.058,11.792,4.415,13.385,5.238a36.32,36.32,0,0,0,9.008,2.361c5.928.838,6.2.777,9.145-2.076a62.9,62.9,0,0,1,9.006-6.553c7.086-4.287,24.19-12.424,26.115-12.424,2.778,0,1.12,3.495-7.561,15.934l-8.916,12.773-1.2,9.9c-2.7,22.344-.9,31.939,10.756,57.125,5.152,11.136,6.819,13.922,7.676,12.822,1.08-1.386,19.36-4.8,20.846-3.891a2.173,2.173,0,0,1,.75,1.7c0,1.983-11.592,15.1-15.809,17.894-5.611,3.713-21.191,16.854-21.191,17.873,0,1.139-1.536,1.366,18.182-2.687,30.662-6.3,44.246-9.516,44.932-10.625.8-1.291,40.752-9.814,46.006-9.814,1.061,0,1.145-4.1.113-5.5a10.606,10.606,0,0,0-2.734-2.123c-1.479-.831-1.938-2-1.76-4.5.593-8.318.184-13.095-1.244-14.524a5.007,5.007,0,0,1-1.5-2.676c0-.648-1.8-3.548-4-6.447-3.428-4.522-4-5.982-4-10.281,0-3.513-.445-5.182-1.488-5.582-.818-.314-2.939-3.562-4.713-7.219a86.466,86.466,0,0,0-5.146-9.326c-1.868-2.6-1.873-2.878-.16-10.15,1.662-7.056,2.144-7.857,8.58-14.244l6.818-6.766,25.8-.379c14.192-.208,27.83-.471,30.3-.582a70.143,70.143,0,0,1,10.1.539l5.6.742,6.092-4.891c5.384-4.321,6.941-5.02,13.4-6.025,4.021-.625,9.111-1.624,11.31-2.217,5.488-1.479,14.5-2.219,14.5-1.191,0,.463,8.1.842,18,.842,11.446,0,18-.368,18-1.01,0-1.953,3.916-3.606,5.957-2.514a11.438,11.438,0,0,0,4.533,1.023c1.442,0,6.345,1.54,10.9,3.424,7.764,3.214,8.667,3.372,14.693,2.561,6.747-.908,13.733-2.686,15.422-3.926.55-.4,5.563-2.44,11.139-4.523l10.137-3.787,4.662,1.781c2.564.979,5.491,2.835,6.506,4.125,1.5,1.907,2.787,2.346,6.891,2.346,2.776,0,5.326-.45,5.666-1,1.093-1.767,8.08-1.119,10.773,1a9.538,9.538,0,0,0,3.635,2c.6,0,1.093.338,1.094.75s2.588.785,5.75.826a38.868,38.868,0,0,1,10.248,1.656c12.185,4.283,14.87,5.1,19.5,5.922a54.758,54.758,0,0,0,8.07.848,26.616,26.616,0,0,1,7.375,1.479,26.605,26.605,0,0,0,6.619,1.52c1.272,0,6.024,1.2,10.56,2.66l8.248,2.66,9.174-1.8c5.442-1.07,10.348-1.511,12.062-1.082,1.59.4,8.59,1.672,15.557,2.832,10.957,1.824,13.2,1.932,16.609.807,3.438-1.134,4.413-1.078,7.6.436,2.937,1.394,5.282,1.623,11.865,1.162,6.624-.464,8.538-.274,9.936.99,2.813,2.546,13.534.283,16.82-3.551a17.088,17.088,0,0,1,6.25-4.215c3.969-1.374,4.683-2.879,2.3-4.855a22.2,22.2,0,0,1-3.547-5.531c-1.587-3.278-3.061-4.716-6.07-5.92-4.617-1.847-6.628-2-7.111-.555-.19.569-4.037,1.761-8.549,2.65-8.611,1.7-11.273,1.124-11.273-2.426,0-1.564,7.128-9.236,8.633-9.291.477-.017,2.127-1.141,3.668-2.5,2.784-2.45,2.794-2.5,1.609-8.521-.853-4.332-.89-6.683-.131-8.254,2.6-5.376,3.073-13.988.895-16.166-3.372-3.372-3.158-5.722.816-8.91,4.086-3.278,7.677-10.356,7.7-15.178a10.243,10.243,0,0,1,1.662-5.24c2.313-3.061,12.661-6.531,17.527-5.879,2.132.286,4.382.1,5-.418s2.361-2.034,3.875-3.375a31.868,31.868,0,0,1,6.213-4.082c1.9-.9,3.7-2.385,4-3.295.654-2.025,6.113-7.944,9.813-10.641,1.5-1.093,2.727-2.773,2.727-3.733,0-1.018,1.023-2,2.459-2.359,2.315-.581,2.371-.751.951-2.918a11.842,11.842,0,0,0-4.641-3.6c-3.569-1.478-21.077-14.162-30.77-22.291-3.575-3-12.812-10.326-20.527-16.283-11.711-9.042-16.447-11.967-28.668-17.711l-14.639-6.881-12.283-20.119c-6.755-11.066-16.242-26.355-21.082-33.975s-8.792-14.595-8.783-15.5c.02-1.97,9.843-6.519,12.158-5.631,2.293.88,5.67-6.927,5.074-11.732a8.131,8.131,0,0,1,1.5-6.41c1.8-2.475,1.85-3.055.584-7.26-1.378-4.579-5.459-9.008-8.365-9.076-1.556-.037-6.348-3.416-8.361-5.9-.607-.748-3.408-3.9-6.223-7-3.387-3.732-5.339-6.872-5.775-9.287a22.6,22.6,0,0,0-3.055-7.18,18.458,18.458,0,0,1-2.725-5.807c-.189-1.313-2.008-3.418-4.293-4.967a16.641,16.641,0,0,1-5.709-6.793c-.959-2.258-2.167-4.106-2.686-4.106-1.2,0-4.6-5.731-5.479-9.211a10.132,10.132,0,0,1,.533-5.469c.73-1.717,1.22-8.3,1.252-16.82.043-11.295.391-14.658,1.8-17.4a15.655,15.655,0,0,0,1.75-5.227c0-1,1.077-2.529,2.395-3.393,2.92-1.913,3.594-3.965,4.246-12.934.387-5.316.952-7.271,2.4-8.285,1.042-.73,2.8-3.38,3.914-5.891,1.815-4.1,1.87-4.781.533-6.69-1.736-2.479-1.969-7.263-.4-8.232.7-.432.742-1.016.121-1.637-.533-.533-.737-3.82-.455-7.334.5-6.222.45-6.385-2.125-7.031-3.955-.993-7.154-5.51-9.164-12.936-1.616-5.97-2.015-6.584-3.883-5.977-6.6,2.146-13.582,1.614-13.582-1.037,0-.808-1.842-2.63-4.092-4.051-3.258-2.057-3.979-3.027-3.547-4.764.3-1.2.835-4.022,1.193-6.273.574-3.612,1.522-4.776,8.049-9.889,4.539-3.556,7.4-6.523,7.4-7.682,0-1.039-1.422-7.573-3.162-14.52-3.6-14.388-3.775-11.279,2.492-45.316,1.975-10.725,4.471-24.885,5.547-31.465l1.957-11.963-5.062-12.037C4151.239,676.6,4151.2,676.45,4150.7,657.5c-.225-8.449-.46-9.337-3.828-14.5a56.111,56.111,0,0,0-7.7-9.2c-4.37-3.934-7.213-8.494-7.213-11.57,0-1.029,2.813-5.307,6.25-9.506s8.607-10.571,11.49-14.158l5.242-6.521-3.242-1.693a16.843,16.843,0,0,0-5.422-1.8c-1.2-.06-3.315-1.332-4.7-2.828S4138.6,583,4138.052,583s-1.28-1.481-1.619-3.289a15.365,15.365,0,0,0-4.047-6.639c-1.886-1.844-3.428-4.08-3.428-4.969,0-2.514-6.214-11.768-9.029-13.447a9.174,9.174,0,0,0-4.461-1.332c-3.135.285-3.009-3.2.24-6.68a49.817,49.817,0,0,0,5.246-7.01,50.577,50.577,0,0,1,4.188-6c6.743-7.662,8.573-10.5,9.127-14.135a10.123,10.123,0,0,1,3.836-6.729c1.775-1.5,3.032-2.9,2.791-3.105s-3.92-2.129-8.178-4.272-9.513-4.8-11.678-5.9a32.986,32.986,0,0,1-6.271-4.2,14.4,14.4,0,0,0-6.469-2.853c-3.592-.574-4.215-1.059-4.738-3.676a36.6,36.6,0,0,1-.6-5.937c0-2.667-.682-3.244-7.75-6.57a84.918,84.918,0,0,1-8.25-4.2c-.594-.66-4.781-2.643-7.25-3.432a2.815,2.815,0,0,1-1.75-2.564c0-2.43-11.535-11.974-14.533-12.023-2.917-.049-14.2-8.845-21.346-16.643-5.841-6.375-9.887-9.391-12.6-9.391-.685,0-2.77-1.635-4.635-3.633-5.591-5.989-10.337-10.358-11.258-10.363-.477,0-.559-1.016-.184-2.254a34.921,34.921,0,0,0,.977-5.861c.29-3.577.24-3.629-5.316-5.371-5.041-1.581-7.855-2.907-18.494-8.719a15.365,15.365,0,0,0-5.814-1.75c-1.484-.026-6.434-1.27-11-2.764s-8.555-2.731-8.867-2.75-3.384,2.44-6.828,5.465a78.341,78.341,0,0,1-8.434,6.678c-10.211,5.535-19.364,7.688-26.686,6.275a61.82,61.82,0,0,0-9.215-.91c-5.751-.053-16.177-3.113-24.272-7.125a49.883,49.883,0,0,0-6.629-2.945c-.346.016-1.206,1.42-1.91,3.121l-1.281,3.094-9.09-.658c-8.137-.589-10.033-1.136-18.09-5.211-8.5-4.3-15.5-9.563-15.5-11.654,0-.519-1.339-3.119-2.975-5.777-4.092-6.651-4.543-9.026-2.25-11.857,1.875-2.316,1.869-2.4-.521-6.9-2.3-4.324-2.527-7.34-.852-11.217.557-1.288.129-1.5-2.283-1.147-2.387.35-3.558-.22-6.012-2.918-3.374-3.711-3.868-7.095-1.766-12.133,1.778-4.261,1.266-12.39-.934-14.82-1.526-1.686-1.574-2.366-.42-5.863,1.226-3.715.825-17.554-.549-18.928a.279.279,0,0,0-.2-.078Z" transform="translate(-3520.753 -289.029)" fill="#d1add8"/></svg>