<svg xmlns="http://www.w3.org/2000/svg" width="636.197" height="445.239" viewBox="0 0 636.197 445.239">
    <path id="tanger"
        d="M3182.2,135.71a30.192,30.192,0,0,0-7.807,1.121c-4.907,1.366-5.6,1.362-7.008-.047-2.065-2.065-3.965-.99-12.359,6.99-3.575,3.4-6.837,6.19-7.25,6.2s-.75.555-.75,1.207c0,1.633-4.059,5.814-5.645,5.814a14.714,14.714,0,0,0-4.576,1.836c-4.634,2.592-7.983,3.252-11.443,2.26a9.158,9.158,0,0,0-6.385.566c-2.952,1.241-3.979,1.232-7.965-.072-3.8-1.243-5.16-1.282-8.031-.23-7.748,2.836-10.754,4.884-11.318,7.707-.307,1.533-2.166,4.4-4.131,6.361-4.547,4.547-10.264,5.016-13.65,1.121-2.428-2.793-5.612-3.7-14.856-4.225-3.575-.2-7.013-.434-7.641-.514a11.985,11.985,0,0,0-4.051,1.061c-2.659,1.1-3.144,2.129-5.629,11.918-1.5,5.891-3.832,14.536-5.191,19.211-2.317,7.966-8.978,35.409-12.137,50-2.749,12.7-6.29,22.449-9.125,25.125-1.7,1.6-3.646,5.4-5.119,9.973a59.594,59.594,0,0,1-3.748,9.477c-.753,1.15-3.569,9.7-6.256,19.008s-6.8,22.768-9.129,29.918-4.185,14.052-4.113,15.338c.1,1.726-.637,2.628-2.8,3.443-2.679,1.011-3.4,2.467-8.486,17.2-4.932,14.283-12.578,40.189-12.578,42.613,0,.495,1.549.9,3.441.9s3.719.45,4.059,1c1.575,2.548,14.607.324,17.256-2.945,2.365-2.919,8.758-4.313,13.244-2.889,5.473,1.738,9.155,4.736,8.838,7.193-.652,5.047,4.229,6.327,8.162,2.141,1.292-1.375,3-2.5,3.8-2.5,2.423,0,12,5.935,17.869,11.066,6.993,6.119,13.922,8.06,21.176,5.932,6.146-1.8,9.489-1.6,16.4.99,5.354,2.007,5.747,2.375,5.725,5.334a43.834,43.834,0,0,1-1.051,7.635c-.934,4.053-.829,4.605,1.154,6.1,2.13,1.607,2.144,1.76.582,6.543-1.214,3.719-1.505,7.73-1.205,16.664.217,6.471-.01,13.165-.5,14.877-1.208,4.211.409,7.233,3.461,6.467a5.516,5.516,0,0,1,4.168.881,9.866,9.866,0,0,0,4.988,1.478,7.669,7.669,0,0,1,5.424,2.531c3.372,3.589,6.662,3.276,8.615-.82,2.574-5.4,12.572-6.947,14.367-2.227.67,1.762,1.942,2.458,5.451,2.984,3.968.595,4.877,1.206,6.818,4.58,1.71,2.972,2.951,3.962,5.244,4.188,2.632.258,3.044.728,3.334,3.787.182,1.92.737,3.741,1.232,4.047s1.515,2.331,2.266,4.5c1.265,3.654,1.612,3.919,4.77,3.646a6.771,6.771,0,0,1,5.686,1.83,12.96,12.96,0,0,0,5.771,2.689c1.921.312,3.733.956,4.027,1.432a2.6,2.6,0,0,0,2.018.865c2.316,0,7.313,4.121,8.932,7.365,1.976,3.96,1.849,6.6-.441,9.07-1.884,2.036-2.431,4.057-2.205,8.154.146,2.657,4.733,4.973,6.668,3.367,1.609-1.336,11.451.94,17.209,3.981,4.688,2.475,12.454,2.712,14.342.438a7.141,7.141,0,0,0,1.039-4.578c-.535-5.1,2.056-6.8,10.412-6.8h7.244l2.1-4.031c2.5-4.806,2.525-4.969.6-4.969-1.973,0-1.927-3.4.068-5.057,1.446-1.2,1.583-8.178.391-19.943-.084-.825.05-6.182.3-11.906l.447-10.408,5.561-5.342c3.1-2.982,6.485-5.344,7.652-5.344a16.682,16.682,0,0,0,5.822-2,17.307,17.307,0,0,1,5.146-2c.778,0,5.886-1.658,11.352-3.686,8.194-3.039,10.272-3.478,11.838-2.5,2.8,1.748,7.76,1.443,11.307-.693a39.991,39.991,0,0,1,7-3.123,34.914,34.914,0,0,0,7.428-3.647c4.544-3.084,7.835-3.888,9.67-2.365s10.078.517,17.018-2.1a34.995,34.995,0,0,1,6.121-1.887c.727,0,1.375,4.255,1.844,12.1.8,13.435,2.212,18.044,6.289,20.539,1.51.924,4.423,2.787,6.475,4.141,3.644,2.406,4.032,2.446,17,1.789,17.01-.862,21.367.209,24.272,5.965,1.1,2.18,2.089,4.128,2.2,4.328s1.379-.564,2.822-1.7c2.06-1.62,3.954-2.04,8.8-1.947,3.4.065,6.853.642,7.678,1.283s4.1,2.6,7.277,4.357l5.777,3.191,2.441-2.775c1.343-1.526,2.46-3.673,2.486-4.773.089-3.806,1.38-4.5,8.076-4.365,12.126.25,19.941-1.94,19.941-5.59a2.583,2.583,0,0,1,1.906-2.016c2.546-.808,3.314-3.1,1.533-4.578a3.9,3.9,0,0,1-1.439-2.381c0-.652,3.7-4.693,8.225-8.98,9.361-8.871,9.2-8.864,15.076-.5,4.689,6.672,10.553,10.115,15.859,9.314,2.778-.419,3.883-.148,4.594,1.121.858,1.533,1.3,1.486,5.342-.57,4.737-2.412,20.386-17.751,21.414-20.99.5-1.582,1.538-1.971,5.307-1.984,7.048-.026,23.183-4.556,24.644-6.92.361-.584,2.093-1.072,3.848-1.084,4.889-.032,20.024-4.77,21.512-6.734.9-1.188,1.082-2.86.568-5.244a32.355,32.355,0,0,1,1.619-18.5,27.425,27.425,0,0,0,1.049-18.793,22.619,22.619,0,0,1-.572-9.457c.622-3.964,1.08-14.608,1.557-36.176a14.237,14.237,0,0,1,.92-5c.577-1.079.1-2.506-1.5-4.514-1.858-2.33-3.241-2.986-6.709-3.187-5.117-.3-14.688-3.677-17.408-6.147-3.637-3.3-5.553-7.338-5.145-10.836a10.836,10.836,0,0,0,.127-3.389c-.147,0-2.941,1.835-6.207,4.076-5.626,3.861-6.386,4.093-14.471,4.432-4.694.2-9.574.914-10.844,1.594a10.812,10.812,0,0,1-2.809,1.188c-1-.1-5.557,1.714-8,3.178-6.484,3.885-9.9,4.925-17.217,5.234-5.7.241-8.679.9-11.412,2.508s-5.389,2.2-10.283,2.24c-5.312.049-7.493.593-11.266,2.807-2.573,1.51-5.332,2.744-6.129,2.744a4.21,4.21,0,0,0-2.693,1.5,5.3,5.3,0,0,1-3.623,1.5c-1.308,0-2.377.43-2.377.955,0,1.742-7.264,2.39-11.961,1.068a51.451,51.451,0,0,0-10.539-1.4c-4.506-.1-7.71-.938-12.863-3.375-4.226-2-8.452-3.253-11-3.268a61.973,61.973,0,0,1-12.31-2.357c-4.5-1.283-8.726-1.99-9.4-1.57-2,1.237-10.1-1.745-12.35-4.545-1.9-2.376-2.341-2.492-5.377-1.428-2.792.979-4.342.812-10-1.07-3.683-1.225-7.124-2.628-7.646-3.117a5.4,5.4,0,0,0-3.115-.889,9.462,9.462,0,0,1-4.707-2,9.148,9.148,0,0,0-4.141-2c-.879,0-2.575-1.123-3.77-2.5a24.462,24.462,0,0,0-6.51-4.6c-2.386-1.155-6.649-4.755-9.473-8-3.025-3.479-5.946-5.9-7.109-5.9-4.29,0-13.57-5.167-16.072-8.949a98.35,98.35,0,0,0-9.311-10.627c-3.763-3.793-7.967-8.253-9.342-9.91-2-2.414-3.364-3.053-6.848-3.213a16.247,16.247,0,0,1-6.754-1.775c-1.324-.868-4.684-6.116-7.475-11.676-4.836-9.637-7.764-13.2-14.018-17.035-1.51-.927-4.238-3.97-6.064-6.76-3.4-5.194-5.328-6.4-10-6.27a6.409,6.409,0,0,1-4.348-1.787c-.927-1.025-2.236-1.652-2.906-1.395-3.123,1.2-7.7-9.228-12.637-28.783-2.316-9.174-2.734-12.272-1.936-14.371.9-2.366.812-2.59-.752-1.922-3.422,1.462-7.3,1.69-8.721.512-3.48-2.888-7.407-22.379-9.127-45.295-.465-6.2-.281-9.664.631-11.865,1.151-2.779,1.087-3.223-.6-4.166-3.8-2.126-6.453-5.644-6.453-8.555,0-2.513-.443-3-3.094-3.385a6.681,6.681,0,0,0-.732-.061Z"
        transform="translate(-2963.027 -135.704)" fill="#d1add8" /></svg>