<svg xmlns="http://www.w3.org/2000/svg" width="541.997" height="661.629" viewBox="0 0 541.997 661.629"><path d="M2933.3,914c-2.267,0-2.326.235-2.326,9.26,0,8.176-.234,9.4-2,10.508a4.765,4.765,0,0,0-2,3.738c0,1.426-1.453,4.1-3.4,6.254-3.253,3.6-3.337,3.889-1.937,6.56,1.359,2.594,1.275,3.112-1.154,7.258l-2.615,4.467,3.555,6.7c4.583,8.63,4.646,12.627.3,19.217-3.363,5.106-6.651,7.4-9.2,6.426-2.906-1.115-8.615,1.68-10.2,4.992-1.672,3.505-6.275,6.625-9.777,6.625-2.281,0-4.58,3.373-4.58,6.719,0,2.434-3.009,5.281-5.58,5.281-1.637,0-2.922-1.185-4.609-4.25-1.49-2.706-3.153-4.367-4.576-4.57-1.229-.176-2.234-.89-2.234-1.588,0-1.523-4.217-3.592-7.324-3.592a8.949,8.949,0,0,1-4.2-1.318c-5.545-3.7-12-5.067-24.973-5.271-7.15-.113-13.978-.252-15.174-.309s-3.536-1.249-5.2-2.652c-2.771-2.332-3.378-2.458-7.059-1.467-5.4,1.455-9.709,6.281-11.609,13.018-.854,3.025-2.151,7.075-2.885,9a51.832,51.832,0,0,0-2.064,9.873c-.587,5.119-1.114,6.473-2.676,6.881-1.336.349-1.729,1.014-1.258,2.127,1.826,4.314,1.557,5.831-1.482,8.389-1.829,1.539-2.852,3.182-2.521,4.045.307.8-.828,4.507-2.52,8.238s-2.823,7.578-2.516,8.549c.315.993-.993,4.846-2.99,8.813-3.661,7.27-6,8.985-10.6,7.781-1.651-.432-1.911-.166-1.4,1.436a3.85,3.85,0,0,1-.434,3.238c-.727.875-.775,5.259-.154,14.014,1.01,14.252.252,18.521-5.053,28.463-2.632,4.933-2.748,5.544-1.262,6.631s1.4,1.6-.953,5.615a60.87,60.87,0,0,0-4.473,10.469c-2.108,6.774-1.594,8.478,3.984,13.23a12.331,12.331,0,0,1,3.248,4c.3.938,2.112,2.767,4.02,4.063s3.735,3.2,4.061,4.223.109,7.167-.48,13.645c-.895,9.832-1.4,12-3.029,13.129-1.858,1.283-1.876,1.538-.361,5,3.231,7.382,3.442,12.593.869,21.461a139,139,0,0,1-5.449,15.031c-1.691,3.764-3.074,7.715-3.074,8.781a17.307,17.307,0,0,1-1.357,5.156c-1.176,2.788-2.431,3.6-9.393,6.041-4.42,1.552-9.019,3.868-10.221,5.146l-2.184,2.326,2.738,4.34,2.74,4.34-1.834,10.512c-2.132,12.22-2.14,12.511-.428,16.662,1.149,2.786,1,4.114-1.287,11.5-4.849,15.65-5.275,21.281-2.068,27.352.581,1.1,1.248,6.156,1.482,11.236l.426,9.236,4.672,4.479a70.115,70.115,0,0,0,7.283,6.188c3.777,2.475,5.073,6.412,2.746,8.35-2.673,2.226-2.762,16.661-.107,17.356,1.19.311,1.792,1.423,1.795,3.312,0,3.6,3.489,9.4,6.047,10.066,1.073.28,1.949,1.1,1.949,1.813a13.42,13.42,0,0,0,1.408,4.135c4.652,9.357,4.517,10.33-1.422,10.33-3.672,0-3.934.2-4.562,3.557-.532,2.837-.238,4.012,1.455,5.814,2.929,3.118,2.689,4.171-1.611,7.094-3.2,2.173-4.835,2.535-11.447,2.535a48.991,48.991,0,0,0-15.807,2.555c-8.774,2.772-10.584,2.626-15.7-1.268-2.76-2.1-4.06-2.382-9.748-2.105l-6.564.318v3.25c0,2.691-.389,3.257-2.252,3.291-1.238.023-3.971,1.564-6.076,3.424-3.379,2.985-3.692,3.632-2.674,5.535,1.375,2.57.662,5-1.469,5-.889,0-1.531.88-1.531,2.1,0,1.972.357,2.057,5.918,1.412,5.423-.629,6.015-.505,7.086,1.5.643,1.2,1.075,4.5.959,7.34s-.154,5.636-.086,6.223,2.539,1.829,5.492,2.76c5.219,1.645,5.429,1.855,7.5,7.524,1.169,3.207,2.916,6.518,3.881,7.357,1.035.9,4.81,1.795,9.211,2.184,4.1.363,7.807,1.209,8.234,1.883,1.235,1.944.934,7.158-.6,10.32a34.488,34.488,0,0,0-2.117,8.4c-.823,6.37-2.909,11-4.955,11-2.077,0-5.906,9.037-4.418,10.428.822.768,1.277.717,1.605-.178.252-.687,1.479-1.25,2.729-1.25,1.972,0,2.568,1.021,4.529,7.75,1.242,4.262,2.9,8.425,3.684,9.25,1.012,1.066,3.437,1.483,8.387,1.443,6.727-.054,7.081-.183,10.357-3.76,2.179-2.38,3.948-3.49,4.945-3.107.854.328,2.879,3.433,4.5,6.9l2.951,6.3,4.6-.859c2.531-.473,5.264-.606,6.074-.295,4.734,1.817,37.238,2.684,51.029,1.363,7.942-.761,10.33-1.36,11.606-2.908,1.944-2.359,4.866-17.942,5.172-27.582l.223-7,3,.17c1.65.093,5.925.475,9.5.85l6.5.682,9.725-7.488c8.086-6.227,15.293-10.461,26.775-15.728a4.028,4.028,0,0,0,1.82-2.836c.332-2.23,3.527-3.014,4.68-1.148,1.406,2.275,4.533.811,7.51-3.516,3.163-4.6,9.785-8.71,18.49-11.484a84.908,84.908,0,0,0,9.5-4,84.164,84.164,0,0,1,9.5-3.994c2.2-.7,13.8-5.7,25.773-11.117s24.535-10.561,27.91-11.436c12.816-3.321,22.962-8,30.748-14.184,1.545-1.226,5.389-7.172,8.541-13.215,5.667-10.863,5.789-11.008,10.961-12.943a66.636,66.636,0,0,1,8.719-2.611,29.527,29.527,0,0,0,7.361-2.828c3.872-2.172,3.874-2.176,3.6-8.01-.181-3.912.194-6.383,1.141-7.5a51.272,51.272,0,0,0,3.572-5.275l2.162-3.611-3.354-4.389c-2.848-3.726-4.6-4.84-11.584-7.375-4.526-1.642-8.392-3.249-8.592-3.572-.631-1.021,2.522-23.215,4.063-28.6a40.15,40.15,0,0,0,1.51-8c.038-3.053,1.157-5.385,4.7-9.8,2.117-2.636,2.532-2.745,7.811-2.086,7.625.953,18.908-3,22.176-7.76a133.45,133.45,0,0,1,9.629-10.953c7.028-7.328,7.671-7.751,11.791-7.77,10.088-.046,18-1.893,21.582-5.043,3.143-2.76,3.875-2.972,8.115-2.354a32.645,32.645,0,0,1,8.16,2.42c3.067,1.527,13.764,5,15.4,5,.328,0,.6-.858.6-1.908,0-1.154-2.511-3.884-6.352-6.9-5.258-4.132-6.636-5.86-8-10.029a39.927,39.927,0,0,1-1.648-6.127c0-.6,1.8-3.369,4-6.152s4-5.45,4-5.928-3.15-1.807-7-2.953c-5.477-1.631-7-2.5-7-3.982a3.271,3.271,0,0,1,1-2.518c1.479-.914,1.216-5.51-.623-10.906-1.253-3.678-1.373-5.31-.523-7.174a6.145,6.145,0,0,0,.123-4.98,15.937,15.937,0,0,1-.977-3.359c0-.434,5.512-1.046,12.25-1.361,20.737-.969,26.8-4.466,23.76-13.692a12.134,12.134,0,0,1-.52-6c.623-1.964,1.187-2.175,4.363-1.642,2.006.336,4.659.887,5.9,1.226,1.984.544,2.25.25,2.25-2.494a38.733,38.733,0,0,1,2.139-9.291c1.871-5.406,1.979-6.617.867-9.691-1.207-3.338-1.127-3.641,1.611-6.094,3.675-3.292,6.684-16.264,5.1-22a24.355,24.355,0,0,1,.172-13.865,14.517,14.517,0,0,0,.057-8.377c-.867-3.222-.778-5.029.436-8.74.842-2.573,1.292-5.591,1-6.707-.334-1.278.371-3.108,1.906-4.943a19.3,19.3,0,0,0,3.113-5.074,8.41,8.41,0,0,1,3.051-3.717c1.523-1,2.2-2.213,1.9-3.385-.263-1.005,1.351-5.609,3.586-10.23s4.063-9.107,4.063-9.969c0-2.829-6.888-11.867-11.422-14.986-5.783-3.979-6.712-6.736-3.207-9.531a6.4,6.4,0,0,0,2.629-4.709c0-2.2-.6-2.755-3.75-3.494l-3.75-.879-1.691-8.439c-1.85-9.231-1.728-9.652,3.611-12.527,4.2-2.262,7.58-10.094,7.58-17.562,0-5.8-.552-5.967-8.361-2.514-7.425,3.284-11.055,4.01-18.639,3.731-9.356-.344-14.832-2.443-21.207-8.125-5.5-4.9-5.562-5.02-5.965-11.356-.349-5.476-.872-6.934-3.617-10.061-3.693-4.206-3.562-3.339-1.691-11.086,1.881-7.789,1.86-8.118-.639-10.617a12.6,12.6,0,0,1-2.812-4.721,4.3,4.3,0,0,0-3.127-3.176,3.8,3.8,0,0,1-2.795-2.459c-.46-2.39-2.135-4.071-4.943-4.963-1.212-.385-2.259-1.12-2.328-1.633s-.181-1.494-.25-2.182c-.08-.8-2.624-1.467-7.125-1.857a81,81,0,0,1-27.9-7.377c-4.074-1.933-8.239-3.523-9.254-3.533-1.855-.018-7.415-5.966-8.631-9.232-1.015-2.725-2.683-2.073-4.242,1.658-.783,1.875-2,3.6-2.7,3.838-1.021.344-1.028.729-.027,1.941,1.928,2.337,2.637,10.113,1.293,14.186-1.082,3.278-.972,3.9,1.133,6.516a10.977,10.977,0,0,0,5.152,3.492c3.913.83,3.167,2.509-3.521,7.934-5.959,4.833-10.123,6.6-11.254,4.766-.367-.595-3-1.089-5.859-1.1-9.006-.035-18.035-1.74-19.537-3.687-.985-1.276-1.518-1.433-1.852-.543-.576,1.536-4.934,1.656-5.857.162-.484-.783-.975-.783-1.758,0a5.552,5.552,0,0,1-3.387,1.088c-1.576,0-2.3.586-2.3,1.861,0,1.5-1.024,1.983-5.25,2.49-14.06,1.689-22.59-.229-23.764-5.344-.834-3.635-4.507-5.139-10.736-4.4-4.059.482-5.846.232-7.881-1.1a8.118,8.118,0,0,0-6.141-1.156c-6.886,1.117-7.33.2-6.875-14.236.222-7.034.907-13.73,1.523-14.883,1.417-2.647.4-3.009-10.25-3.643-6.144-.366-8.354-.922-10.064-2.529a8.123,8.123,0,0,0-4.7-2.059,8.047,8.047,0,0,1-4.859-2.5,7.925,7.925,0,0,0-4.674-2.5Z" transform="translate(-2678.976 -914)" fill="#d1add8"/></svg>