<svg xmlns="http://www.w3.org/2000/svg" width="814.883" height="739.169" viewBox="0 0 814.883 739.169"><path d="M1968.3,2104.8l-1.67,2.549a10.746,10.746,0,0,0-1.67,3.461,4.173,4.173,0,0,1-1.559,2.207c-1.648,1.368-4.477,7.126-5.113,10.408a4.4,4.4,0,0,1-1.262,2.5c-.486.3-1.184,2.344-1.551,4.543-.979,5.862-2.542,9.678-5.121,12.5a37.651,37.651,0,0,0-4.767,8.111c-1.364,3.086-5.359,8.937-8.879,13-9.067,10.467-13.748,16.9-13.748,18.9a8.724,8.724,0,0,1-1.846,4.105,34.992,34.992,0,0,0-3.672,7.23c-1.422,3.769-3.292,6.021-8.406,10.125a87.251,87.251,0,0,1-9.576,6.848c-6.462,3.385-24.122,22.31-30.506,32.691a81.209,81.209,0,0,1-5.248,7.74,42.74,42.74,0,0,0-4.01,6.373,47.041,47.041,0,0,1-5.508,8c-1.686,1.858-6.073,6.726-9.75,10.818-8.159,9.082-10.531,11-26.883,21.77-23.163,15.254-55.2,33.552-84.418,48.217-8.624,4.328-18.821,9.715-22.662,11.971s-7.658,4.1-8.48,4.1c-1.918,0-11.026,6.181-11.053,7.5-.077,3.845-18.611,23.532-31.086,33.02a46.183,46.183,0,0,0-7.975,7.621q-7.08,10.04-21.279,21.859c-3.635,3.025-6.618,5.725-6.629,6a22.572,22.572,0,0,1-2.936,3.912,17.8,17.8,0,0,0-3.541,6.738c-.424,2.259-1.929,4.371-4.7,6.588-2.239,1.794-4.494,4.162-5.01,5.262-2.793,5.959-4.553,8.5-9.338,13.5-2.9,3.025-5.809,7.2-6.469,9.275a14.822,14.822,0,0,1-4.361,6.209c-9.625,7.4-13.653,10.108-18.824,12.674a51.138,51.138,0,0,1-6.346,2.842,52.875,52.875,0,0,0-6.307,2.6c-10.164,4.642-11.572,5.185-20.357,7.848-7.458,2.26-29.4,10.787-30.441,11.832-1.913,1.913,6.745,15.085,13.467,20.486,3.724,2.992,3.958,3.538,5.574,12.93,1.913,11.121,7.394,24.7,14.451,35.807,2.447,3.85,7.139,12.175,10.428,18.5,7.543,14.508,12.473,19.8,23.787,25.52,8.4,4.248,8.915,4.369,22.5,5.32,11.408.8,15.878,1.6,24.9,4.492,6.05,1.936,14.375,4.5,18.5,5.688a87.368,87.368,0,0,1,14.088,5.7l6.588,3.529,16.912-2.107c9.3-1.158,26.137-2.622,37.412-3.254,17.129-.96,21.07-1.473,23.969-3.113,1.908-1.08,8.646-2.848,14.973-3.93,12.8-2.19,19.108-1.846,25.494,1.393,3.6,1.828,4.534,1.9,11,.8,3.885-.659,11.114-1.586,16.064-2.061,25.26-2.419,39.883-4.168,49.44-5.91,13.042-2.378,40.626-4.521,46.9-3.645a63.691,63.691,0,0,1,9.854,2.445c4.777,1.65,6.01,2.817,15.2,14.408,11.158,14.074,13.884,16.451,16.971,14.8,1.1-.589,4.684-1.07,7.963-1.07h5.961l3.1,4.838a29.115,29.115,0,0,1,3.141,5.75c.126,3.19,11.6,11.412,15.932,11.412a38.438,38.438,0,0,0,6.8-1.523c4.252-1.263,5.513-2.2,7.365-5.5,2.064-3.672,2.564-3.977,6.533-3.977,3.75,0,4.843.554,8.566,4.346,8.364,8.516,12.768,14.417,12.768,17.111,0,7.962,12.716,20.7,32.451,32.492,13.625,8.145,21.272,13.243,30,20,5.543,4.292,8.575,6.015,10,5.68,1.125-.265,5.645-.985,10.045-1.6,15.227-2.128,21.91-4.168,38.1-11.625l16.262-7.488,15.666,9.549c13.906,8.478,17.362,11.171,30.762,23.98,14.976,14.316,15.186,14.472,26.717,19.555l11.623,5.123,11.15,12.186c6.132,6.7,11.729,12.971,12.436,13.928,1.486,2.011,15.351,7.784,24.8,10.33,7.212,1.942,19.744,4.127,24.73,4.311l3.25.119-.058-345.5-12.076-14.5c-21.3-25.579-43.668-54.5-48.422-62.611a92.952,92.952,0,0,0-11.641-15.022c-7-7.11-7.023-7.152-7.244-13.1-.188-5.059-.717-6.583-3.484-10.025-3.629-4.516-5.308-5.213-12.576-5.225a145.076,145.076,0,0,1-15.871-1.672l-10.871-1.662-5.912-7.975c-3.252-4.386-7.552-9.163-9.555-10.615-3.64-2.64-3.641-2.643-3.4-9.619a70.136,70.136,0,0,1,.783-9.227c.392-1.612.1-2.25-1.027-2.25-2.242,0-3.058-2.021-6.172-15.279l-2.766-11.777,2.146-2.287c3.29-3.5,2.8-6.286-1.352-7.656-4.079-1.346-4.15-1.8-1.5-9.5,2.395-6.96,2.473-9.124.5-13.846-2.477-5.928-2.217-6.251,7.752-9.572,14.314-4.769,15.484-4.111,8.748,4.918-6.506,8.719-5.316,9.3,3.85,1.885l6.32-5.113-3.184-3.285c-4.047-4.176-3.458-6.394,2.83-10.656,2.576-1.746,6.821-4.939,9.434-7.1,4.034-3.33,4.75-4.454,4.75-7.461,0-4.583-1.88-11.068-4.182-14.428a12.387,12.387,0,0,1-1.818-3.34c0-.376-1.685-2.461-3.742-4.633-3.927-4.144-5.534-8.076-9.777-23.912-2.431-9.074-2.478-9.723-.959-13.357l1.6-3.822-6.559-6.793c-3.607-3.737-6.559-7.538-6.559-8.447,0-3.173-15.771-15.9-21.119-17.049a14.559,14.559,0,0,1-4.484-1.607c-.606-.487-3.786-.6-7.066-.262l-5.963.623-2.334,5.877c-1.6,4.028-2.882,5.877-4.076,5.877a2.635,2.635,0,0,0-2.318,1.5,2.783,2.783,0,0,1-2.482,1.5c-1.318,0-2.091.926-2.506,3-.738,3.689-3.9,4.052-7.322.838-2.1-1.969-2.662-2.054-6.336-.953-2.219.665-4.438.958-4.932.652s-1.2.8-1.559,2.455c-.772,3.517-2.7,3.836-7.969,1.322-2.519-1.2-3.533-2.34-3.533-3.965a4.18,4.18,0,0,0-2-3.348c-1.1-.588-2.922-2.881-4.053-5.1-2.916-5.716-5.2-4.972-6.205,2.023-.428,2.973-1.276,6-1.885,6.738-1.385,1.669-8.046,1.749-9.68.115-.958-.958-1.087-.557-.6,1.879.367,1.834.169,3.375-.482,3.777a3.951,3.951,0,0,0-1.1,3c0,1.794-.7,2.457-3.125,2.941-5.6,1.12-5.757.99-6.076-4.973-.3-5.547-.335-5.609-4.3-6.984a25.755,25.755,0,0,0-5.775-1.4c-1.167-.01-1.981-1.043-2.375-3.016-.72-3.6-2.211-3.786-5.561-.682a22.347,22.347,0,0,1-5.516,3.568,8.736,8.736,0,0,0-4.1,3.627c-1.168,2.564-2.812,3.008-14.4,3.893-6,.458-7.019.263-9.5-1.824a13.835,13.835,0,0,0-4.779-2.719c-1.471-.279-2.078-1.3-2.293-3.871-.223-2.66-1.289-4.362-4.48-7.145l-4.189-3.654,1.719-3.346a43.7,43.7,0,0,1,3.686-5.848c2.4-3.045,4.094-9.23,1.988-7.25-.731.688-2.928,1.251-4.881,1.254-2.271,0-5.17,1.084-8.049,3-5.8,3.867-12.822,6.576-13.988,5.4-.492-.5-1.468-3.058-2.17-5.691-1.042-3.909-1.037-5.169.027-6.875,1.709-2.737,2.256-8.979.928-10.58a5.7,5.7,0,0,1-.5-4.01,8.87,8.87,0,0,0-.705-5.082Z" transform="translate(-1505.08 -2104.8)" fill="#d1add8"/></svg>