<svg xmlns="http://www.w3.org/2000/svg" width="468.771" height="587.746" viewBox="0 0 468.771 587.746"><path d="M2996.6,425.56a7.248,7.248,0,0,0-6.262,3c-2.343,3.576-12.748,5.083-21.869,3.168l-7-1.471-1.91,4.123c-1.051,2.267-4.079,10.162-6.729,17.545C2948,465.373,2947.79,468,2951.52,468c1.766,0,5.449,4.823,5.449,7.135,0,1.026.45,1.865,1,1.865s1,.922,1,2.049c0,4.785-6.354,12.52-9.344,11.373-1.794-.689-2.252-3.934-.691-4.9.534-.33.047-1.512-1.094-2.652-1.6-1.6-1.979-3.042-1.707-6.465.193-2.424.118-4.406-.166-4.406-.518,0-12.136,26.76-16.012,36.881-8.533,22.285-41.662,89.107-53.668,108.25-24.733,39.437-25.275,40.414-23.207,41.705,3.014,1.883,2.208,4.117-2.2,6.09-3.81,1.706-4.281,2.383-6.951,10.012-5.35,15.285-20.914,41.107-31.934,52.98-5.487,5.912-5.6,6.189-3.8,9.068,1.723,2.759-.171,4.646-3.094,3.082-2.49-1.333-1.325-2.411-18.059,16.721-6.835,7.815-12.728,14.209-13.094,14.209-.744,0-6.956,5.15-10.9,9.039-5.424,5.344-13.058,9.961-16.471,9.961-1.192,0-5.131,2.493-8.756,5.539l-6.592,5.537,2.621,4.994c2.155,4.106,2.977,4.879,4.621,4.344a23.227,23.227,0,0,1,5-.781c2.623-.115,3.006.209,3.045,2.6a9.825,9.825,0,0,0,2.672,5.5,15.472,15.472,0,0,1,3.336,6.769,17.753,17.753,0,0,0,1.461,5c1.339,1.778,3.01,11.557,2.395,14.01a6.035,6.035,0,0,0,1,4.658,8.76,8.76,0,0,1,1.594,3.9,15.939,15.939,0,0,0,1.715,5.027,19.507,19.507,0,0,1,1.707,7.4c0,2.276.6,4.462,1.4,5.072a6.173,6.173,0,0,1,1.7,3.717A15.044,15.044,0,0,0,2767.97,879c1.2,1.688,1.974,3.618,1.717,4.289a2.518,2.518,0,0,0,.811,2.414c1.01.943,1.4.714,1.852-1.084.961-3.83,5.2-7.621,8.521-7.621,1.649,0,3.359.606,3.8,1.348,1.12,1.889,7.275,2.871,17.8,2.84,6.106-.018,9.712.43,11.215,1.393a11.32,11.32,0,0,0,5.184,1.42c2.09,0,3.155.592,3.6,2,.349,1.1,1.04,2,1.533,2s1.357.858,1.918,1.906c2.07,3.869-6.08,18.094-10.367,18.094a9.876,9.876,0,0,0-4.949,2.072c-3.969,3.122-3.528,7,1.365,12.047,4.307,4.438,5.061,7.9,2.469,11.322-1.768,2.337-1.991,14.625-.412,22.672.581,2.963,1.192,11.832,1.357,19.709.248,11.8.6,14.617,1.979,16s4.25,1.729,16.893,1.975c12.436.242,16.271.679,21,2.395,3.179,1.154,6.018,2.483,6.309,2.953s1.645.856,3.01.856c2.8,0,10.4,3.584,10.4,4.9,0,.475.887,1.094,1.969,1.377s2.73,2.117,3.664,4.074c1.953,4.095,2.923,3.946,3.922-.6,1.05-4.779,3.356-7.754,6.014-7.754a9.389,9.389,0,0,0,8.787-5.619c1.805-3.786,4.856-5.352,11.51-5.91a21.405,21.405,0,0,0,4.6-.668c2.934-3.832,5.539-8.76,5.539-10.475,0-1.214-1.572-5.272-3.494-9.018-4.083-7.956-4.238-9.473-1.375-13.494,1.944-2.731,2.018-3.338.83-6.937-1.28-3.879-1.244-4.006,2.266-7.662,1.963-2.044,3.883-5.211,4.266-7.035s1.329-3.559,2.1-3.856c1.082-.415,1.406-2.917,1.406-10.865,0-9.361.183-10.384,1.951-10.945,2.777-.881,9.406,1.117,11.545,3.481a6.4,6.4,0,0,0,4.023,2,10.156,10.156,0,0,1,4.971,2.172c2.614,2.056,6.567,2.783,15.3,2.813,3.05.01,9.213,3.444,9.213,5.133a5.7,5.7,0,0,1-1.621,2.361c-1.292,1.292-1.652,4.013-1.771,13.4l-.15,11.781,4.561-.437c3.366-.323,4.91-.018,5.895,1.168,1.5,1.809,4.344,2.075,7,.654,1.162-.622,3.139-.559,5.686.182,5.061,1.472,6.229,2.42,7.895,6.406s3.525,4.551,14.012,4.162c7.427-.275,8.02-.457,8.316-2.547.249-1.755.971-2.25,3.281-2.25,1.71,0,3.2-.634,3.537-1.5.7-1.812,5.024-2.005,5.615-.25.323.961.749.979,1.84.08.78-.644,3.44-1.091,5.912-.992,3.962.158,4.484.446,4.414,2.422-.067,1.9.471,2.26,3.5,2.369a159.448,159.448,0,0,1,16.08,1.238c2.749.419,4.09.017,6.25-1.869a11.888,11.888,0,0,0,2.75-2.947,27.106,27.106,0,0,0-3.662-4.6l-3.66-4.053,1.66-3.484c2.019-4.233,2.082-9.057.162-12.416-1.856-3.247-1.879-6.688-.051-7.711.8-.446,2.607-3.426,4.02-6.621s2.085-5.509,1.492-5.143c-1.256.776-8.961-4.28-8.961-5.881,0-1.412,5.739-6.293,8.975-7.633,2.412-1,2.515-1.379,2.3-8.451a32.073,32.073,0,0,0-2.75-13.107c-2.877-6.506-3.147-9-1.062-9.8.8-.308,2.2-3.109,3.105-6.227,1.3-4.474,1.406-6.2.5-8.185-.989-2.17-.773-3.055,1.559-6.42a45.755,45.755,0,0,1,6.133-6.912c2.943-2.584,3.607-4.031,4.684-10.211a49.479,49.479,0,0,1,3.332-11.26l2.076-4.06-2.406-3.074a18.392,18.392,0,0,0-6.518-4.719c-3-1.2-3.951-2.07-3.514-3.209,2.269-5.914,1.346-9.377-2.5-9.377-2.76,0-8.912-5.836-8.912-8.455,0-3.876,1.947-8.048,4.232-9.066,1.477-.659,2.552-2.453,3.277-5.479.83-3.463,1.587-4.574,3.285-4.82a2.254,2.254,0,0,0,2.205-2.156c0-2.827-5.126-12.061-7.594-13.678-3.648-2.391-7.67-8.937-6.928-11.277.361-1.137,1.067-2.068,1.568-2.068s.4-1.125-.229-2.5-1.829-2.5-2.674-2.5c-3.3,0-9.168-5.425-13.2-12.211-3.377-5.685-4.067-7.656-3.625-10.379.795-4.9,6.168-11.05,11.393-13.045,4.047-1.546,4.36-1.908,3.684-4.277a27.181,27.181,0,0,1-.816-5.588c-.075-2.829.162-3.017,4.17-3.307,3.991-.289,4.25-.492,4.25-3.32,0-2.49.363-2.958,2.09-2.693,1.492.228,2.849,2.1,4.75,6.559,1.822,4.27,3.217,6.242,4.424,6.25a8.387,8.387,0,0,1,3.633,1.18c1.515.946,2.567.757,5.545-1a15.419,15.419,0,0,1,5.705-2.168c1.938,0,2,.391,1.33,8.434l-.7,8.434,3.453.648a20.158,20.158,0,0,0,7.363-.377,41.127,41.127,0,0,1,8.783-1c3.85.021,5.346.535,7.115,2.443,1.232,1.329,2.548,2.416,2.924,2.416a38.7,38.7,0,0,0,6.064-3.443c4.9-3.135,5.444-3.851,6.066-8,.6-3.985.99-4.557,3.135-4.557a11.039,11.039,0,0,1,4.387,1.035,3.8,3.8,0,0,0,3.934-.035,3.806,3.806,0,0,1,3.934-.035c1.57.84,2.051.659,2.566-.965.349-1.1,1.232-2,1.961-2,3.008,0,2.458-4.907-.559-4.984-.329-.008-1.328-1.872-2.219-4.141-1.24-3.157-1.364-4.623-.527-6.25,1.939-3.768,5.136-6.625,7.412-6.625,4.291,0,4.567-5.574.682-13.729-3.354-7.039-4.873-8.414-8.75-7.912-4.235.548-8.5-2.648-8.5-6.369,0-1.58.473-3.165,1.051-3.521,1.227-.758-2.413-4.24-5.8-5.549-2.434-.941-2.929-3.784-1.215-6.986,1.138-2.127,4.936-2.553,8.021-.9,2.162,1.157,6.564-.643,9.664-3.951.979-1.044,4.3-2.554,7.379-3.356,7.822-2.035,9.062-2.911,11.9-8.394,1.987-3.84,3.04-4.851,5.131-4.93,3.4-.128,7.134-3.55,6.285-5.762a3.4,3.4,0,0,1,.521-3.062c.761-.917.813-1.614.15-2.023-1.228-.759.081-4.576,2.951-8.607l1.988-2.791-5.551-2.078c-6.829-2.555-7.117-2.557-7.766-.076-.687,2.627-4.825,2.647-6.459.031a8.425,8.425,0,0,0-4.439-2.8c-2.542-.659-3.4-1.548-4.1-4.273-1.206-4.655-.233-9.82,2.293-12.174,3.564-3.32.079-9.217-6.189-10.471-1.547-.309-2.812-.906-2.812-1.326s-1.687-1.069-3.75-1.443a10.168,10.168,0,0,1-5.416-2.826c-1.5-1.929-1.919-2.01-4.182-.8-3.543,1.9-5.17.913-7.178-4.344-.961-2.516-2.359-4.574-3.109-4.574-.925,0-1.365-1.288-1.365-4,0-3.708-.2-4-2.781-4-2.171,0-3.029-.658-3.912-3-.622-1.649-1.958-3.256-2.969-3.572a25.609,25.609,0,0,1-3.838-1.674,21.651,21.651,0,0,0-5-1.715c-2.033-.417-3.1-1.294-3.3-2.721-.458-3.153-3.583-1.845-6.643,2.779-2.166,3.273-3.132,3.9-6.008,3.9-1.885,0-3.705.45-4.045,1a3.516,3.516,0,0,1-2.676,1c-1.607,0-1.935-.466-1.5-2.131.725-2.772-1.941-5.431-5.039-5.025a5.9,5.9,0,0,1-3.963-.992,6.551,6.551,0,0,0-4.2-1.043c-1.987.2-3.313-.612-5.461-3.33-2.68-3.392-2.76-3.768-1.436-6.785,1.385-3.154,1.513-15.2.273-25.627-.29-2.438-.146-4.688.32-5a8.65,8.65,0,0,0,1.879-2.451c.8-1.461.592-2.322-.918-3.832-1.646-1.646-1.84-2.748-1.25-7.115a30.005,30.005,0,0,1,1.57-6.83c.726-1.382-.111-1.995-4.979-3.639-5.4-1.822-6.273-1.864-11.238-.535-9.632,2.578-18.637.351-26.076-6.453a75.242,75.242,0,0,0-9.3-7.025c-4.961-3.065-5-3.072-7.064-1.135-1.5,1.407-3.5,1.949-7.191,1.949-4.509,0-5.364-.347-7.189-2.91-1.139-1.6-1.831-3.534-1.537-4.3.34-.885-.746-2-2.984-3.068a11.527,11.527,0,0,0-4.912-1.164Z" transform="translate(-2731.226 -425.557)" fill="#d1add8"/></svg>