<svg xmlns="http://www.w3.org/2000/svg" width="1212.886" height="1105.671" viewBox="0 0 1212.886 1105.671"><path d="M3331.6,1038.3c-.284.036-.775.422-1.6,1.17-1.63,1.475-3.035,1.668-8.25,1.139-3.457-.351-12.585-.885-20.285-1.187-12.859-.5-14.26-.386-17.2,1.467a18.884,18.884,0,0,0-4.971,4.816,47.9,47.9,0,0,1-5.484,6.477l-3.709,3.682,1.922,6.318c1.057,3.476,1.926,6.616,1.93,6.976.012,1.014-9.6,7.68-14.522,10.07-3.959,1.923-4.468,2.576-5.053,6.475-.818,5.455-4.115,8.3-9.619,8.3a15.711,15.711,0,0,1-5.947-1.08c-1.749-.936-2.857-.272-8.348,5-3.482,3.344-6.758,6.08-7.279,6.08s-.737,1.1-.48,2.443c.385,2.013-.123,2.694-2.889,3.881-3.556,1.526-7.855,5.16-7.855,6.639,0,.486-1.125,2.22-2.5,3.854-2.047,2.432-2.228,3.074-1,3.545,2.181.837,1.836,3.546-.717,5.613-2,1.623-2.236,2.787-2.408,12.16-.258,14.025-.262,14.88-.111,22.615.226,11.618-1.18,18.964-3.98,20.8-2.129,1.4-2.351,2.087-1.773,5.5.468,2.77.052,5.662-1.426,9.932a38.389,38.389,0,0,0-2.1,9.27c-.026,5.547-1.048,6.25-7.406,5.1-5.089-.922-7.109-.416-4.578,1.148,1.356.838,1.267,7.82-.139,10.9-2.19,4.807-11.379,7.582-25.131,7.59l-9.77.01.605,2.408a7.376,7.376,0,0,1-.545,4.551c-.892,1.666-.813,3.2.354,6.844a29.738,29.738,0,0,1,1.314,8.623l-.189,3.924,6.3,1.877c3.465,1.032,6.535,2.487,6.822,3.234.628,1.637-1.911,6.757-5.723,11.539-2.607,3.271-2.71,3.755-1.594,7.387a15.725,15.725,0,0,0,5.031,7c2.111,1.713,4.969,4.028,6.35,5.146,1.816,1.471,2.655,3.323,3.035,6.7.487,4.323.344,4.714-1.939,5.287-3.042.764-12.806-1.692-19.941-5.014-6.882-3.2-8.859-3.141-12.236.385-2.547,2.658-3.7,2.991-14.34,4.178l-11.57,1.291-6.1,6.076c-3.354,3.342-7.761,8.145-9.793,10.672-3.107,3.865-4.925,5.031-11.445,7.346-6.094,2.163-8.759,2.619-12.451,2.129-4.37-.58-4.878-.406-7.3,2.475a11.234,11.234,0,0,0-2.605,5.84,36.6,36.6,0,0,1-1.414,7.672c-1.254,4.37-2.451,11.217-3.926,22.459l-.461,3.525,7.865,2.785c6.226,2.205,8.493,3.577,10.871,6.58,5.433,6.86,5.609,8.559,1.594,15.3-3.594,6.033-4.54,11.372-2.4,13.516a2.581,2.581,0,0,1,.605,2.5c-.736,1.917-11.452,7.382-16.1,8.209a38.052,38.052,0,0,0-8.166,2.779c-3.767,1.83-4.768,3.074-7.965,9.887-5.269,11.229-8.275,14.863-16.09,19.455A91.458,91.458,0,0,1,3000.572,1470c-4.341,1.207-17.166,6.37-28.5,11.473s-23.982,10.638-28.107,12.3c-30.209,12.192-29.712,11.931-34.262,18.09-3.829,5.184-4.112,5.358-7.855,4.855-2.135-.286-3.883-.147-3.883.309s-4.613,3.109-10.25,5.9a128.571,128.571,0,0,0-19.75,12.561c-8.958,7.064-9.786,7.492-14.5,7.484a47.246,47.246,0,0,1-8.75-.879l-3.75-.871v6.285c0,8.65-3.583,25.53-5.914,27.861-1.021,1.022-4.045,2.293-6.721,2.822-6.4,1.267-46.794,1.111-55.082-.213-6.842-1.093-9.69-.689-12.5,1.773-2.662,2.336-4.063,1.072-7.289-6.574l-2.988-7.084-2.006,2.459c-3.618,4.439-19.285,5.593-23.686,1.744-.924-.808-2.623-4.574-3.775-8.369-1.932-6.361-2.246-6.805-4.014-5.7-1.567.978-2.277.871-3.881-.58-1.89-1.71-2.114-1.682-5.971.752-5.212,3.29-7.209,6.214-6.537,9.572,1.032,5.16-3.79,10.947-15.439,18.523a143.448,143.448,0,0,1-17.576,9.811c-6.109,2.567-7.856,2.882-13.221,2.381-5.155-.481-6.451-.279-7.809,1.221a15.534,15.534,0,0,1-5.861,3.043,21.133,21.133,0,0,0-7.279,4.15c-2.783,2.657-3.854,2.961-12.5,3.547-10.033.68-12.955,1.552-12.955,3.867a16.9,16.9,0,0,1-1.635,4.859c-1.338,2.805-2.882,3.933-8.482,6.188-3.766,1.516-7.591,3.576-8.5,4.578a24.83,24.83,0,0,1-6.018,3.938c-3.042,1.472-4.367,2.736-4.367,4.158a14.1,14.1,0,0,1-2.135,5.5c-1.907,3.085-2.479,3.388-5.361,2.848-3.685-.691-5.189.558-6.057,5.029-.421,2.17.21,4.115,2.494,7.689,1.682,2.632,3.059,5.5,3.059,6.383a13.381,13.381,0,0,0,2.016,4.857c1.616,2.615,1.815,3.791,1,5.934-.559,1.469-1.016,5.763-1.016,9.541a82.841,82.841,0,0,1-1.389,13.686,156.011,156.011,0,0,0-2.057,16.51l-.668,9.7,2.908,1.5c2.528,1.307,3.589,1.324,8.133.125,6.763-1.784,14.8-2.2,16.164-.828,1.186,1.186-.99,3.619-6.766,7.561-4.37,2.983-5.519,6.4-3.639,10.818,1.911,4.494.993,10.17-2.355,14.561-1.436,1.883-2.435,3.563-2.221,3.732s7.132.863,15.373,1.541,15.139,1.385,15.326,1.572c.805.805,3.278,13.589,3.852,19.9.514,5.666.347,7.035-.951,7.762-1.421.8-1.384,1.583.393,7.992,2.277,8.218,3.834,11.523,8.551,18.16,1.874,2.637,3.131,5.244,2.793,5.791-1.323,2.14-8.561,5.914-11.342,5.914-2.413,0-3.848,1.151-8.086,6.477-4.575,5.75-6.26,7.011-15.025,11.25-6.556,3.171-10.056,5.445-10.42,6.773-.892,3.255-.655,8.5.568,12.586l1.145,3.816,3.105-1.592a39.426,39.426,0,0,0,6.008-4.014c4.127-3.445,4.938-2.07,7.639,12.951,2.065,11.485,2.669,13.247,6.092,17.8,4.188,5.573,5.8,11.123,3.9,13.416a2.476,2.476,0,0,0-.51,2.564c1,1.614-3.363,5.934-8.018,7.943l-4,1.727,5.615.705c4.906.616,6.309.364,11.106-1.988l5.49-2.691,5.234,4.137c2.879,2.276,5.575,4.137,5.99,4.137a6.541,6.541,0,0,0,2.564-2c2.549-2.816,4.136-2.528,11.367,2.059,6.243,3.961,6.5,4.028,13,3.387l6.637-.654,4.754,9.391c4.971,9.818,10.018,16.384,11.762,15.307.628-.388.793-3.024.43-6.811-.326-3.4-.522-10.212-.436-15.144.146-8.3.368-9.206,2.982-12.184a139.841,139.841,0,0,0,8.889-13.033,207.148,207.148,0,0,1,12.1-17.316c3.321-4.125,6.756-9.137,7.633-11.139,2.558-5.84,4.922-6.5,12.256-3.412a143.368,143.368,0,0,0,14.914,4.959c4.789,1.291,10.282,3,12.207,3.795,3.236,1.339,4.368,1.227,15-1.467,12.7-3.217,17.564-3.173,22.119.2l2.813,2.078,2.2-2.977c1.957-2.647,2.212-4.287,2.311-14.756.061-6.477-.195-12.969-.568-14.426-.927-3.612.646-4.852,6.152-4.852,4.576,0,4.656.057,6.971,5,1.288,2.75,2.89,5,3.561,5,2.358,0,20.993-4.049,25.572-5.557,2.548-.839,5.429-2.407,6.4-3.484,3.106-3.432,6.966-2.54,10.359,2.393,2.059,2.992,2.811,5.053,2.406,6.6-.65,2.486.947,4.007,4.232,4.031,2.075.016,7.569,5.953,15.586,16.844a61.982,61.982,0,0,0,9.037,9.6c4.67,3.762,4.842,4.085,4.842,9.108,0,5.207,0,5.207-6.25,10.025a85.488,85.488,0,0,0-9.619,8.633l-3.371,3.814,8.871,9.5c11.665,12.5,16.357,18.533,16.363,21.045a47.433,47.433,0,0,1-2.359,9l-2.363,6.943,2.982,6c1.64,3.3,3.154,6.187,3.363,6.416s4.7-.858,9.975-2.416c8.237-2.432,10.051-2.668,12.822-1.666a20.812,20.812,0,0,0,5.752,1.166c4.043,0,6.017,2.965,5.059,7.6-.751,3.631-1.2,4.045-6.486,5.928a30.732,30.732,0,0,0-9.277,5.5c-3.054,2.948-3.506,3.93-2.973,6.475.346,1.65,1.007,7.275,1.469,12.5a124.911,124.911,0,0,0,2.346,15.5,108.452,108.452,0,0,1,2.123,15.5,113.819,113.819,0,0,0,2.289,16.254l1.672,6.752-3.082,3.248c-3.3,3.473-6.3,8.75-6.3,11.057,0,.776,1.125,3.07,2.5,5.1,2.852,4.2,3.226,9.112.943,12.371-1.719,2.455-7.228,15.4-7.666,18.022-.388,2.317,9.149,3.534,13.58,1.732,2.215-.9,8.071-1.2,19.844-1.023,12.664.193,17.344-.077,19.363-1.125a20.03,20.03,0,0,1,7.484-1.383,26.606,26.606,0,0,0,7.521-1.027c2.068-.787,4.252-.575,9.316.9,7.062,2.058,17.451,4.127,20.723,4.127a5.233,5.233,0,0,0,3.232-1.242c.683-.683,4.035-1.769,7.449-2.412s10.484-2.33,15.709-3.748,11.94-2.583,14.922-2.588c3.588-.01,6.027-.558,7.215-1.633,1.986-1.8,18.385-3.894,23.144-2.959,7.256,1.425,14.023,3.967,16.822,6.322,2.527,2.126,2.976,3.111,2.5,5.473a18.814,18.814,0,0,1-2.953,6.084c-1.985,2.675-4.654,8.687-4.654,10.484,0,1.543,7.659-1.151,10.592-3.727,1.913-1.679,3.876-3.055,4.363-3.055s3.058,2.411,5.715,5.357c2.884,3.2,6.039,5.648,7.83,6.078a13.075,13.075,0,0,1,4.816,2.357c1.249,1.125,3.344,1.57,6.711,1.424q4.891-.213,6.184,1.248a10.192,10.192,0,0,0,1.492,1.5,28.328,28.328,0,0,0,2.088-4.213c1.738-3.919,23.051-35.215,46.139-67.75,14.61-20.588,14.361-20.012,12.086-27.943-1.37-4.778.106-8.885,6.85-19.057,3.957-5.969,6.668-8.985,9.105-10.129a15.9,15.9,0,0,0,5.5-4.674c1.979-2.969,12.433-11.643,21.586-17.908a39.981,39.981,0,0,0,5.873-4.705,4.883,4.883,0,0,1,3.283-1.584c1.1,0,10.652-7.418,21.627-16.8,10.813-9.238,21.91-18.645,24.66-20.9,3.12-2.563,20.963-12.08,47.453-25.309l42.453-21.2,38.8-38.057,38.8-38.059,10.248-3.9c5.636-2.146,16.1-6.068,23.248-8.717l13-4.818,19.5-1.117c10.725-.614,22.753-1.8,26.728-2.629a61.109,61.109,0,0,1,11.529-1.35,16.041,16.041,0,0,0,6.654-1.1c2.694-1.442,9.042-.745,12.408,1.363,4.483,2.807,9.208,2.85,13.232.119,2.05-1.391,4.225-2.532,4.836-2.535s1.877-1.354,2.814-3,2.344-2.994,3.127-2.994a4,4,0,0,0,2.588-1.4,8.61,8.61,0,0,1,3.863-2.078,7.06,7.06,0,0,0,3.209-1.484c1.2-1.9,11.36-7.059,12.918-6.564,2.712.861,6.092-3.028,6.092-7.01,0-1.9.379-3.461.842-3.461,1.059,0,3.158-6.872,3.158-10.336a18.518,18.518,0,0,0-2.094-6.619c-1.552-2.977-2.236-6.618-2.646-14.062-.3-5.525-.937-10.284-1.406-10.574-1.89-1.168-.8-4.383,1.7-5.01a3.954,3.954,0,0,0,3.125-3.52c.61-3.05,2.981-3.826,5.127-1.68.933.933,1.2.822,1.2-.5,0-.935.45-1.7,1-1.7s1-1.053,1-2.34a3.762,3.762,0,0,1,2.5-3.479,3.739,3.739,0,0,0,2.5-3.7,7.353,7.353,0,0,1,1.25-4.055c3.115-3.719,3.972-4.4,4.838-3.869.51.315,1.2-.245,1.527-1.242s1.455-3.728,2.5-6.068a32.6,32.6,0,0,0,2.105-11.062c.175-5.811-.119-7.156-2.008-9.184-1.217-1.307-2.213-2.795-2.213-3.308s-.675-.374-1.5.311c-1.2,1-1.844.974-3.236-.127-2.781-2.2-5.195-5.269-5.23-6.654a2.379,2.379,0,0,0-1.533-1.858,2.435,2.435,0,0,1-1.5-2.066c0-2.023-3.035-8.295-4.014-8.295-.433,0-1.194,1.688-1.691,3.75l-.906,3.75-5.807-.123c-5.992-.127-8.128-1.471-6.957-4.377a20.988,20.988,0,0,0,.9-4.5c.16-1.65.387-3.45.5-4,.5-2.361-.128-10.115-.922-11.367-.977-1.542-3.54-.422-3.7,1.617-.055.688-.167,2.375-.25,3.75-.109,1.82-.717,2.5-2.236,2.5-1.4,0-2.46.983-3.211,2.973-1.392,3.687-3.448,4.568-5.766,2.471a5.713,5.713,0,0,0-4.072-1.274c-1.806.26-2.306.974-2.332,3.33-.025,2.323-.485,3-2.033,3-1.828,0-2.025-.764-2.291-8.877-.23-7.016.044-9.244,1.3-10.637,1.648-1.821,1.889-3.577,1.125-8.158-1.019-6.108-1.849-8.828-2.693-8.828-.492,0-1.568-1.3-2.393-2.9-1.336-2.583-1.332-3.236.035-5.977a20.093,20.093,0,0,1,4.723-5.59c1.754-1.383,2.7-2.517,2.1-2.524-1.881-.019-6.406-4.489-6.406-6.328,0-2.5,2.958-6.684,4.727-6.684,1.151,0,1.353-.76.877-3.3-.722-3.851,3.468-13.7,5.828-13.7,1.876,0,4.568,2.743,4.568,4.654,0,2.588,2.482.839,2.816-1.984.266-2.251,1.033-2.855,4.828-3.811,3.234-.814,4.764-1.8,5.408-3.5.494-1.3,1.675-2.361,2.623-2.361,1.342,0,1.457-.266.523-1.2-1.534-1.534-1.741-74.348-.215-75.291.541-.334,23-5.507,49.912-11.5,60.976-13.57,57.1-12.527,57.1-15.4,0-2.369,8.839-10.508,21.666-19.951a58.335,58.335,0,0,0,9.236-8.541l3.311-4.184-4.355.613c-6.306.886-6.857,1.163-6.857,3.439,0,1.918-4.568,4.772-5.748,3.592-1.683-1.683-14.157-30.085-17.365-39.539-3.467-10.216-3.883-12.484-3.85-21,.021-5.251.6-14.047,1.295-19.547,1.256-10,1.257-10,8.018-19.721l6.764-9.719-5.432,2.4c-7.615,3.368-15.461,8.251-20.342,12.658-4.024,3.633-4.35,3.737-10,3.233a44.735,44.735,0,0,1-9.84-2.055c-23.941-9.183-25.125-9.546-31.5-9.67-5.633-.109-6.972.234-10.031,2.574a63.2,63.2,0,0,1-10.789,5.789l-7.258,3.09-2.922-2.084a26,26,0,0,1-5.062-5.088c-1.919-2.7-2-3.333-.836-6.154.717-1.732,4.25-6.282,7.852-10.109,6.116-6.5,6.349-6.914,3.547-6.275-5.329,1.214-24.787,1.776-32.5.939l-7.5-.812-.309-3.711a24.161,24.161,0,0,1,.607-7.021,10.53,10.53,0,0,0,.039-5.676c-.812-2.2-1.243-2.318-6.105-1.725a72.686,72.686,0,0,0-7.455,1.246c-3.327.908-5.019-3.276-2.947-7.283,2.9-5.616-.093-18.572-7.531-32.549-2-3.763-5.753-8.163-10.967-12.871-8.448-7.628-11.694-12.74-13.82-21.766-1.163-4.933-1.094-5.654.871-9.15l2.133-3.795-4.758-2.732c-8.695-4.994-15.218-10.469-17.272-14.494-2.181-4.275-2.723-4.482-7.883-3-2.978.854-4.132.551-9.627-2.521l-6.242-3.49-7.844,3.02c-9.135,3.518-9.942,3.581-17.144,1.311-5.119-1.614-5.6-2.058-8.443-7.75-1.656-3.321-5.734-10.539-9.061-16.039-9.1-15.038-27.594-33.2-45.742-44.92-8.577-5.537-14.494-12.482-13.615-15.982.5-1.99-.046-2.442-4.748-3.924-7.128-2.247-10.17-2.119-19.35.813-9.594,3.064-17.711,3.214-28.264.52-8.507-2.172-21.03-7.418-22.236-9.316-1.369-2.154-.821-6.7,1.313-10.885,1.9-3.726,1.99-4.668.949-9.957-1.643-8.353-3.34-11.808-8.031-16.348-3.96-3.832-8.018-11.059-8.018-14.281,0-.643-.079-.956-.363-.92Z" transform="translate(-2565.29 -1038.299)" fill="#d1add8"/></svg>