<svg xmlns="http://www.w3.org/2000/svg" width="597.322" height="473.134" viewBox="0 0 597.322 473.134"><path d="M2726.9,804.25a2.122,2.122,0,0,0-1.227.537,16.14,16.14,0,0,1-5.174,1.672,19.4,19.4,0,0,0-6.533,2.545,18.787,18.787,0,0,1-6.533,2.492c-4.324.723-10.467,3.5-10.467,4.734,0,.425-.687.773-1.525.773s-4.362,2.639-7.83,5.865a94.644,94.644,0,0,1-9.225,7.725c-3.058,1.947-6.42,5.27-6.42,6.348,0,1.637-6.316,4.062-11.369,4.365-3.836.23-6.335.972-7.875,2.336-16.05,14.213-30.661,25.361-33.236,25.361-.873,0-3.723,1.083-6.334,2.406-5.3,2.684-13.233,4.212-15.924,3.066-4.951-2.107-12.786,1.277-24.262,10.479a10.583,10.583,0,0,1-3.316,2.027,15.159,15.159,0,0,0-4,2.4c-4.282,3.2-16.914,9.619-18.94,9.619a2.9,2.9,0,0,1-2.256-1.018c-.39-.631-1.66-.283-3.344.916a74.567,74.567,0,0,1-8.18,4.6c-3.005,1.468-8.165,4.194-11.465,6.057-3.621,2.044-7.405,3.4-9.545,3.416-2.39.019-5.975,1.487-11,4.51-4.1,2.466-8.023,4.491-8.717,4.5-1.3.017-3.433.928-18.738,8.006-8.913,4.122-14.488,6.22-19.69,7.406a33.733,33.733,0,0,0-7.5,3.6,37.307,37.307,0,0,1-10.791,4.09,40.879,40.879,0,0,0-8.7,2.51A13.521,13.521,0,0,1,2421.67,949c-2.914,0-4.815,2.029-7.691,8.205a30.791,30.791,0,0,1-7.852,9.457c-3.114,2.615-6.787,5.856-8.162,7.2-6.744,6.6-20.732,14.114-26.3,14.131-2.72.008-7.506-2.759-7.875-4.555-.523-2.546-6.7,2.21-9.822,7.561-1.631,2.8-3.454,4.622-4.816,4.82-1.206.176-3.428,1.97-4.939,3.986a82.392,82.392,0,0,1-6,6.963c-3.608,3.66-3.87,4.828-1.719,7.672s1.872,7.825-.531,9.326a4.042,4.042,0,0,0-2,2.523c0,1.308-.739,2.351-8.18,11.553-7.637,9.444-10.8,13.621-11.5,15.156a37.758,37.758,0,0,1-3.971,5.395c-1.811,2.142-3.039,4.306-2.729,4.809.973,1.575-4.83,8.855-8.172,10.252a12.914,12.914,0,0,0-4.83,3.689c-2,2.879-24.683,27.673-33.623,36.754-3.575,3.632-9.513,9.077-13.193,12.1s-6.719,6.287-6.75,7.25-.412,1.75-.848,1.75-2.463,1.575-4.5,3.5a22.913,22.913,0,0,1-4.271,3.5c-.309,0-1.7,1.35-3.088,3s-3.188,3-4,3,2.825,3.62,8.088,8.045,9.568,8.343,9.568,8.707-1.511,2.257-3.357,4.2c-3.967,4.186-7.267,13.114-5.262,14.236.7.39,1.877,2.558,2.623,4.818a13.183,13.183,0,0,0,4.426,6.258,22.839,22.839,0,0,1,4.535,4.189c.806,1.123,3.393,4.113,5.75,6.645s4.285,5.023,4.285,5.535c0,1.144,10.851,6.376,13.2,6.367a13.771,13.771,0,0,1,4.42,1.232c2.16.984,2.8.984,3.131,0a2.542,2.542,0,0,1,2.365-1.238,9.6,9.6,0,0,0,4.166-1.381c3.124-1.947,11.679-2.895,13.381-1.482,1.048.87,1.8.753,3.182-.5,2.334-2.112,4.152-2.091,4.152.049,0,1.367.522,1.2,2.75-.893,6.216-5.828,15.311-3.551,23.373,5.848,3.74,4.36,4.858,6.58,5.85,11.623,1.292,6.57,7.324,23.476,10.824,30.338a24.072,24.072,0,0,0,5.75,6.865c3.394,2.589,3.638,3.113,3.146,6.775-.5,3.725-.442,3.841.943,1.863a4.958,4.958,0,0,1,3.385-2.107,3.878,3.878,0,0,0,2.979-2c.776-1.45,2.094-2,4.795-2,2.548,0,4.09-.588,4.885-1.859.669-1.072,2.889-2.136,5.24-2.512,2.625-.42,4.08-1.176,4.08-2.121,0-1.544.2-1.605,11.77-3.59,6.422-1.1,7.5-1.606,9.193-4.332,2.527-4.056,11.742-12.9,15.537-14.906,1.65-.874,6.375-3.019,10.5-4.766,10.011-4.24,22.957-10.751,25.8-12.977a15.681,15.681,0,0,1,5.3-2.459c3.539-.777,10.933-8.08,14.658-14.478a69.447,69.447,0,0,1,4.932-7.326c2.894-3.54,2.993-8.38.328-16.125-3.241-9.421-3.632-17.237-1.152-23.092s5.1-16.659,5.119-21.125c.029-6.138,3.313-11.583,9.439-15.65,6.043-4.012,9.576-4.226,9.576-.582a2.836,2.836,0,0,0,1.5,2.539,2.384,2.384,0,0,1,1.5,1.992c0,.78,1.16,1.859,2.578,2.4,2.192.833,2.485,1.409,1.951,3.84-.678,3.089,1.7,6.682,8.26,12.494,1.809,1.6,3.214,3.639,3.123,4.525-.288,2.8,2.44,8.189,3.865,7.642.729-.28,2.989,1.237,5.023,3.369a27.85,27.85,0,0,0,7.2,5.4c1.925.837,5.3,3.743,7.5,6.455,6.053,7.464,14.783,13.515,19.848,13.758,8.6.413,9.313.958,10.02,7.719.467,4.469,1.166,6.454,2.635,7.482a4.492,4.492,0,0,1,2,2.777c0,.757.877,1.654,1.949,1.994a4.306,4.306,0,0,1,2.529,2.447,14.535,14.535,0,0,0,2.488,4.031c1.049,1.21,1.686,2.778,1.414,3.486s.412,1.524,1.551,1.822a5.71,5.71,0,0,1,3.1,3.3c1.958,5.151,9.813,9.373,17.5,9.406,2.957.013,5.969.68,7.313,1.621a6.963,6.963,0,0,0,5.6.977c2.676-.5,3.434-1.2,3.914-3.6.5-2.5,1.069-2.977,3.563-2.977a5.851,5.851,0,0,1,4.275,1.75c.913,1.223,2.714,1.757,5.979,1.773,3.183.016,5.35.638,6.8,1.951,2.045,1.85,2.236,1.858,4.828.172,5.195-3.378,9.564-4.9,11.17-3.9.841.524,3.779,4.36,6.529,8.527,3.789,5.742,5.568,7.6,7.344,7.654a2.849,2.849,0,0,1,2.871,2.1c.407,1.557.837,1.765,1.867.91,1.554-1.29,7.034-.352,8.162,1.4a9.509,9.509,0,0,0,2.756,2.313,3.451,3.451,0,0,1,1.762,3.25c-.2,1.727.3,2.109,2.75,2.109,1.644,0,2.988.436,2.988.969s.592.741,1.316.463,3.345,1.695,5.855,4.42c4.692,5.094,7.429,6.264,15.469,6.615,3.55.155,4.5-.266,6.646-2.959,1.771-2.22,5.036-4.119,11.129-6.475,7.334-2.835,8.7-3.722,9.113-5.934a81.851,81.851,0,0,1,2.631-8.6c9.333-26.174,9.64-28.372,5.328-38.123-2.755-6.231-2.655-8.377.393-8.377,2.147,0,2.545-1.652,3.639-15.074l.617-7.574-3.318-2.3a25.362,25.362,0,0,1-5.318-5.141c-1.1-1.566-3.719-4.86-5.82-7.32l-3.82-4.473,1.672-5.812a95.259,95.259,0,0,1,3.467-9.875c1-2.272,1.569-5.251,1.281-6.754-.35-1.832.615-5,3.029-9.936,4.636-9.481,5.946-14.772,5.217-21.08-.9-7.773-1.424-25.766-.8-27.389.419-1.092,1.657-1.274,5.271-.777l4.723.648,3.227-6.2c1.822-3.5,3-7.043,2.717-8.141-.28-1.069.577-4.277,1.9-7.129,1.647-3.54,2.233-6.159,1.846-8.256-.49-2.653-.084-3.441,2.977-5.775,3.134-2.39,3.43-3,2.576-5.242-1.625-4.273-1.175-6.32,1.535-7,2.215-.556,2.5-1.158,2.514-5.27.01-2.553,1.351-8.466,2.986-13.141s2.979-9.231,2.986-10.123c.021-2.6,8.424-9.642,12.967-10.865,6.289-1.693,6.676-3.339,5-21.314-1.863-19.957-1.895-34.858-.078-37.045,1.548-1.863.763-3.414-3.687-7.3-1.819-1.588-2.586-3.465-2.945-7.205-.442-4.6-.213-5.328,2.51-8.051a15.5,15.5,0,0,1,5.871-3.684c4.022-.963,5.425-2.285,7.578-7.143,1.756-3.96,1.77-4.388.223-6.75a5.036,5.036,0,0,0-4.414-2.521,5.838,5.838,0,0,1-3.959-1.441c-.875-1.054-3.661-1.457-10.373-1.5-14.855-.1-17.762-.452-19.135-2.33-1.724-2.357-3.021-2.169-4.912.717a7.273,7.273,0,0,0-1.029,5.307c.687,3.435-1.506,5.732-4.551,4.766-1.126-.357-2.05-.959-2.051-1.334s-1.351-2.257-3-4.182-3.01-4.175-3.029-5a7.547,7.547,0,0,0-1.5-3.441,8.081,8.081,0,0,1-1.469-4.127,5.03,5.03,0,0,0-1.5-3.432c-1.024-.85-1.5-3.122-1.5-7.154,0-4.33-.4-6.063-1.5-6.484-.91-.349-1.5-1.861-1.5-3.846,0-2.218-.678-3.723-2.107-4.672-1.879-1.247-2-1.809-1.068-5.166.8-2.887.687-4.984-.471-8.973-.831-2.863-1.759-6.75-2.062-8.639a14.948,14.948,0,0,0-3.936-6.918c-2.477-2.55-3.216-4.042-2.758-5.566.51-1.7.383-1.85-.686-.832-1.437,1.369-5.761,1.647-7.527.484-.614-.4-2.07-2.616-3.236-4.916-1.825-3.6-3.014-5.112-4.215-5.072Z" transform="translate(-2224.195 -804.25)" fill="#d1add8"/></svg>