<?xml version="1.0" encoding="utf-8"?>
<!-- Generator: Adobe Illustrator 24.0.1, SVG Export Plug-In . SVG Version: 6.00 Build 0)  -->
<svg version="1.1" id="Layer_1" xmlns="http://www.w3.org/2000/svg" xmlns:xlink="http://www.w3.org/1999/xlink" x="0px" y="0px"
	 viewBox="0 0 450 450" style="enable-background:new 0 0 450 450;" xml:space="preserve">
<style type="text/css">
	.st0{fill:url(#SVGID_1_);}
	.st1{fill:url(#SVGID_2_);}
	.st2{fill:url(#SVGID_3_);}
</style>
<linearGradient id="SVGID_1_" gradientUnits="userSpaceOnUse" x1="270" y1="164" x2="270" y2="-426.979" gradientTransform="matrix(1 0 0 1 -65 373)">
	<stop  offset="0" style="stop-color:#C045CE"/>
	<stop  offset="1" style="stop-color:#82278A"/>
</linearGradient>
<path class="st0" d="M205,221c28.6,0,51.7-23.1,51.7-51.7c0-28.6-23.1-51.7-51.7-51.7s-51.7,23.1-51.7,51.7
	C153.3,197.8,176.5,221,205,221z M205,137.7c17.5,0,31.7,14.2,31.7,31.7s-14.2,31.7-31.7,31.7s-31.7-14.2-31.7-31.7
	C173.3,151.9,187.5,137.7,205,137.7z"/>
<linearGradient id="SVGID_2_" gradientUnits="userSpaceOnUse" x1="270" y1="164" x2="270" y2="-426.979" gradientTransform="matrix(1 0 0 1 -65 373)">
	<stop  offset="0" style="stop-color:#C045CE"/>
	<stop  offset="1" style="stop-color:#82278A"/>
</linearGradient>
<path class="st1" d="M205,240.1c-21.2-0.2-41.5,8.3-56.2,23.5c-15,15.3-23.2,36.1-23.2,58.7c0,5.5,4.5,10,10,10h138.8
	c5.5,0,10-4.5,10-10c0-22.6-8.2-43.4-23.2-58.7C246.5,248.4,226.2,239.9,205,240.1z M146.3,312.3c1.7-13.1,7.6-25.2,16.8-34.7
	c11.1-11.2,26.2-17.5,41.9-17.5s30.8,6.3,41.9,17.5c9.2,9.5,15.1,21.6,16.8,34.7H146.3z"/>
<linearGradient id="SVGID_3_" gradientUnits="userSpaceOnUse" x1="290" y1="164" x2="290" y2="-426.979" gradientTransform="matrix(1 0 0 1 -65 373)">
	<stop  offset="0" style="stop-color:#C045CE"/>
	<stop  offset="1" style="stop-color:#82278A"/>
</linearGradient>
<path class="st2" d="M405,103.7h-30V50c0-27.6-22.4-50-50-50H85C57.4,0,35,22.4,35,50v350c0,27.6,22.4,50,50,50h240
	c27.6,0,50-22.4,50-50v-53.7h30c5.5,0,10-4.5,10-10v-36c0-5.5-4.5-10-10-10h-30V253h30c5.5,0,10-4.5,10-10v-36c0-5.5-4.5-10-10-10
	h-30v-37.3h30c5.5,0,10-4.5,10-10v-36C415,108.2,410.5,103.7,405,103.7z M355,400c0,16.5-13.5,30-30,30H85c-16.5,0-30-13.5-30-30V50
	c0-16.5,13.5-30,30-30h240c16.5,0,30,13.5,30,30V400z M395,310.3v16h-20v-16H395z M395,217v16h-20v-16H395z M395,139.7h-20v-16h20
	V139.7z"/>
</svg>
