<svg xmlns="http://www.w3.org/2000/svg" version="1.1" xmlns:xlink="http://www.w3.org/1999/xlink" xmlns:svgjs="http://svgjs.com/svgjs" width="1440" height="560" preserveAspectRatio="none" viewBox="0 0 1440 560"><g mask="url(&quot;#SvgjsMask1007&quot;)" fill="none"><rect width="1440" height="560" x="0" y="0" fill="rgba(121, 46, 136, 1)"></rect><path d="M0,580.088C107.328,577.019,168.611,456.567,244.789,380.899C305.563,320.531,347.51,250.35,400.061,182.702C471.31,90.983,600.668,28.354,608.663,-87.512C616.589,-202.389,521.966,-300.561,438.908,-380.316C360.563,-455.545,258.96,-496.571,153.912,-524.176C51.285,-551.145,-54.36,-561.163,-157.705,-537.095C-265.197,-512.061,-365.917,-462.706,-444.18,-384.885C-526.255,-303.274,-591.961,-202.039,-609.692,-87.661C-627.518,27.326,-611.256,153.951,-542.235,247.63C-476.881,336.331,-347.882,337.572,-253.954,395.161C-162.835,451.028,-106.838,583.143,0,580.088" fill="#5a2265"></path><path d="M1440 1085.488C1542.383 1084.835 1649.706 1075.397 1732.654 1015.3779999999999 1813.865 956.616 1850.083 857.207 1885.233 763.331 1918.312 674.987 1948.8229999999999 581.955 1929.513 489.619 1910.733 399.81600000000003 1852.6480000000001 321.8 1780.93 264.582 1716.016 212.79199999999997 1631.481 200.709 1549.653 186.55599999999998 1476.141 173.841 1402.962 169.425 1330.376 186.654 1254.75 204.60500000000002 1187.1680000000001 240.27100000000002 1125.275 287.289 1050.401 344.169 962.986 397.697 934.576 487.331 904.85 581.118 934.754 682.724 970.943 774.211 1008.54 869.258 1059.77 962.61 1144.936 1019.1279999999999 1230.67 1076.0230000000001 1337.107 1086.145 1440 1085.488" fill="#5a2265"></path></g><defs><mask id="SvgjsMask1007"><rect width="1440" height="560" fill="#ffffff"></rect></mask></defs></svg>