<svg xmlns="http://www.w3.org/2000/svg" viewBox="0 0 750 473.62"><defs><style>.cls-1{fill:#fff;}.cls-2{fill:#f9e3ca;}.cls-3{fill:#161f2c;}.cls-4{fill:#b9c0c7;}.cls-5{fill:#677282;}.cls-6{fill:#c5733b;}.cls-7{fill:#e9e9e9;}.cls-8{fill:#f9f0e8;}.cls-9{fill:#433847;}.cls-10{fill:#384152;}.cls-11{fill:#ed805f;}.cls-12{fill:#dd6c4d;}.cls-13{fill:#8f6f97;}</style></defs><title>livraison</title><g id="OBJECTS"><path class="cls-1" d="M362.75,60.12A118.11,118.11,0,0,0,244.61,178.26c0,65.24,118.14,210.25,118.14,210.25s53.66-65.88,88.56-128.78c17-30.42,29.58-60.19,29.58-81.47A118.17,118.17,0,0,0,362.75,60.12Zm0,172.08a55.62,55.62,0,1,1,12-1.4A50.87,50.87,0,0,1,362.75,232.2Z"/><polygon class="cls-2" points="327.44 325.07 200.65 325.07 200.65 432.44 342.71 432.44 327.44 325.07"/><polygon class="cls-3" points="321.89 328.75 178.19 328.75 178.19 432.44 336.8 432.44 321.89 328.75"/><rect class="cls-4" x="259.91" y="412.63" width="19.54" height="19.81" transform="translate(539.37 845.07) rotate(180)"/><rect class="cls-5" x="278.64" y="412.63" width="11.83" height="19.81" transform="translate(569.11 845.07) rotate(180)"/><rect class="cls-4" x="258.88" y="387.73" width="32.41" height="25.17" transform="translate(550.16 800.63) rotate(180)"/><rect class="cls-5" x="290.47" y="393.36" width="8.95" height="19.54" transform="translate(589.88 806.25) rotate(180)"/><rect class="cls-4" x="78.92" y="419.79" width="45.42" height="20.15" rx="4.13"/><path class="cls-3" d="M239.46,446.59a18.21,18.21,0,1,1,18.2,18.2A18.2,18.2,0,0,1,239.46,446.59Z"/><path class="cls-3" d="M300.68,446.59a18.21,18.21,0,1,1,18.21,18.2A18.21,18.21,0,0,1,300.68,446.59Z"/><path class="cls-3" d="M85.12,446.59a18.21,18.21,0,1,1,18.21,18.2A18.21,18.21,0,0,1,85.12,446.59Z"/><path class="cls-6" d="M94.14,446.59a9.19,9.19,0,1,1,9.19,9.19A9.19,9.19,0,0,1,94.14,446.59Z"/><path class="cls-5" d="M94.14,446.59a9.19,9.19,0,1,1,9.19,9.19A9.19,9.19,0,0,1,94.14,446.59Z"/><path class="cls-4" d="M100.48,446.59a2.85,2.85,0,1,1,2.85,2.85A2.85,2.85,0,0,1,100.48,446.59Z"/><path class="cls-4" d="M97.38,451.47a1.11,1.11,0,1,1,1.1,1.1A1.1,1.1,0,0,1,97.38,451.47Z"/><path class="cls-4" d="M96.09,443.28a1.11,1.11,0,1,1,1.11,1.1A1.11,1.11,0,0,1,96.09,443.28Z"/><path class="cls-4" d="M108.22,443.28a1.11,1.11,0,1,1,1.11,1.1A1.11,1.11,0,0,1,108.22,443.28Z"/><path class="cls-4" d="M107.3,451.47a1.11,1.11,0,1,1,1.11,1.1A1.11,1.11,0,0,1,107.3,451.47Z"/><path class="cls-4" d="M102.23,439.57a1.1,1.1,0,1,1,1.1,1.1A1.11,1.11,0,0,1,102.23,439.57Z"/><path class="cls-6" d="M248.14,446.59a9.19,9.19,0,1,1,9.19,9.19A9.18,9.18,0,0,1,248.14,446.59Z"/><path class="cls-5" d="M248.14,446.59a9.19,9.19,0,1,1,9.19,9.19A9.18,9.18,0,0,1,248.14,446.59Z"/><path class="cls-4" d="M254.48,446.59a2.85,2.85,0,1,1,2.85,2.85A2.84,2.84,0,0,1,254.48,446.59Z"/><path class="cls-4" d="M251.38,451.47a1.1,1.1,0,1,1,1.1,1.1A1.1,1.1,0,0,1,251.38,451.47Z"/><path class="cls-4" d="M251,443.28a1.11,1.11,0,1,1,1.11,1.1A1.11,1.11,0,0,1,251,443.28Z"/><path class="cls-4" d="M261.3,451.47a1.11,1.11,0,1,1,1.1,1.1A1.1,1.1,0,0,1,261.3,451.47Z"/><path class="cls-4" d="M247.78,439.57a1.11,1.11,0,1,1,1.1,1.1A1.11,1.11,0,0,1,247.78,439.57Z"/><path class="cls-3" d="M136.85,446.59a18.21,18.21,0,1,1,18.21,18.2A18.21,18.21,0,0,1,136.85,446.59Z"/><path class="cls-5" d="M103.13,348.28s9.88-14.9,21.3-15l-1,16.12Z"/><path class="cls-4" d="M161.33,416.36H82.26L88.84,363A17.32,17.32,0,0,1,106,347.75h55.3Z"/><path class="cls-5" d="M115.36,383.71H93.19l2.94-21.09a8.78,8.78,0,0,1,8.7-7.57h11.22Z"/><path class="cls-7" d="M113.72,382.12H99.13A3.64,3.64,0,0,1,95.51,378l1.94-14.59a7.56,7.56,0,0,1,7.36-6.72h9.5Z"/><polygon class="cls-2" points="268.87 432.44 116.79 432.44 123.57 325.07 259.88 325.07 268.87 432.44"/><polygon class="cls-8" points="262.92 428.37 122.37 428.37 128.64 329.15 254.61 329.15 261.34 409.57 262.92 428.37"/><path class="cls-5" d="M130.5,416.36H82.26c-4.25.28-4.66,2.38-4.66,2.38l-4.13,19.95a1.33,1.33,0,0,0,1.4,1.24H87a1.88,1.88,0,0,0,1.64-1.27,20.46,20.46,0,0,1,3.12-3.13,19.61,19.61,0,0,1,11.57-3.42c6.18,0,11.65,2,14.94,5H130.5c1.48,0,2.69-.77,2.69-1.71v-17.3C133.19,417.13,132,416.36,130.5,416.36Z"/><path class="cls-2" d="M282.19,455.53H266.9A14.21,14.21,0,0,0,265,450.6c-4.63-7.4-15.43-9.67-21.59-10.36-2.7-.3-4.51-.31-4.51-.31h26.29a19.36,19.36,0,0,1,13.61,8.27A22.44,22.44,0,0,1,282.19,455.53Z"/><path class="cls-2" d="M342.72,455.53H327.43a14.28,14.28,0,0,0-2.3-5.51c-7-10.07-25.71-10.09-25.71-10.09H325.7a19.16,19.16,0,0,1,12.23,6.51A22.81,22.81,0,0,1,342.72,455.53Z"/><rect class="cls-2" x="118.19" y="432.44" width="228.3" height="10.41" rx="4.59"/><rect class="cls-2" x="127.85" y="435.06" width="45.42" height="23.06" rx="4.42"/><path class="cls-2" d="M83.7,373.38s-2,10.62-1.88,12.35a2.89,2.89,0,0,0,3,2.58Z"/><rect class="cls-5" x="83.62" y="372.49" width="7.36" height="15.82" rx="2.86"/><rect class="cls-7" x="84.43" y="373.38" width="5.98" height="14.16" rx="2.44"/><path class="cls-2" d="M87.3,372.78a.27.27,0,0,1-.25-.29V368a2.84,2.84,0,0,1,3-2.49c2.45.08,3.5,0,3.51,0a.26.26,0,0,1,.26.27.28.28,0,0,1-.23.31s-1.08.08-3.55,0a2.26,2.26,0,0,0-2.48,2v4.45A.27.27,0,0,1,87.3,372.78Z"/><path class="cls-5" d="M113.31,390.58h-4.47a1.14,1.14,0,0,1-1.14-1.14h0a1.14,1.14,0,0,1,1.14-1.13h4.47a1.14,1.14,0,0,1,1.14,1.13h0A1.14,1.14,0,0,1,113.31,390.58Z"/><rect class="cls-4" x="292.35" y="412.9" width="19.54" height="19.54" transform="translate(604.24 845.34) rotate(180)"/><rect class="cls-5" x="311.08" y="412.9" width="8.95" height="19.54" transform="translate(631.1 845.34) rotate(180)"/><path class="cls-2" d="M156.54,372.65a6.56,6.56,0,0,1,2.24.34,4.1,4.1,0,0,1,1.59,1,4.2,4.2,0,0,1,1,1.51,6.82,6.82,0,0,1,.41,2,22.21,22.21,0,0,1,0,2.58,6.76,6.76,0,0,1-.41,2,4.35,4.35,0,0,1-1,1.52,4.26,4.26,0,0,1-1.56,1,6.54,6.54,0,0,1-2.19.34h-4.4a.45.45,0,0,1-.33-.14.43.43,0,0,1-.14-.33V373.12a.48.48,0,0,1,.47-.47Zm2.86,4.82a3.16,3.16,0,0,0-.22-1,2.34,2.34,0,0,0-1.44-1.4,3.8,3.8,0,0,0-1.29-.2h-2.34v7.86h2.43a3.32,3.32,0,0,0,1.24-.21,2.28,2.28,0,0,0,.87-.55,2.32,2.32,0,0,0,.53-.83,3.33,3.33,0,0,0,.22-1.05A22.21,22.21,0,0,0,159.4,377.47Z"/><path class="cls-2" d="M172.18,382.69a.48.48,0,0,1,.47.47v1.24a.43.43,0,0,1-.14.33.45.45,0,0,1-.33.14h-7.66a.45.45,0,0,1-.33-.14.43.43,0,0,1-.14-.33V373.12a.48.48,0,0,1,.47-.47H172a.48.48,0,0,1,.47.47v1.24a.42.42,0,0,1-.14.33.45.45,0,0,1-.33.14H166.4v2.78h5.26a.44.44,0,0,1,.33.13.49.49,0,0,1,.14.34v1.24a.49.49,0,0,1-.14.33.45.45,0,0,1-.33.14H166.4v2.9Z"/><path class="cls-2" d="M182.94,382.69a.42.42,0,0,1,.33.14.45.45,0,0,1,.14.33v1.24a.47.47,0,0,1-.14.33.45.45,0,0,1-.33.14h-7.65a.45.45,0,0,1-.33-.14.47.47,0,0,1-.14-.33V373.12a.45.45,0,0,1,.14-.33.42.42,0,0,1,.33-.14h1.41a.48.48,0,0,1,.48.47v9.57Z"/><path class="cls-2" d="M185.56,384.87a.49.49,0,0,1-.34-.14.47.47,0,0,1-.14-.33V373.12a.48.48,0,0,1,.48-.47H187a.48.48,0,0,1,.47.47V384.4a.43.43,0,0,1-.14.33.45.45,0,0,1-.33.14Z"/><path class="cls-2" d="M194.6,381.41l2.93-8.33a.93.93,0,0,1,.19-.28.47.47,0,0,1,.39-.15h1.33a.45.45,0,0,1,.33.14.45.45,0,0,1,.14.33v.06a.29.29,0,0,1,0,.11l-3.91,11a1.33,1.33,0,0,1-.24.45.57.57,0,0,1-.42.15h-1.4a.57.57,0,0,1-.42-.15,1.33,1.33,0,0,1-.24-.45l-3.91-11a.29.29,0,0,1,0-.11v-.06a.45.45,0,0,1,.14-.33.43.43,0,0,1,.33-.14h1.33a.47.47,0,0,1,.39.15.93.93,0,0,1,.19.28Z"/><path class="cls-2" d="M209.89,382.69a.48.48,0,0,1,.48.47v1.24a.47.47,0,0,1-.14.33.49.49,0,0,1-.34.14h-7.66a.45.45,0,0,1-.33-.14.43.43,0,0,1-.14-.33V373.12a.48.48,0,0,1,.47-.47h7.52a.48.48,0,0,1,.48.47v1.24a.45.45,0,0,1-.14.33.49.49,0,0,1-.34.14h-5.64v2.78h5.26a.44.44,0,0,1,.33.13.49.49,0,0,1,.14.34v1.24a.49.49,0,0,1-.14.33.45.45,0,0,1-.33.14h-5.26v2.9Z"/><path class="cls-2" d="M217.51,372.65a4.79,4.79,0,0,1,3.31,1,3.55,3.55,0,0,1,1.14,2.81,3.89,3.89,0,0,1-.59,2.17,3.44,3.44,0,0,1-1.72,1.34l2.41,4.31a.38.38,0,0,1,.05.19.33.33,0,0,1-.11.27.34.34,0,0,1-.27.12h-1.48a.71.71,0,0,1-.52-.17,1.09,1.09,0,0,1-.23-.3l-2.29-4.07h-2.32v4.07a.47.47,0,0,1-.14.33.49.49,0,0,1-.33.14H213a.45.45,0,0,1-.33-.14.47.47,0,0,1-.14-.33V373.12a.45.45,0,0,1,.14-.33.42.42,0,0,1,.33-.14Zm-2.62,5.5h2.53a3.18,3.18,0,0,0,1.59-.35,1.43,1.43,0,0,0,.59-1.33,1.38,1.38,0,0,0-.59-1.31,3.3,3.3,0,0,0-1.59-.33h-2.53Z"/><path class="cls-2" d="M233.06,372.65a.47.47,0,0,1,.44.63l-4.14,7.28v3.84a.47.47,0,0,1-.14.33.45.45,0,0,1-.33.14h-1.4a.45.45,0,0,1-.33-.14.47.47,0,0,1-.14-.33v-3.84l-4.14-7.28a.47.47,0,0,1,.44-.63h1.31a.72.72,0,0,1,.52.17,1,1,0,0,1,.21.26l2.83,4.94,2.83-4.94a1,1,0,0,1,.21-.26.72.72,0,0,1,.52-.17Z"/><path class="cls-1" d="M711.9,222.36A28.92,28.92,0,0,0,683,251.28c0,16,28.92,51.47,28.92,51.47s28.91-35.5,28.91-51.47A28.91,28.91,0,0,0,711.9,222.36Zm0,42.14A13.52,13.52,0,1,1,725.41,251,13.52,13.52,0,0,1,711.9,264.5Z"/><path class="cls-1" d="M44.66,290a24.38,24.38,0,0,0-24.39,24.38c0,13.47,24.39,43.41,24.39,43.41s24.39-29.94,24.39-43.41A24.38,24.38,0,0,0,44.66,290Zm0,35.53a11.4,11.4,0,1,1,11.4-11.4A11.39,11.39,0,0,1,44.66,325.51Z"/><path class="cls-9" d="M243.79,464.23H215c.3-1,1.27-2.81,4.46-3.32,4.45-.73,12.16-3.31,13.87-9a5.12,5.12,0,0,0,.15-.56c1.37-6.08,11.3,1.86,11.3,1.86s0,.25.07.66C245.05,456.09,245.63,463.21,243.79,464.23Z"/><path class="cls-10" d="M220.61,301.6s1.51,18.81,3.28,41.43c2.41,30.72,5.31,68.45,5.59,75.6C230,431.05,232,450.9,232,450.9s4.71,4.72,14.14,2.73c0,0,8.41-28.35,10.81-58.34,0-.49.08-1,.11-1.48,2.24-30.53,5.71-94.82,5.71-94.82Z"/><path class="cls-3" d="M220.61,301.6s1.51,18.81,3.28,41.43l33,52.26c0-.49.08-1,.11-1.48,2.24-30.53,5.71-94.82,5.71-94.82Z"/><path class="cls-10" d="M227.5,303.83S254.68,372,272.55,404,296,444.94,296,444.94s10.23-4.09,11.17-6.88c0,0-6.84-61.82-18.81-76.89-6.76-8.52-14.7-34.07-15.08-43s-2.42-26.62-2.42-26.62Z"/><path class="cls-11" d="M263.26,198.83s-18.39,9-29,5.66a25.16,25.16,0,0,1,7.18-5.83c-.37-2.16-.65-4-.81-5.63a52.53,52.53,0,0,1-.45-5.74l7.09-5.67,6.73-5.43C253.47,191.44,263.26,198.83,263.26,198.83Z"/><path class="cls-8" d="M273,295c0,1.14-2.37,2.45-3.43,2.94-7.87,3.51-15.21,5.95-23.53,6.77-9.82,1-21.44-1.23-25.44-1.14a1.66,1.66,0,0,1-1.1-.45c-.29-.21-.49-12.24-.29-27.36,0-.62,0-1.23,0-1.84v-.2c.09-5.92.29-12.11.57-18.31.58-13.62,1.64-26.75,3.43-34,2.16-8.56,7.05-14.23,11.5-18.35l3.67-3.26a17.4,17.4,0,0,0,11.42-1.39c4.24-2.08,8.88-4.41,9.61-3.84,5.55,4.12,9.23,13.46,11.22,25.29a132.35,132.35,0,0,1,1.68,22.43c0,2.93-.09,5.95-.25,8.93a286,286,0,0,0,.57,38.29C272.79,291.89,272.91,293.73,273,295Z"/><path class="cls-2" d="M272.62,289.53c-89.1-.12-16.43-66.43-16.43-66.43l14.43-3.22a132.35,132.35,0,0,1,1.68,22.43c0,2.93-.09,5.95-.25,8.93A286,286,0,0,0,272.62,289.53Z"/><rect class="cls-4" x="163.01" y="233.7" width="55.4" height="55.4" transform="translate(381.43 522.79) rotate(180)"/><rect class="cls-5" x="216.11" y="233.7" width="25.36" height="55.4" transform="translate(457.58 522.79) rotate(180)"/><path class="cls-11" d="M210.09,262.21l-3.3-1.06s-2.31-7.63-10.11-4.21c0,0-3.17,1.68-1.77,3.66s1.14.94,3.05,3.81,4.92,4.22,7.32,3.14l2.75.08Z"/><path class="cls-8" d="M263.26,198.81S283.44,230.9,262,268c-6.71,11.57-57.39.57-57.39.57s-2-3.57,3.31-7.33c0,0,33.74-5.71,37.76-6.67,3.57-.84,1.19-33.64,5.27-43.15A23.94,23.94,0,0,1,263.26,198.81Z"/><path class="cls-12" d="M254.12,182s-4.65,8.6-13.49,11a52.53,52.53,0,0,1-.45-5.74l7.09-5.67Z"/><path class="cls-11" d="M236.94,187s17.55,2.91,19.19-8,5-18-6.11-20.28-13.94,1.53-15.38,5.05S232.42,186,236.94,187Z"/><path class="cls-3" d="M256,179.75s-.36-14.67-16.34-17c-11-1.62-10-9.55-8.79-11,0,0,14.15.12,22.66,2.26C266.41,157.23,257.92,177.57,256,179.75Z"/><path class="cls-9" d="M307.17,440.35l-.85-1.09-9.66,5.41a57.24,57.24,0,0,0,0,5.86,15.94,15.94,0,0,1-.24,3.79c-.2,1-1.22,5.05-4.21,6.13-3.4,1.22-3.67,3.83,2.13,3.78h3a8.07,8.07,0,0,0,7.7-6,13.47,13.47,0,0,1,2.35-4.55c1.52-1.78,3.31-3.35,3.89-5.3C312.26,445.07,307.17,440.35,307.17,440.35Z"/><polygon class="cls-8" points="416.27 370.75 418.17 369.19 392.63 335.82 383.42 335.44 416.27 370.75"/><polygon class="cls-8" points="449.63 370.75 451.21 369.19 430.08 335.82 422.46 335.44 449.63 370.75"/><path class="cls-2" d="M605.58,283.76a11.2,11.2,0,1,0-11.2,11.47A11.34,11.34,0,0,0,605.58,283.76Z"/><path class="cls-2" d="M463.51,438.37H577.38a2.26,2.26,0,0,0,2.25-2.26V425.35a2.26,2.26,0,0,0-2.25-2.27H476.79a2.26,2.26,0,0,0-2.25,2.27Z"/><path class="cls-3" d="M462.5,429.94a34,34,0,1,0-34,34A34,34,0,0,0,462.5,429.94Z"/><path class="cls-5" d="M445.82,429.94a17.35,17.35,0,1,0-17.35,17.35A17.34,17.34,0,0,0,445.82,429.94Z"/><path class="cls-2" d="M603.4,381.91a50.38,50.38,0,0,1,65,40.5,6.56,6.56,0,0,1-6.5,7.53h-.22a4.17,4.17,0,0,1-4.15-3.8,39.13,39.13,0,0,0-78.08,3.8H568.23A50.46,50.46,0,0,1,603.4,381.91Z"/><path class="cls-2" d="M551.18,423.08l17.05,6.86c11.81-23,23.87-34.23,34.18-39.78,18.56-10,31.47-1.53,27.12-9.41L597.7,313.59a29.22,29.22,0,0,0-26.44-12,9.5,9.5,0,0,0-8.1,12.47,116.11,116.11,0,0,1,5.76,36.88C568.92,390.48,551.18,423.08,551.18,423.08Z"/><path class="cls-2" d="M568.56,309.31l12.85-4.9c1.75,0,5.08,1.58,5.08-.17l-1.9-31.37a3.19,3.19,0,0,0-3.18-3.18h-8.28c-1.75,0-8.76,3.35-8.26,9.63l-2.2,31.62C562.67,312.69,566.82,309.31,568.56,309.31Z"/><rect class="cls-2" x="345.29" y="324.89" width="94.55" height="12.09" rx="5.5" transform="translate(785.12 661.88) rotate(-180)"/><circle class="cls-3" cx="618.62" cy="429.94" r="34.03"/><path class="cls-5" d="M601.27,429.94a17.3,17.3,0,0,0,2,8.09c.08.16.17.31.26.47a17.35,17.35,0,1,0,21.75-24.57l-.19-.08a17.35,17.35,0,0,0-23.82,16.09Z"/><path class="cls-2" d="M494,361.4s-8.79,34.84,20.85,67l-72.89-5.29,9.28-70.33Z"/><path class="cls-2" d="M359.87,433.87a4.51,4.51,0,0,0,4.5,4.5H473.54a4.52,4.52,0,0,0,4.51-4.5l-1.45-71.4-36.76-2.25C390.86,360.22,359.87,384.9,359.87,433.87Z"/><path class="cls-8" d="M583.18,283.11a17.28,17.28,0,0,0,.3,3.24,17.6,17.6,0,0,0,17.31,14.37V265.5A17.61,17.61,0,0,0,583.18,283.11Z"/><path class="cls-3" d="M555.38,285.49c.07,0,.8-.15.87-.16L575.62,280a1.86,1.86,0,0,0,1.19-2.13c-.11-1-.82-1.74-1.59-1.59L555.8,280c-.77.15-1.38,1.31-1.57,2.32C553.93,284.05,554.7,285.49,555.38,285.49Z"/><path class="cls-2" d="M602.2,391.51q-.27,1.64-.51,3.15l.15-.07a39.14,39.14,0,0,1,55.73,31.55,4.17,4.17,0,0,0,4.15,3.8h.22a6.56,6.56,0,0,0,6.5-7.53,50.5,50.5,0,0,0-38.71-41.61l-.2-.05L597.7,313.59a29.06,29.06,0,0,0-11.21-9.35c5.42,9.13,20.39,38.32,16.91,77.67q-.36,4.05-1,8.25Z"/><rect class="cls-13" x="420.86" y="344.1" width="76.46" height="17.3" rx="3.35"/><path class="cls-8" d="M368.52,438.37h105s6.41-38.88-17.23-52c-5.69-3.17-12.84-4.26-20.63-3.49C411.12,385.27,380.2,406.08,368.52,438.37Z"/><path class="cls-8" d="M583.48,286.35a17.6,17.6,0,0,0,17.31,14.37v-9.83C595.62,291.1,588.16,290.54,583.48,286.35Z"/><path class="cls-8" d="M602.2,391.51q-.27,1.64-.51,3.15l.15-.07c6.29-5.81,19.57-11,27.89-13.79l-.2-.05L597.7,313.59a29.06,29.06,0,0,0-11.21-9.35c5.42,9.13,20.39,38.32,16.91,77.67q-.36,4.05-1,8.25Z"/><rect class="cls-9" x="378.44" y="280.06" width="54.37" height="44.83"/><rect class="cls-13" x="351.25" y="280.06" width="54.37" height="44.83"/><polygon class="cls-10" points="432.78 313.52 424.16 313.52 424.92 311.1 424.16 309.37 432.78 309.37 432.78 313.52"/><polygon class="cls-3" points="351.25 290.12 359.87 290.12 359.11 287.69 359.87 285.96 351.25 285.96 351.25 290.12"/><polygon class="cls-3" points="351.25 317.68 359.87 317.68 359.11 315.26 359.87 313.52 351.25 313.52 351.25 317.68"/><path class="cls-11" d="M487.9,239.43c-9.4,3.82-26.58-4.34-26.58-4.34a24.07,24.07,0,0,0,6.79-14.61c.06-.49.1-1,.13-1.48l4.86-1.73,8.32,5.67a65.13,65.13,0,0,1-.09,7.67c-.05.85-.12,1.76-.21,2.74A16.82,16.82,0,0,1,487.9,239.43Z"/><path class="cls-12" d="M481.42,222.94a65.13,65.13,0,0,1-.09,7.67c-7.58-1.38-11.75-7.5-13.22-10.13.06-.49.1-1,.13-1.48l4.86-1.73Z"/><path class="cls-11" d="M483,227s-16.19-.53-15.71-10.6-1.28-16.93,9.08-17,12.18,3.85,12.84,7.25S487.18,226.88,483,227Z"/><path class="cls-3" d="M468.11,220.48s-.63-3.36,1.19-5.57c0,0-1.17-3.28.09-4s1.92,2.07,2.48,1.54a13.88,13.88,0,0,0,3.76-6.29c.75-3.28,12-.93,13.3-.53s-7.45-16-16.92-12.1-10.19,8.74-9.09,12.68S463.91,219.66,468.11,220.48Z"/><path class="cls-3" d="M452.63,316.65s1.12,19.78,5.62,25.41,90.8,3.45,90.8,3.45.38-12.68-3-15.94-19.14-12.63-69.45-17.94Z"/><path class="cls-8" d="M451.47,275.26c1.41,17-.44,42.82,1.16,47.3,1.37,3.86,17.07,1.56,23.33.28,2.32-.48,5.13-1.16,8-2,8.09-2.25,16.91-5.46,17.85-7.84a1.8,1.8,0,0,0,.09-.28,1.88,1.88,0,0,0,0-1c-.23-.9-1-1.85-1.38-3.5a11.1,11.1,0,0,1-.29-2c-.15-3.07-.14-6.65-.24-10.5,0-.35,0-.71,0-1.07a12,12,0,0,0-.07-1.47V293c0-.09,0-.18,0-.27-.14-4.75-.41-9.73-.73-14.68-.1-1.54-.21-3.08-.33-4.6,0-.53-.08-1.06-.13-1.59-.08-1-.16-2-.25-2.94-.71-7.61-1.66-14.38-2.92-18.66-2-7-6.59-11.52-10.72-14.85l-3-2.3A19.15,19.15,0,0,1,471,231.8c-3.85-1.65-5.18-2.82-5.86-2.38C456.22,235.59,449.81,254.49,451.47,275.26Z"/><path class="cls-9" d="M518,410.57s.76,12.31,3.15,12.49c.31,0,12.07,0,12.07,0l15-.09s-.1-3.62-4.49-4.38S532,414.76,529.36,409C526.56,402.86,518,410.57,518,410.57Z"/><path class="cls-3" d="M514.86,411.37s2.91,2.23,8.82,2.52a23.62,23.62,0,0,0,4.14-.17,19.7,19.7,0,0,0,5.3-1.35l15.93-66.86s-17.26-15.08-26.26-5.71a15.93,15.93,0,0,0-3,6.11C514,364.35,514.86,411.37,514.86,411.37Z"/><path class="cls-2" d="M476.6,262.35s11.17,40.91,23.93,45.9a11.1,11.1,0,0,1-.29-2c-.15-3.07-.14-6.65-.24-10.5,0-.35,0-.71,0-1.07a12,12,0,0,0-.07-1.47V293c0-.09,0-.18,0-.27-.14-4.75-.41-9.73-.73-14.68-.1-1.54-.21-3.08-.33-4.6C493.2,266.66,485.58,261.78,476.6,262.35Z"/><path class="cls-11" d="M543.62,278.11s4.87.37,6.12,0,7.13-3.88,9.25-3.13,7.51,6.26,6.13,8.76a7.05,7.05,0,0,1-4.81-2.32c-2.32-2.37-4.82-.75-4.57-.43s3.88,1.75,3.25,2.37-5.37.5-6.5-.25-9.51.19-9.51.19Z"/><path class="cls-8" d="M476.6,240.78s30.26,25.79,38.22,28.28S550.93,277,550.93,277s.77,6.66-1.87,9.17c0,0-36.15-2.1-40.66-3.05s-38-18.34-40.78-19.65S465.31,238.65,476.6,240.78Z"/><path class="cls-8" d="M460.53,206.86V207a1,1,0,0,0,.47.94.53.53,0,0,0,.3.09h38.36c.42,0,.77-.47.77-1v-.15c0-.57-.35-1-.77-1l-8.57-1.1a15.93,15.93,0,0,0-10.61-13.34h0a13.9,13.9,0,0,0-4.29-.67c-7.88,0-14.32,6.5-15,14.79,0,.09,0,.19,0,.29l-.16.12A1.06,1.06,0,0,0,460.53,206.86Z"/><path class="cls-2" d="M473.49,205.51c-2.86-15.13,6.66-14.16,7-14.12a13.9,13.9,0,0,0-4.29-.67c-7.88,0-14.32,6.5-15,14.79Z"/><path class="cls-1" d="M385.48,41.16a1.28,1.28,0,0,1-.66-2.37s.68-.41,1.93-1.11A1.28,1.28,0,0,1,388,39.91c-1.21.68-1.86,1.07-1.87,1.07A1.28,1.28,0,0,1,385.48,41.16Z"/><path class="cls-1" d="M714.77,201.29h0a1.28,1.28,0,0,1-1.27-1.29v-.82c0-1.17,0-2.37,0-3.57a1.28,1.28,0,1,1,2.55-.06c0,1.22,0,2.44,0,3.63V200A1.29,1.29,0,0,1,714.77,201.29Zm-.2-8.86a1.28,1.28,0,0,1-1.28-1.22c-.07-1.45-.16-2.93-.27-4.4a1.28,1.28,0,0,1,2.56-.18c.1,1.49.19,3,.27,4.45a1.28,1.28,0,0,1-1.22,1.34Zm-.64-8.84a1.28,1.28,0,0,1-1.27-1.16c-.14-1.45-.3-2.93-.47-4.38a1.28,1.28,0,0,1,2.54-.3c.17,1.47.33,3,.47,4.43a1.28,1.28,0,0,1-1.15,1.4Zm-1-8.8a1.28,1.28,0,0,1-1.26-1.11c-.21-1.44-.43-2.91-.66-4.35a1.28,1.28,0,1,1,2.52-.41c.24,1.46.46,2.94.67,4.41a1.27,1.27,0,0,1-1.09,1.44ZM711.47,166a1.27,1.27,0,0,1-1.25-1c-.27-1.44-.55-2.89-.85-4.32a1.28,1.28,0,0,1,2.51-.52c.3,1.45.58,2.92.85,4.37a1.28,1.28,0,0,1-1,1.49A1,1,0,0,1,711.47,166Zm-1.79-8.67a1.28,1.28,0,0,1-1.25-1c-.33-1.42-.67-2.86-1-4.28a1.27,1.27,0,0,1,.92-1.55,1.28,1.28,0,0,1,1.56.92c.36,1.44.71,2.89,1,4.34a1.27,1.27,0,0,1-1,1.53A1.33,1.33,0,0,1,709.68,157.37Zm-2.17-8.58a1.28,1.28,0,0,1-1.24-.94c-.39-1.41-.8-2.83-1.22-4.23a1.28,1.28,0,1,1,2.45-.73c.43,1.41.84,2.85,1.24,4.28a1.27,1.27,0,0,1-.89,1.57A1.4,1.4,0,0,1,707.51,148.79ZM705,140.31a1.28,1.28,0,0,1-1.22-.88c-.45-1.39-.92-2.79-1.41-4.17a1.28,1.28,0,0,1,2.42-.85c.49,1.4,1,2.82,1.42,4.22a1.28,1.28,0,0,1-.82,1.62A1.32,1.32,0,0,1,705,140.31ZM702,132a1.28,1.28,0,0,1-1.2-.83c-.51-1.36-1-2.74-1.59-4.09a1.28,1.28,0,1,1,2.37-1c.56,1.37,1.1,2.77,1.62,4.15a1.28,1.28,0,0,1-.75,1.65A1.19,1.19,0,0,1,702,132Zm-3.3-8.21a1.29,1.29,0,0,1-1.18-.77c-.58-1.35-1.18-2.7-1.78-4a1.28,1.28,0,1,1,2.33-1.06c.61,1.33,1.22,2.7,1.8,4.07a1.28,1.28,0,0,1-.67,1.68A1.24,1.24,0,0,1,698.73,123.74Zm-3.69-8a1.29,1.29,0,0,1-1.15-.72c-.63-1.31-1.3-2.64-2-3.93a1.28,1.28,0,0,1,2.28-1.18c.68,1.32,1.35,2.66,2,4a1.28,1.28,0,0,1-.59,1.71A1.39,1.39,0,0,1,695,115.7ZM691,107.83a1.28,1.28,0,0,1-1.12-.66c-.7-1.29-1.43-2.57-2.16-3.83a1.28,1.28,0,0,1,2.22-1.28c.74,1.27,1.47,2.58,2.19,3.88a1.29,1.29,0,0,1-.51,1.74A1.38,1.38,0,0,1,691,107.83Zm-4.43-7.66a1.26,1.26,0,0,1-1.09-.61c-.76-1.24-1.55-2.49-2.34-3.72a1.26,1.26,0,0,1,.38-1.76,1.27,1.27,0,0,1,1.77.38c.8,1.24,1.6,2.51,2.37,3.77a1.28,1.28,0,0,1-.42,1.76A1.35,1.35,0,0,1,686.55,100.17Zm-4.8-7.43a1.25,1.25,0,0,1-1.06-.56c-.83-1.2-1.67-2.41-2.52-3.59a1.28,1.28,0,1,1,2.08-1.5c.86,1.2,1.72,2.43,2.55,3.65a1.28,1.28,0,0,1-.33,1.78A1.32,1.32,0,0,1,681.75,92.74Zm-5.17-7.18a1.28,1.28,0,0,1-1-.51c-.88-1.16-1.78-2.33-2.69-3.47a1.28,1.28,0,1,1,2-1.59c.92,1.16,1.84,2.34,2.73,3.52a1.27,1.27,0,0,1-.25,1.79A1.3,1.3,0,0,1,676.58,85.56Zm-5.51-6.92a1.27,1.27,0,0,1-1-.46c-.93-1.12-1.9-2.24-2.86-3.33a1.28,1.28,0,1,1,1.92-1.69c1,1.11,2,2.25,2.9,3.38a1.28,1.28,0,0,1-1,2.1ZM665.22,72a1.28,1.28,0,0,1-.94-.42c-1-1.06-2-2.13-3-3.18a1.28,1.28,0,0,1,1.84-1.79c1,1.07,2.06,2.16,3.06,3.24a1.28,1.28,0,0,1-.94,2.15Zm-6.16-6.35a1.23,1.23,0,0,1-.89-.37c-1-1-2.11-2-3.18-3a1.28,1.28,0,1,1,1.75-1.86c1.08,1,2.17,2,3.22,3.08a1.28,1.28,0,0,1-.9,2.19Zm-6.46-6a1.26,1.26,0,0,1-.85-.33c-1.09-1-2.21-1.94-3.32-2.88a1.28,1.28,0,0,1,1.66-1.95c1.12.95,2.25,1.94,3.36,2.92a1.28,1.28,0,0,1-.85,2.24Zm-6.74-5.73a1.29,1.29,0,0,1-.81-.28c-1.13-.92-2.29-1.83-3.44-2.73a1.28,1.28,0,1,1,1.56-2c1.17.9,2.35,1.83,3.49,2.76a1.28,1.28,0,0,1-.8,2.27Zm-7-5.41a1.25,1.25,0,0,1-.75-.25c-1.18-.86-2.38-1.72-3.57-2.56a1.28,1.28,0,0,1,1.47-2.1c1.21.85,2.43,1.73,3.62,2.6a1.28,1.28,0,0,1-.77,2.31Zm-7.23-5.08a1.22,1.22,0,0,1-.71-.22c-1.21-.81-2.45-1.62-3.68-2.41a1.28,1.28,0,1,1,1.38-2.15c1.24.79,2.5,1.61,3.72,2.44a1.28,1.28,0,0,1-.71,2.34Zm-7.46-4.77a1.34,1.34,0,0,1-.66-.18c-1.25-.76-2.52-1.52-3.78-2.25A1.28,1.28,0,1,1,621,34c1.27.74,2.56,1.5,3.82,2.27a1.28,1.28,0,0,1,.43,1.76A1.26,1.26,0,0,1,624.16,38.62ZM391.27,38a1.28,1.28,0,0,1-.59-2.42c1.28-.66,2.61-1.34,4-2a1.28,1.28,0,1,1,1.14,2.3c-1.34.66-2.66,1.33-3.93,2A1.26,1.26,0,0,1,391.27,38Zm225.25-3.8a1.25,1.25,0,0,1-.62-.16c-1.29-.71-2.59-1.42-3.87-2.09a1.28,1.28,0,0,1,1.19-2.27c1.3.69,2.62,1.4,3.92,2.12a1.28,1.28,0,0,1-.62,2.4ZM399.21,34a1.28,1.28,0,0,1-.55-2.44c1.33-.62,2.69-1.25,4-1.86a1.28,1.28,0,1,1,1.06,2.33c-1.35.61-2.69,1.23-4,1.85A1.29,1.29,0,0,1,399.21,34Zm8.07-3.64a1.28,1.28,0,0,1-.5-2.45c1.35-.59,2.73-1.17,4.09-1.73a1.28,1.28,0,1,1,1,2.36c-1.35.56-2.72,1.14-4.06,1.72A1.32,1.32,0,0,1,407.28,30.4Zm201.41-.35a1.17,1.17,0,0,1-.57-.14c-1.32-.65-2.64-1.3-4-1.93a1.28,1.28,0,0,1,1.1-2.31c1.33.63,2.68,1.29,4,2a1.28,1.28,0,0,1-.57,2.42ZM415.47,27a1.28,1.28,0,0,1-.47-2.47c1.38-.54,2.78-1.08,4.15-1.59a1.28,1.28,0,1,1,.9,2.39c-1.36.51-2.74,1-4.11,1.58A1.12,1.12,0,0,1,415.47,27Zm185.23-.77a1.4,1.4,0,0,1-.53-.11c-1.33-.6-2.68-1.2-4-1.77a1.28,1.28,0,0,1,1-2.35c1.36.58,2.74,1.18,4.08,1.78a1.28,1.28,0,0,1-.52,2.45ZM423.76,23.91a1.28,1.28,0,0,1-.44-2.49l4.2-1.47a1.28,1.28,0,1,1,.83,2.42c-1.38.47-2.78,1-4.16,1.46A1.31,1.31,0,0,1,423.76,23.91Zm168.79-1.12a1.31,1.31,0,0,1-.47-.09c-1.36-.54-2.74-1.08-4.1-1.59a1.28,1.28,0,1,1,.9-2.4c1.38.52,2.78,1.06,4.15,1.61a1.28,1.28,0,0,1-.48,2.47ZM432.13,21a1.28,1.28,0,0,1-.39-2.49c1.41-.46,2.83-.91,4.24-1.34a1.28,1.28,0,1,1,.75,2.44c-1.39.43-2.81.88-4.2,1.33A1.34,1.34,0,0,1,432.13,21Zm152.14-1.36a1.23,1.23,0,0,1-.42-.07c-1.39-.49-2.79-1-4.17-1.42a1.28,1.28,0,1,1,.8-2.43c1.39.46,2.81.94,4.21,1.43a1.28,1.28,0,0,1-.42,2.49ZM440.6,18.44a1.28,1.28,0,0,1-.36-2.51c1.42-.41,2.86-.82,4.28-1.21a1.29,1.29,0,0,1,1.57.9,1.27,1.27,0,0,1-.9,1.57L441,18.39A1.48,1.48,0,0,1,440.6,18.44Zm135.26-1.52a1.18,1.18,0,0,1-.37-.05c-1.39-.42-2.81-.84-4.22-1.24a1.28,1.28,0,1,1,.69-2.46c1.43.4,2.87.82,4.27,1.25a1.28,1.28,0,0,1-.37,2.5ZM449.13,16.1a1.26,1.26,0,0,1-1.23-1,1.27,1.27,0,0,1,.92-1.56c1.42-.37,2.87-.73,4.31-1.07a1.28,1.28,0,0,1,.6,2.48l-4.28,1.07A1.12,1.12,0,0,1,449.13,16.1Zm118.21-1.57a1.22,1.22,0,0,1-.32,0c-1.42-.37-2.85-.72-4.27-1.05a1.28,1.28,0,1,1,.59-2.49c1.43.33,2.89.69,4.32,1.06a1.28,1.28,0,0,1-.32,2.52ZM457.74,14a1.28,1.28,0,0,1-.28-2.53c1.46-.32,2.92-.64,4.35-.93a1.28,1.28,0,0,1,.52,2.5c-1.42.29-2.87.61-4.31.93A1.33,1.33,0,0,1,457.74,14Zm101-1.53a1.24,1.24,0,0,1-.27,0c-1.42-.3-2.87-.59-4.31-.87a1.28,1.28,0,1,1,.48-2.51c1.46.28,2.93.57,4.37.88a1.28,1.28,0,0,1-.27,2.53Zm-92.32-.26a1.28,1.28,0,0,1-.24-2.54c1.46-.28,2.93-.54,4.38-.79a1.28,1.28,0,1,1,.43,2.52c-1.43.25-2.89.51-4.33.78ZM550,10.84l-.22,0c-1.44-.25-2.9-.48-4.34-.69a1.28,1.28,0,0,1,.38-2.54c1.45.22,2.93.46,4.39.7a1.28,1.28,0,0,1-.21,2.55Zm-74.91-.11a1.28,1.28,0,0,1-.19-2.54c1.46-.23,2.94-.45,4.4-.65a1.28,1.28,0,0,1,.35,2.54c-1.44.19-2.91.41-4.36.64Zm66.16-1.2h-.17c-1.44-.18-2.91-.35-4.37-.51A1.28,1.28,0,0,1,537,6.47c1.47.15,3,.33,4.42.51a1.28,1.28,0,0,1-.16,2.55Zm-57.39,0A1.28,1.28,0,0,1,483.75,7c1.47-.18,3-.34,4.42-.49A1.28,1.28,0,1,1,488.43,9c-1.44.15-2.91.32-4.38.49Zm8.8-.9a1.28,1.28,0,0,1-.1-2.56c1.49-.12,3-.24,4.43-.33a1.28,1.28,0,1,1,.17,2.55l-4.39.33Zm39.79,0h-.12c-1.44-.13-2.92-.24-4.38-.34a1.28,1.28,0,0,1,.17-2.55c1.48.09,3,.21,4.43.34a1.28,1.28,0,0,1-.1,2.55ZM501.54,8a1.28,1.28,0,0,1-.06-2.56c1.48-.07,3-.13,4.44-.17a1.27,1.27,0,0,1,1.32,1.24A1.28,1.28,0,0,1,506,7.86c-1.45,0-2.93.1-4.4.17Zm22.12,0h-.07c-1.45-.07-2.93-.12-4.39-.16a1.28,1.28,0,1,1,.07-2.56c1.47,0,3,.1,4.44.16A1.28,1.28,0,0,1,523.66,8Zm-13.28-.23a1.28,1.28,0,0,1,0-2.56c1.48,0,3,0,4.45,0a1.28,1.28,0,0,1,0,2.56h0c-1.48,0-2.94,0-4.4,0Z"/><path class="cls-1" d="M714.54,207.85h-.11a1.28,1.28,0,0,1-1.16-1.38s.06-.76.12-2.13a1.28,1.28,0,1,1,2.55.1c-.06,1.44-.12,2.21-.12,2.25A1.29,1.29,0,0,1,714.54,207.85Z"/><path class="cls-1" d="M234.22,137.83h-.12l-1.73-.2a1,1,0,1,1,.22-2l1.74.19a1,1,0,0,1,.9,1.14A1,1,0,0,1,234.22,137.83Z"/><path class="cls-1" d="M43.92,269.8h-.14a1,1,0,0,1-.88-1.15c.15-1.13.32-2.31.51-3.5a1,1,0,0,1,2,.31c-.18,1.17-.35,2.34-.49,3.46A1,1,0,0,1,43.92,269.8ZM45,262.85l-.18,0a1,1,0,0,1-.83-1.18c.21-1.15.43-2.32.66-3.47a1,1,0,1,1,2,.4c-.23,1.14-.45,2.3-.65,3.43A1,1,0,0,1,45,262.85ZM46.38,256a.83.83,0,0,1-.22,0,1,1,0,0,1-.77-1.22c.25-1.13.52-2.29.8-3.43a1,1,0,1,1,2,.48c-.28,1.13-.54,2.27-.79,3.4A1,1,0,0,1,46.38,256ZM48,249.15a.82.82,0,0,1-.26,0,1,1,0,0,1-.72-1.24c.3-1.13.61-2.28.93-3.4a1,1,0,0,1,2,.56c-.32,1.11-.63,2.24-.92,3.36A1,1,0,0,1,48,249.15ZM50,242.41a1,1,0,0,1-.3,0,1,1,0,0,1-.68-1.27c.35-1.12.71-2.25,1.07-3.36a1,1,0,0,1,1.94.63c-.36,1.1-.72,2.22-1.06,3.32A1,1,0,0,1,50,242.41Zm2.19-6.67a1,1,0,0,1-.34-.05,1,1,0,0,1-.62-1.3c.38-1.11.79-2.22,1.2-3.32a1,1,0,0,1,1.31-.6,1,1,0,0,1,.6,1.32c-.41,1.08-.81,2.18-1.19,3.27A1,1,0,0,1,52.16,235.74Zm2.45-6.56a1.21,1.21,0,0,1-.37-.07,1,1,0,0,1-.58-1.33c.44-1.09.88-2.18,1.34-3.26a1,1,0,0,1,1.33-.55,1,1,0,0,1,.55,1.34c-.45,1.06-.89,2.15-1.32,3.22A1,1,0,0,1,54.61,229.18Zm2.72-6.46a1.06,1.06,0,0,1-.42-.09,1,1,0,0,1-.51-1.35c.47-1.07,1-2.15,1.47-3.2a1,1,0,0,1,1.35-.49,1,1,0,0,1,.49,1.36c-.49,1-1,2.1-1.45,3.16A1,1,0,0,1,57.33,222.72Zm3-6.34a1.06,1.06,0,0,1-.45-.11,1,1,0,0,1-.46-1.37c.52-1.05,1.06-2.11,1.61-3.14a1,1,0,1,1,1.8,1c-.53,1-1.07,2.06-1.58,3.1A1,1,0,0,1,60.31,216.38Zm3.26-6.21a1,1,0,0,1-.49-.12,1,1,0,0,1-.4-1.39c.57-1,1.15-2.06,1.74-3.07a1,1,0,0,1,1.76,1c-.58,1-1.15,2-1.72,3A1,1,0,0,1,63.57,210.17Zm3.53-6a1,1,0,0,1-.87-1.55c.62-1,1.25-2,1.88-3a1,1,0,1,1,1.71,1.1c-.62,1-1.24,2-1.85,2.95A1,1,0,0,1,67.1,204.12Zm3.8-5.88a1,1,0,0,1-.57-.18,1,1,0,0,1-.27-1.41c.67-1,1.35-2,2-2.89a1,1,0,1,1,1.66,1.18c-.67.93-1.34,1.89-2,2.85A1,1,0,0,1,70.9,198.24ZM75,192.55a1,1,0,0,1-.81-1.64c.71-.93,1.43-1.87,2.16-2.79a1,1,0,0,1,1.6,1.27c-.72.91-1.44,1.83-2.13,2.75A1,1,0,0,1,75,192.55Zm4.36-5.49a1.1,1.1,0,0,1-.66-.23,1,1,0,0,1-.12-1.44c.74-.9,1.52-1.8,2.29-2.68a1,1,0,1,1,1.53,1.35c-.76.87-1.52,1.75-2.26,2.64A1,1,0,0,1,79.34,187.06ZM84,181.8a1,1,0,0,1-.75-1.71c.8-.86,1.62-1.72,2.43-2.56A1,1,0,1,1,87.1,179c-.8.82-1.6,1.67-2.39,2.52A1,1,0,0,1,84,181.8Zm4.89-5a1,1,0,0,1-.73-.31,1,1,0,0,1,0-1.44c.84-.82,1.7-1.64,2.55-2.43a1,1,0,0,1,1.39,1.5c-.84.78-1.69,1.58-2.52,2.39A1,1,0,0,1,88.85,176.79ZM94,172a1,1,0,0,1-.67-1.79c.87-.77,1.78-1.54,2.68-2.29a1,1,0,0,1,1.43.13,1,1,0,0,1-.13,1.44c-.89.73-1.78,1.49-2.64,2.25A1,1,0,0,1,94,172Zm5.38-4.48a1,1,0,0,1-.8-.39,1,1,0,0,1,.17-1.43c.92-.73,1.86-1.45,2.8-2.15a1,1,0,0,1,1.22,1.64c-.93.69-1.85,1.4-2.76,2.11A1,1,0,0,1,99.37,167.56Zm5.61-4.19a1,1,0,0,1-.59-1.85c1-.68,1.94-1.35,2.91-2a1,1,0,1,1,1.13,1.69c-1,.64-1.92,1.3-2.86,2A1.07,1.07,0,0,1,105,163.37Zm5.82-3.88a1,1,0,0,1-.54-1.88c1-.62,2-1.24,3-1.85a1,1,0,0,1,1,1.76c-1,.59-2,1.2-3,1.81A1,1,0,0,1,110.8,159.49Zm6-3.58a1,1,0,0,1-.5-1.91c1-.57,2.06-1.13,3.1-1.68a1,1,0,0,1,1.37.43,1,1,0,0,1-.42,1.37c-1,.54-2.05,1.1-3.05,1.66A1,1,0,0,1,116.82,155.91Zm6.19-3.26a1,1,0,0,1-.46-1.94c1-.51,2.11-1,3.18-1.52a1,1,0,0,1,1.36.49,1,1,0,0,1-.5,1.36c-1,.49-2.1,1-3.13,1.5A1,1,0,0,1,123,152.65Zm6.34-3a1,1,0,0,1-.4-2c1.07-.47,2.16-.93,3.24-1.37a1,1,0,1,1,.77,1.89c-1.06.44-2.14.89-3.2,1.35A1,1,0,0,1,129.35,149.7Zm6.48-2.64a1,1,0,0,1-.36-2c1.09-.41,2.2-.82,3.31-1.21a1,1,0,0,1,.68,1.92c-1.09.39-2.19.79-3.26,1.2A1.21,1.21,0,0,1,135.83,147.06Zm6.6-2.34a1,1,0,0,1-1-.7,1,1,0,0,1,.65-1.29c1.12-.36,2.25-.72,3.36-1.06a1,1,0,0,1,.6,2c-1.1.34-2.22.69-3.32,1A1.19,1.19,0,0,1,142.43,144.72Zm6.7-2a1,1,0,0,1-1-.75,1,1,0,0,1,.7-1.25c1.12-.32,2.27-.63,3.4-.92a1,1,0,0,1,.51,2c-1.12.28-2.25.59-3.36.9A1.26,1.26,0,0,1,149.13,142.69Zm6.77-1.75a1,1,0,0,1-.23-2c1.14-.27,2.29-.53,3.44-.77a1,1,0,1,1,.42,2c-1.13.25-2.27.5-3.39.77Zm6.85-1.46a1,1,0,0,1-.19-2c1.14-.22,2.3-.44,3.46-.64a1,1,0,0,1,1.18.83,1,1,0,0,1-.83,1.18c-1.15.2-2.3.41-3.43.63Zm6.89-1.2a1,1,0,0,1-.15-2l3.48-.5a1,1,0,0,1,.28,2l-3.45.5Zm6.94-.94a1,1,0,0,1-.12-2l3.5-.38a1,1,0,0,1,1.11.92,1,1,0,0,1-.91,1.11c-1.15.12-2.32.24-3.46.38Zm52.42-.07h-.1l-3.48-.32a1,1,0,1,1,.18-2l3.5.32a1,1,0,0,1-.1,2Zm-7-.61h-.08c-1.15-.09-2.32-.17-3.48-.24a1,1,0,0,1,.13-2l3.5.24a1,1,0,0,1-.07,2Zm-38.48,0a1,1,0,0,1-.08-2l3.51-.26a1,1,0,0,1,1.08,1,1,1,0,0,1-1,1.09c-1.16.07-2.33.16-3.47.26Zm31.49-.43H215c-1.16-.06-2.33-.11-3.49-.15a1,1,0,0,1-1-1.06,1,1,0,0,1,1.06-1l3.51.15a1,1,0,0,1,1,1.07A1,1,0,0,1,215,136.22Zm-24.5,0a1,1,0,0,1-.05-2L194,134a1,1,0,1,1,.07,2l-3.48.15ZM208,136h0l-3.48-.06a1,1,0,1,1,0-2l3.51.06a1,1,0,0,1,0,2Zm-10.51,0a1,1,0,0,1-1-1,1,1,0,0,1,1-1c1.16,0,2.34,0,3.52,0h0a1,1,0,0,1,0,2l-3.49,0Z"/><path class="cls-1" d="M43.37,275h-.06a1,1,0,0,1-1-1.08s0-.64.15-1.78a1,1,0,1,1,2,.2c-.1,1.09-.14,1.69-.14,1.7A1,1,0,0,1,43.37,275Z"/><path class="cls-1" d="M749.16,466.07H1A1,1,0,0,1,.18,465h0A1,1,0,0,1,1,463.86H749.16A1,1,0,0,1,750,465h0A1,1,0,0,1,749.16,466.07Z"/></g></svg>