<svg id="Calque_1" data-name="Calque 1" xmlns="http://www.w3.org/2000/svg" viewBox="0 0 116.95 138.06"><defs><style>.cls-1{fill:#fff;}.cls-2{fill:none;}.cls-3{fill:#792E88;}</style></defs><path class="cls-1" d="M31.46,38.48C8.43,58,6.64,81.85,15.13,101c8.61,19.41,30,31.6,51.07,29.24,25-2.8,37.79-17,44.6-49.51,4.46,15-5.26,45.36-33.8,56.19-27.25,10.35-58.23-2.33-69.86-28.69S6,51.15,31.46,38.48Z" transform="translate(-2.39 -2.45)"/><path class="cls-1" d="M55.78,77.73l-5.33-6c1.1-1.82,2.47-4.06,4.55-7.48H34.59c6-8.59,13.2-13.87,22.95-14.76a15.73,15.73,0,0,0,12.27-7.05c11.67-16,26.08-29,44.08-37.66,1.56-.75,3.19-1.35,5.45-2.3-1.44,10.33-4.27,19.65-9.4,27.82C103.5,40.51,96.06,50.15,88.78,59.84c-1.83,2.44-2.94,4.23-2.34,7.6,1.57,8.85-.13,17.2-6.15,24.28a15.67,15.67,0,0,1-1.69,1.67c-.21.17-.6.12-.71.14q-2.56-8.18-5.1-16.33l-1.43-.76C67.47,83,62.92,83.71,57.8,79.13ZM59.24,75c5.54,5.39,6.18,5.42,11.21,1,2.16-1.91,4.32-3.82,6.4-5.82C91.49,56,104.77,40.88,112.56,21.76c1.76-4.31,2.89-8.87,4.31-13.32L115,7.34Z" transform="translate(-2.39 -2.45)"/><path class="cls-1" d="M47,84.88,54.23,90l-19.9,18-.71-.61Z" transform="translate(-2.39 -2.45)"/><path class="cls-1" d="M55.78,77.73l2,1.4L62.89,85l-4.32,3.47C56,86.63,53.8,84.8,51.35,83.34c-3.52-2.09-4.4-4.39-.76-7.92Z" transform="translate(-2.39 -2.45)"/><path class="cls-2" d="M87.22,35.41a2.28,2.28,0,0,0-.52,1.78,6.41,6.41,0,0,0,1.49,2.64l3.36-4.09C89.68,34.3,88.23,34.18,87.22,35.41Z" transform="translate(-2.39 -2.45)"/><path class="cls-3" d="M83.24,51.62a2.54,2.54,0,0,0,2.17-.9,2.18,2.18,0,0,0,.45-2.1,11.3,11.3,0,0,0-2.15-3.35c-1.28,1.55-2.56,3.11-3.85,4.66l.25.23A5.49,5.49,0,0,0,83.24,51.62Z" transform="translate(-2.39 -2.45)"/><path class="cls-3" d="M115,7.34q-9,10.94-18,21.87l1.32,1.08-2.17,2.65q4.84,4.8,2.76,10.64L93.39,41.5a4.56,4.56,0,0,0-1.59-5.57l-.25-.19-3.36,4.09c.09.12.17.23.28.36A32.39,32.39,0,0,1,92.2,45.5,7.87,7.87,0,0,1,93,49.81a7.52,7.52,0,0,1-1.73,4.24,8.83,8.83,0,0,1-5.69,3.15c-2.37.38-4.91-.34-7.6-2.15l-2.63,3.21-1.4-1.14L59.24,75c5.54,5.39,6.18,5.42,11.21,1,2.16-1.91,4.32-3.82,6.4-5.82C91.49,56,104.77,40.88,112.56,21.76c1.76-4.31,2.89-8.87,4.31-13.32Z" transform="translate(-2.39 -2.45)"/><path class="cls-3" d="M86.7,37.19a2.28,2.28,0,0,1,.52-1.78c1-1.23,2.46-1.11,4.33.33,1.8-2.18,3.59-4.36,5.39-6.53l-1.4-1.15-2.2,2.69A9.33,9.33,0,0,0,87,29.22a8.3,8.3,0,0,0-5.48,3.08,7.76,7.76,0,0,0-1.84,5.11q0,2.84,4,7.79l0,.07c1.49-1.82,3-3.63,4.48-5.44A6.41,6.41,0,0,1,86.7,37.19Z" transform="translate(-2.39 -2.45)"/><path class="cls-3" d="M78.19,43.55l-5.55-2.76q-3,6.36,2.61,12L72.62,56l1.32,1.09,5.92-7.19C77.69,48,77.12,45.9,78.19,43.55Z" transform="translate(-2.39 -2.45)"/><path class="cls-1" d="M91.8,35.93a4.56,4.56,0,0,1,1.59,5.57l5.46,2.08q2.09-5.84-2.76-10.64l2.17-2.65-1.32-1.08c-1.8,2.17-3.59,4.35-5.39,6.53Z" transform="translate(-2.39 -2.45)"/><path class="cls-1" d="M78,55.05c2.69,1.81,5.23,2.53,7.6,2.15a8.83,8.83,0,0,0,5.69-3.15A7.52,7.52,0,0,0,93,49.81a7.87,7.87,0,0,0-.79-4.31,32.39,32.39,0,0,0-3.73-5.31c-.11-.13-.19-.24-.28-.36-1.49,1.81-3,3.62-4.48,5.44a11.3,11.3,0,0,1,2.15,3.35,2.18,2.18,0,0,1-.45,2.1,2.54,2.54,0,0,1-2.17.9,5.49,5.49,0,0,1-3.13-1.46l-.25-.23-5.92,7.19,1.4,1.14Z" transform="translate(-2.39 -2.45)"/></svg>