<svg id="Layer_1" data-name="Layer 1" xmlns="http://www.w3.org/2000/svg" viewBox="0 0 1004.84 193.19"><defs><style>.cls-1{fill:#fff;}</style></defs><title>logo</title><path class="cls-1" d="M979.13,85v30.17c0,10.33,6.56,13,13.12,8l7.87,16.23a26.5,26.5,0,0,1-17,5.91c-17.39,0-24.93-12.47-24.93-31.49V85H945V70.31a5,5,0,0,1,5-5h8.1V40.7a7.6,7.6,0,0,1,5.33-7.25l10.36-3.24a4.09,4.09,0,0,1,5.3,3.9V65.29h15.93a5.06,5.06,0,0,1,5.06,5.06V85Z"/><path class="cls-1" d="M292.32,112.66l11.92,8.26a3.16,3.16,0,0,1,.8,4.4c-8.93,12.66-22.49,20-38.92,20-32.31,0-53.79-26.4-53.79-59s21.48-59,53.79-59c15.49,0,28.43,6.52,37.34,17.86A5.48,5.48,0,0,1,302.3,53l-9.63,6.67a3,3,0,0,1-4.12-.72c-5.49-7.44-12.48-12-22.43-12-19.35,0-32.8,17.55-32.8,39.36s13.45,39.36,32.8,39.36c10.1,0,17.16-4.72,22.69-12.37A2.55,2.55,0,0,1,292.32,112.66Z"/><path class="cls-1" d="M413.7,86.28c0,32.64-21.48,59-53.78,59s-53.79-26.4-53.79-59,21.48-59,53.79-59S413.7,53.65,413.7,86.28Zm-21,0c0-21.81-13.44-39.36-32.79-39.36s-32.8,17.55-32.8,39.36,13.45,39.36,32.8,39.36S392.71,108.09,392.71,86.28Z"/><path class="cls-1" d="M508.82,86.28c0,30.5-19.68,57.72-59.2,57.72H427.11a4.88,4.88,0,0,1-4.88-4.88V33a4.48,4.48,0,0,1,4.48-4.48h22.91C490.12,28.56,508.82,55.78,508.82,86.28Zm-21,0c0-19.35-13.78-38-34.44-38H443.22v76.09h10.17C474.05,124.33,487.83,105.63,487.83,86.28Z"/><path class="cls-1" d="M614.42,101.53,636.07,144H612.45l-17.87-38h-11v38h-21V35.12a6.57,6.57,0,0,1,6.57-6.56h22c31.15,0,44.93,18,44.93,38.7A38,38,0,0,1,614.42,101.53ZM583.59,86.28h11.32c11.31,0,20.17-8.36,20.17-19,0-12-8.86-19-20.17-19H583.59Z"/><path class="cls-1" d="M718.06,104.65c0,22.46-17.22,40.67-39.36,40.67-23.28,0-39.35-18.21-39.35-40.67S654.43,64,678.7,64C700.84,64,718.06,82.18,718.06,104.65Zm-21,0c0-11.65-8-21-18.37-21s-18.36,9.34-18.36,21,8,21,18.36,21S697.07,116.29,697.07,104.65Z"/><path class="cls-1" d="M781.3,122.12l5.31,4.86a6,6,0,0,1,.15,8.74,35.61,35.61,0,0,1-23.93,9.6c-24.76,0-40.18-18.21-40.18-40.67S738.07,64,762.83,64a35.56,35.56,0,0,1,23.93,9.6,6,6,0,0,1-.15,8.73l-5.31,4.87a6,6,0,0,1-7.74.31,17,17,0,0,0-10.73-3.83c-10.66,0-19.19,9.51-19.19,21s8.53,21,19.19,21a17,17,0,0,0,10.73-3.84A6,6,0,0,1,781.3,122.12Z"/><path class="cls-1" d="M848.59,144l-20.82-29.35-6.07,6.72V144h-21V32.5a6.57,6.57,0,0,1,6.56-6.57h7.86a6.57,6.57,0,0,1,6.57,6.57V93.83l23.19-26.55a5.78,5.78,0,0,1,4.37-2h22.29l-30.5,34.27L874.18,144Z"/><path class="cls-1" d="M939.55,112.52H891.4c2.13,7.71,8,13.12,17.05,13.12,6.07,0,12-3.45,15.58-7.38l13.77,12.63c-6.23,8.52-17.54,14.43-29.35,14.43-23.45,0-38.86-18.21-38.86-40.67S883.53,64,907.47,64c13.12,0,35.58,8.69,35.58,39.19a53.48,53.48,0,0,1-.45,6.66A3.08,3.08,0,0,1,939.55,112.52ZM891.23,96.78h31c-.66-6.89-5.91-13.12-14.76-13.12C898.45,83.66,893.2,89.07,891.23,96.78Z"/><path class="cls-1" d="M769.05,183.33h-9.24v-26.7h9c5.62,0,8.3,3,8.3,6.72a6.15,6.15,0,0,1-4.78,6.19,6.73,6.73,0,0,1,5.39,6.65C777.69,180.2,774.67,183.33,769.05,183.33Zm-.46-24.45h-6.11v9.55h6.23c3.63,0,5.65-1.83,5.65-4.81S772.45,158.88,768.59,158.88Zm.16,11.77h-6.27v10.43h6.38c3.86,0,6.15-2,6.15-5.16S772.57,170.65,768.75,170.65Z"/><path class="cls-1" d="M795.38,162.47h2.75l-12.38,30.68H783l4-9.93-8.56-20.75h2.94l7.11,17.81Z"/><path class="cls-1" d="M807,156.63h17.54v2.21h-7.41v24.49H814.4V158.84H807Z"/><path class="cls-1" d="M836.06,183.64c-5.92,0-10.24-4.13-10.24-10.74s4.24-10.73,10.24-10.73,9.86,4.35,9.86,9.66a17.41,17.41,0,0,1-.08,2.1h-17.3c.23,4.89,3.63,7.46,7.52,7.46,3.56,0,6-1.88,6.73-4.67h2.83C844.66,180.66,841.3,183.64,836.06,183.64Zm-7.52-11.88h14.67c.11-4.86-3.4-7.3-7.26-7.3S828.84,166.9,828.54,171.76Z"/><path class="cls-1" d="M858,162.17c5.24,0,8.64,2.79,9.59,7.1h-2.86c-.69-3-3.21-4.81-6.73-4.81-4.09,0-7.41,2.79-7.41,8.44s3.32,8.49,7.41,8.49c3.52,0,6-1.8,6.73-4.86h2.86c-1,4.17-4.35,7.11-9.59,7.11-5.88,0-10.12-4.13-10.12-10.74S852.15,162.17,858,162.17Z"/><path class="cls-1" d="M870.87,155.06h2.67v11a7.87,7.87,0,0,1,7.26-3.93c4.62,0,8.33,2.9,8.33,9v12.22h-2.64V171.41c0-4.62-2.52-7-6.34-7s-6.61,2.45-6.61,7.53v11.38h-2.67Z"/><path class="cls-1" d="M909,171.41c0-4.62-2.52-7-6.35-7S896,166.87,896,172v11.38h-2.67V162.47H896V166a7.65,7.65,0,0,1,7.11-3.93c4.74,0,8.48,2.9,8.48,9v12.22H909Z"/><path class="cls-1" d="M925,183.64c-5.88,0-10.35-4.13-10.35-10.74s4.59-10.73,10.43-10.73,10.43,4.08,10.43,10.73S930.89,183.64,925,183.64Zm0-2.33c3.94,0,7.76-2.68,7.76-8.41s-3.74-8.4-7.72-8.4-7.68,2.67-7.68,8.4S921,181.31,925,181.31Z"/><path class="cls-1" d="M949.65,162.17c5.69,0,9.93,4.16,9.93,10.69s-4.24,10.78-9.93,10.78a8.9,8.9,0,0,1-8.29-4.89v14.44h-2.64V162.47h2.64v4.59A8.83,8.83,0,0,1,949.65,162.17Zm-.54,2.33c-4.24,0-7.75,3.21-7.75,8.4s3.51,8.41,7.75,8.41c4.4,0,7.76-3.17,7.76-8.45S953.51,164.5,949.11,164.5Z"/><path class="cls-1" d="M971.84,183.64c-5.92,0-10.24-4.13-10.24-10.74s4.24-10.73,10.24-10.73,9.86,4.35,9.86,9.66a17.41,17.41,0,0,1-.08,2.1h-17.3c.23,4.89,3.63,7.46,7.52,7.46,3.56,0,6-1.88,6.73-4.67h2.83C980.44,180.66,977.08,183.64,971.84,183.64Zm-7.52-11.88H979c.11-4.86-3.4-7.3-7.26-7.3S964.62,166.9,964.32,171.76Z"/><path class="cls-1" d="M984.91,155.06h2.67v16.73l8.41-9.32h3.74l-9.89,10.39,10,10.47h-3.63l-8.6-9.36v9.36h-2.67Z"/><path class="cls-1" d="M126.23,59.39a4.63,4.63,0,0,0-4.79,4.71,4.79,4.79,0,0,0,4.8,5,5,5,0,0,0,4.88-5A4.69,4.69,0,0,0,126.23,59.39Z"/><path class="cls-1" d="M110.61,101.3c.08.45.27.59.72.51a.58.58,0,0,1-.17-.06A1.33,1.33,0,0,1,110.61,101.3Z"/><path class="cls-1" d="M103.75,74.17q-6.54,6.19-13.06,12.42a4.54,4.54,0,0,0-.82,1,1.64,1.64,0,0,0,1.54,2.53,2.28,2.28,0,0,0,1.68-.81l13.17-12.53c.92-.87,1.46-1.84.43-2.91S104.64,73.32,103.75,74.17Z"/><path class="cls-1" d="M133.34,0H61.62A56.53,56.53,0,0,0,5.1,56.52v71.72a56.53,56.53,0,0,0,56.52,56.52h71.72a56.53,56.53,0,0,0,56.52-56.52V56.52A56.53,56.53,0,0,0,133.34,0ZM53.27,88.35c4.08-6.61,8.21-13.2,12.3-19.82a2.47,2.47,0,0,1,2-1.36c5-.33,10.05-.63,15.07-1,3.52-.26,7-.61,10.56-.88.9-.08,1.82,0,3,0-.59.63-1,1-1.39,1.46C87.68,74,80.39,81.1,73.3,88.44a6.69,6.69,0,0,1-5,2.21c-4.51.13-9,.26-13.52.36C52.71,91.05,52.16,90.13,53.27,88.35ZM42.81,124.14a1.9,1.9,0,0,1,.3-2.84q7.37-7.1,14.71-14.21a2.37,2.37,0,0,1,2.6-.78,1.47,1.47,0,0,1,1,1.62,2,2,0,0,1-.74,1.7L45.61,124.1C44.7,125,43.68,125.15,42.81,124.14Zm14,12.45c-1.93,1.87-3.86,3.75-5.77,5.64-.94.93-1.91,1.44-3.06.36-.9-.86-.81-1.92.37-3.07Q59.09,129,69.86,118.62a1.89,1.89,0,0,1,2.31-.59,2,2,0,0,1,1.19,1.74,2.55,2.55,0,0,1-.81,1.57Q64.68,129,56.81,136.59Zm27.46-3.78c-1.1,1.1-2.27,2.12-3.39,3.2q-5.7,5.48-11.36,11a2.85,2.85,0,0,1-2,1.14,1.78,1.78,0,0,1-1.68-1.06,1.71,1.71,0,0,1,.34-2.08c.81-.86,1.72-1.61,2.57-2.43q6.21-6,12.39-12c.16-.15.31-.31.47-.45a1.84,1.84,0,0,1,2.84,0A1.79,1.79,0,0,1,84.27,132.81Zm39.83-22c-.27,3.9-.53,7.81-.69,11.71a2.76,2.76,0,0,1-1.4,2.5q-9.86,6.09-19.67,12.23c-.65.4-1.33.8-2.1.38s-.73-1.24-.7-2c.2-5.36.41-10.72.6-16.07a1.64,1.64,0,0,1,.59-1.25c8-7.45,15.47-15.37,23.24-23,.34-.33.7-.63,1.33-1.2C124.88,100,124.47,105.42,124.1,110.86Zm22.1-53.71a34.44,34.44,0,0,1-6,16.28,24.28,24.28,0,0,1-2.88,3.45L114.78,99.45c-.56.56-1.19,1-1.78,1.58-.23.14-.45.34-.67.5l.43-.15a4.3,4.3,0,0,1-.45.64c-4.4,4.41-8.82,8.8-13.2,13.23-1,1-1.84,1-2.86,0q-10.45-10.5-21-21c-1-1-1.13-1.83-.09-2.87Q92.67,74,110.1,56.63a.35.35,0,0,1,.13-.08,2.12,2.12,0,0,1,.11.21,2.37,2.37,0,0,1,.14-.57A33.16,33.16,0,0,1,131,44.58a26.21,26.21,0,0,1,12.38.52A2.7,2.7,0,0,1,145.31,47,23,23,0,0,1,146.2,57.15Z"/></svg>