<svg id="Calque_1" data-name="Calque 1" xmlns="http://www.w3.org/2000/svg" viewBox="0 0 640.89 138.06"><defs><style>.cls-1{fill:#fff;}.cls-2{fill:transparent;}.cls-3{fill:none;}</style></defs><path class="cls-1" d="M209.67,132.19V48.62c.35-.31.62-.77.87-.76,13.35.58,27-.39,40,2.17,19.14,3.77,32.13,20.44,31.37,41.83-.73,20.58-15.6,37.6-35.89,40.07C234.25,133.36,222.17,132.19,209.67,132.19ZM223,90.49c0,8.77.16,17.55-.07,26.31-.11,4.06,1.42,5.51,5.35,5.13,5-.5,10-.33,14.92-1.23,14.41-2.67,24.44-14.56,25.27-29.38a29.71,29.71,0,0,0-21.91-30.15,73.53,73.53,0,0,0-16.37-2.23c-7.15-.36-7.18-.08-7.19,6.85Q222.92,78.13,223,90.49Z" transform="translate(-1.23 -1.21)"/><path class="cls-1" d="M75.15,114.08c0,5,.18,8.85-.1,12.7a4.55,4.55,0,0,1-2.28,3.11c-29.31,14-64.15-1.06-70.64-30.26C-3.12,76,15.28,50.13,39.8,46.46a59,59,0,0,1,29.57,2.65c4.32,1.57,6.58,3.74,5.87,8.56-.36,2.45-.07,5-.07,8.15C54.53,53.58,35.4,52.46,20,73.18,11.91,84,13.28,100.5,21.88,110.75c6.7,8,15.34,12.11,25.67,12.91C57.68,124.44,66.32,120.46,75.15,114.08Z" transform="translate(-1.23 -1.21)"/><path class="cls-1" d="M118.12,37.24c-23,19.5-24.82,43.37-16.34,62.5,8.62,19.42,30,31.6,51.07,29.24,25-2.79,37.79-17,44.6-49.5,4.46,15-5.26,45.36-33.79,56.19C136.4,146,105.42,133.34,93.8,107,82.11,80.47,92.66,49.91,118.12,37.24Z" transform="translate(-1.23 -1.21)"/><path class="cls-2" d="M223,90.49q0-12.34,0-24.7c0-6.93,0-7.21,7.19-6.85a73.53,73.53,0,0,1,16.37,2.23,29.71,29.71,0,0,1,21.91,30.15c-.83,14.82-10.86,26.71-25.27,29.38-4.88.9-10,.73-14.92,1.23-3.93.38-5.46-1.07-5.35-5.13C223.11,108,223,99.26,223,90.49Z" transform="translate(-1.23 -1.21)"/><path class="cls-1" d="M142.43,76.49c-1.67-1.89-3.34-3.79-5.33-6L141.65,63H121.24c6-8.59,13.21-13.88,23-14.76a15.73,15.73,0,0,0,12.27-7c11.67-16,26.08-29,44.08-37.66,1.56-.75,3.19-1.35,5.45-2.3-1.43,10.33-4.26,19.65-9.4,27.82-6.44,10.24-13.87,19.88-21.16,29.57-1.83,2.43-2.93,4.23-2.33,7.6,1.56,8.85-.14,17.19-6.16,24.28a14.81,14.81,0,0,1-1.69,1.67c-.2.17-.59.12-.71.14L159.44,76,158,75.19c-3.9,6.59-8.45,7.28-13.56,2.7Zm3.46-2.76c5.55,5.39,6.18,5.42,11.22,1,2.16-1.91,4.32-3.83,6.39-5.83,14.64-14.09,27.93-29.21,35.71-48.33,1.76-4.31,2.9-8.87,4.32-13.32L201.6,6.1Z" transform="translate(-1.23 -1.21)"/><path class="cls-1" d="M133.62,83.64l7.26,5.09-19.89,18-.72-.61C124.62,98.78,129,91.47,133.62,83.64Z" transform="translate(-1.23 -1.21)"/><path class="cls-1" d="M142.43,76.49l2,1.4,5.09,5.85-4.33,3.46c-2.53-1.81-4.76-3.65-7.22-5.1-3.52-2.09-4.4-4.39-.76-7.92Z" transform="translate(-1.23 -1.21)"/><path class="cls-1" d="M291.59,41.52c10.43.68,20.51.56,30.3,2.2C333,45.6,340.35,54.65,341.28,65.31c1.14,13-4.63,23.1-15.79,27.79-1.11.47-2.22,1-4.07,1.76l27.38,38.33c-5.4,0-9.8.32-14.11-.16-1.55-.18-3.22-2.06-4.27-3.56-6.93-9.83-13.68-19.77-20.54-29.64-1.05-1.52-2.36-2.87-4.65-5.62-.58,3.57-1.14,5.51-1.17,7.46-.1,8.25-.34,16.52.06,24.76.25,5.33-1.25,7.81-6.86,6.87a48.47,48.47,0,0,0-5.67-.29ZM304,69.16V74c0,11.14,1.77,12.45,12.86,9.52,8.4-2.21,12.72-8,12-16-.71-7.43-6.19-12.29-14.66-13C304,53.73,304,53.73,304,63.78Z" transform="translate(-1.23 -1.21)"/><path class="cls-1" d="M493.1,33.86h12V93.07l1.36.82c3.2-3.16,6.91-6,9.51-9.56,6-8.37,14.18-9.2,22.15-7.8L516.35,99.74c8.78,11.14,17.16,21.76,25.6,32.45-9.26,3.1-15.12,1.38-20.73-5.85-4.37-5.63-8.79-11.22-14.33-18.29-3.35,8.85-.81,16.73-2.19,24.67H493.1Z" transform="translate(-1.23 -1.21)"/><path class="cls-1" d="M561.84,107.86c.29,8,3.48,12.87,9.6,15.17,7.44,2.78,11.22,1.07,21.32-9.85l9.53,5.35c-4.72,11.66-17,18.39-29.83,16.61s-22.63-10.77-23.45-22.9c-.48-7.15-.09-14.84,2.08-21.58,3.86-12,15.82-17.89,29-16,12.22,1.75,20.86,11,22,23.54.13,1.43.11,2.87.3,4.29.51,3.73-1,5.07-4.8,5-10-.19-20.07-.08-30.11,0C565.55,107.45,563.67,107.72,561.84,107.86Zm1-11h26C587.75,90,583.54,86.19,577,85.8,570,85.38,564.84,89.22,562.82,96.89Z" transform="translate(-1.23 -1.21)"/><path class="cls-1" d="M356.62,104.28c.05-17,12.82-29.76,29.88-29.76,17.47,0,30.27,13,30.24,30.66,0,17.14-13.06,30.07-30.32,30.11S356.57,122.29,356.62,104.28Zm29.93-18.5c-10.31,0-17.28,7.69-17.27,19.07S376.06,124,386.4,124s18-8.09,17.87-19.32S396.79,85.78,386.55,85.78Z" transform="translate(-1.23 -1.21)"/><path class="cls-1" d="M475.92,115.46c0,4.57.23,8.83-.13,13a5.72,5.72,0,0,1-2.81,3.8c-12.45,6.26-28.79,2.54-37.48-8.33a30.7,30.7,0,0,1,.34-38.27c8.62-10.68,25.05-14.59,37-8.55a6.29,6.29,0,0,1,2.93,4.33c.41,4.06.14,8.19.14,13.37-5.59-5.92-11.3-10.72-19-8.71a22.88,22.88,0,0,0-10.72,6.43c-6.56,7.22-5.67,19.73,1.12,26.49C454.81,126.55,463.25,125.58,475.92,115.46Z" transform="translate(-1.23 -1.21)"/><path class="cls-1" d="M632.25,55.84V75.26c3.39.84,7.67.65,9.09,2.58s.34,6.1.34,9.76l-9.27.61V132c-1,.67-1.31,1-1.61,1-11.32,1.18-11.32,1.18-11.32-10,0-9.67-.11-19.34,0-29,.06-3.9-.4-6.91-5.69-6.22V77.1c5.62-.32,6.21-4.23,5.66-8.9a26.59,26.59,0,0,1,0-3.22C619.48,53.9,620.09,53.44,632.25,55.84Z" transform="translate(-1.23 -1.21)"/><path class="cls-2" d="M304,69.16V63.78c0-10.05,0-10.05,10.17-9.21,8.47.69,13.95,5.55,14.66,13,.75,8-3.57,13.75-12,16C305.78,86.44,304,85.13,304,74Z" transform="translate(-1.23 -1.21)"/><path class="cls-2" d="M562.82,96.89c2-7.67,7.15-11.51,14.16-11.09,6.56.39,10.77,4.23,11.87,11.09Z" transform="translate(-1.23 -1.21)"/><path class="cls-2" d="M386.55,85.78c10.24,0,17.58,7.85,17.72,18.94s-7.42,19.4-17.87,19.32-17.12-7.67-17.12-19.19S376.24,85.78,386.55,85.78Z" transform="translate(-1.23 -1.21)"/><path class="cls-3" d="M173.87,34.17a2.27,2.27,0,0,0-.52,1.78,6.67,6.67,0,0,0,1.49,2.64l3.36-4.09C176.33,33.06,174.88,32.94,173.87,34.17Z" transform="translate(-1.23 -1.21)"/><path class="cls-2" d="M169.89,50.38a2.57,2.57,0,0,0,2.17-.9,2.19,2.19,0,0,0,.45-2.1A11.44,11.44,0,0,0,170.36,44l-3.84,4.67a2.5,2.5,0,0,0,.24.22A5.45,5.45,0,0,0,169.89,50.38Z" transform="translate(-1.23 -1.21)"/><path class="cls-2" d="M201.6,6.1,183.59,28l1.33,1.09-2.18,2.65q4.84,4.8,2.76,10.64l-5.45-2.08a4.57,4.57,0,0,0-1.6-5.57l-.25-.19-3.36,4.09.28.36a32.36,32.36,0,0,1,3.74,5.31,8,8,0,0,1,.78,4.31,7.55,7.55,0,0,1-1.73,4.24A8.8,8.8,0,0,1,172.23,56c-2.38.38-4.91-.34-7.61-2.15L162,57l-1.39-1.14q-7.33,8.91-14.71,17.85c5.55,5.39,6.18,5.42,11.22,1,2.16-1.91,4.32-3.83,6.39-5.83,14.64-14.09,27.93-29.21,35.71-48.33,1.76-4.31,2.9-8.87,4.32-13.32Z" transform="translate(-1.23 -1.21)"/><path class="cls-2" d="M173.35,36a2.27,2.27,0,0,1,.52-1.78c1-1.23,2.46-1.11,4.33.33L183.59,28l-1.39-1.14L180,29.51A9.35,9.35,0,0,0,173.61,28a8.26,8.26,0,0,0-5.49,3.08,7.81,7.81,0,0,0-1.84,5.1c0,1.9,1.36,4.5,4,7.8l.05.06,4.48-5.43A6.67,6.67,0,0,1,173.35,36Z" transform="translate(-1.23 -1.21)"/><path class="cls-2" d="M164.84,42.31l-5.55-2.76q-3,6.36,2.61,12l-2.63,3.21,1.33,1.09,5.92-7.19C164.34,46.79,163.77,44.66,164.84,42.31Z" transform="translate(-1.23 -1.21)"/><path class="cls-1" d="M178.45,34.69a4.57,4.57,0,0,1,1.6,5.57l5.45,2.08q2.08-5.85-2.76-10.64l2.18-2.65L183.59,28,178.2,34.5Z" transform="translate(-1.23 -1.21)"/><path class="cls-1" d="M164.62,53.81c2.7,1.81,5.23,2.53,7.61,2.15a8.8,8.8,0,0,0,5.68-3.15,7.55,7.55,0,0,0,1.73-4.24,8,8,0,0,0-.78-4.31A32.36,32.36,0,0,0,175.12,39l-.28-.36L170.36,44a11.44,11.44,0,0,1,2.15,3.36,2.19,2.19,0,0,1-.45,2.1,2.57,2.57,0,0,1-2.17.9,5.45,5.45,0,0,1-3.13-1.47,2.5,2.5,0,0,1-.24-.22l-5.92,7.19L162,57Z" transform="translate(-1.23 -1.21)"/></svg>