<?xml version="1.0"?>
<svg xmlns="http://www.w3.org/2000/svg" xmlns:xlink="http://www.w3.org/1999/xlink" xmlns:svgjs="http://svgjs.com/svgjs" version="1.1" width="512px" height="512px" x="0" y="0" viewBox="0 0 64 64" style="enable-background:new 0 0 512 512" xml:space="preserve" class=""><g><linearGradient id="linear-gradient" gradientUnits="userSpaceOnUse" x1="4" x2="60" y1="32.002" y2="32.002"><stop stop-opacity="1" stop-color="#ffde00" offset="0"/><stop stop-opacity="1" stop-color="#792e88" offset="1"/></linearGradient><linearGradient id="linear-gradient-2" gradientUnits="userSpaceOnUse" x1="4" x2="60" y1="32.002" y2="32.002"><stop stop-opacity="1" stop-color="#ea80ff" offset="0"/><stop stop-opacity="1" stop-color="#ea80ff" offset="0.1274131274131274"/><stop stop-opacity="1" stop-color="#792e88" offset="1"/></linearGradient><g id="flat_gradient" data-name="flat gradient"><path d="m40.65 46.63c-12.27737-.31062-12.27528-17.361.02008-17.62 2.88716.00032 12.4908-.00025 15.22992 0v-5.92a5.43366 5.43366 0 0 0 -5.03-5.41c-.16086-.00961-41.848-.10549-42.25988.05a5.4261 5.4261 0 0 0 -4.61012 5.36v29.97a5.44357 5.44357 0 0 0 5.43 5.44h41.03a5.44568 5.44568 0 0 0 5.44-5.44v-6.43c-1.00436-.00695-15.25 0-15.25 0zm-18.15-9.55c6.00435.09385 6.80574 8.65382.99986 9.9l.00014 3.1a1.00017 1.00017 0 0 1 -2-.00007v-3.09993a5.00041 5.00041 0 0 1 -4-4.9 1 1 0 0 1 2 0 3 3 0 1 0 3-3 5.00055 5.00055 0 0 1 -1-9.9v-3.11a1.00012 1.00012 0 0 1 2 .00005v3.10995a5.00039 5.00039 0 0 1 4 4.9 1 1 0 0 1 -2 0 3 3 0 1 0 -3 3zm35.4-5.93c-.51524-.21066-15.86916-.14635-17.23-.13993-6.97424-.14361-10.05861 8.54246-4.12988 12.47a7.4387 7.4387 0 0 0 4.10988 1.14993h16.35a3.01392 3.01392 0 0 0 3-3v-7.62a3.008 3.008 0 0 0 -2.1-2.86zm-21.14 6.67a3.24018 3.24018 0 0 1 6.48.00009 3.24018 3.24018 0 0 1 -6.48-.00009zm-18.64-22.16 8.41-7.89a1.00392 1.00392 0 0 1 1.37 0l8.48 7.89zm13.8-6.88c.30957-.2938 2.37023-2.22748 2.63-2.47a3.00933 3.00933 0 0 1 4.1 0l10.05 9.35c-1.207-.00361-9.39 0-9.39 0-1.05444-.98019-6.459-6.01282-7.39-6.88zm8.08008 30.56652a1.52672 1.52672 0 0 1 -.00008-3.05312 1.52672 1.52672 0 0 1 .00007 3.05309z" fill="url(#linear-gradient)" data-original="url(#linear-gradient)"/></g><g id="flat_gradient_copy" data-name="flat gradient copy"><path d="m40.65 46.63c-12.27737-.31062-12.27528-17.361.02008-17.62 2.88716.00032 12.4908-.00025 15.22992 0v-5.92a5.43366 5.43366 0 0 0 -5.03-5.41c-.16086-.00961-41.848-.10549-42.25988.05a5.4261 5.4261 0 0 0 -4.61012 5.36v29.97a5.44357 5.44357 0 0 0 5.43 5.44h41.03a5.44568 5.44568 0 0 0 5.44-5.44v-6.43c-1.00436-.00695-15.25 0-15.25 0zm-18.15-9.55c6.00435.09385 6.80574 8.65382.99986 9.9l.00014 3.1a1.00017 1.00017 0 0 1 -2-.00007v-3.09993a5.00041 5.00041 0 0 1 -4-4.9 1 1 0 0 1 2 0 3 3 0 1 0 3-3 5.00055 5.00055 0 0 1 -1-9.9v-3.11a1.00012 1.00012 0 0 1 2 .00005v3.10995a5.00039 5.00039 0 0 1 4 4.9 1 1 0 0 1 -2 0 3 3 0 1 0 -3 3zm35.4-5.93c-.51524-.21066-15.86916-.14635-17.23-.13993-6.97424-.14361-10.05861 8.54246-4.12988 12.47a7.4387 7.4387 0 0 0 4.10988 1.14993h16.35a3.01392 3.01392 0 0 0 3-3v-7.62a3.008 3.008 0 0 0 -2.1-2.86zm-21.14 6.67a3.24018 3.24018 0 0 1 6.48.00009 3.24018 3.24018 0 0 1 -6.48-.00009zm-18.64-22.16 8.41-7.89a1.00392 1.00392 0 0 1 1.37 0l8.48 7.89zm13.8-6.88c.30957-.2938 2.37023-2.22748 2.63-2.47a3.00933 3.00933 0 0 1 4.1 0l10.05 9.35c-1.207-.00361-9.39 0-9.39 0-1.05444-.98019-6.459-6.01282-7.39-6.88zm8.08008 30.56652a1.52672 1.52672 0 0 1 -.00008-3.05312 1.52672 1.52672 0 0 1 .00007 3.05309z" fill="url(#linear-gradient-2)" data-original="url(#linear-gradient-2)" class=""/></g></g></svg>
