<svg id="Layer_1" data-name="Layer 1" xmlns="http://www.w3.org/2000/svg" viewBox="0 0 413.33 497.46"><defs><style>.cls-1{fill:#e30613;}</style></defs><title>1</title><path class="cls-1" d="M381.3,36.85A432.28,432.28,0,0,0,32,36.85c-20.31,57.53-32,118.33-32,178-.62,78.52,51,147,102.88,202.88,51.87,54.66,104.05,81.72,103.77,79.59-.27,2.13,51.91-24.93,103.78-79.59,51.9-55.86,103.5-124.36,102.88-202.88C413.27,155.18,401.62,94.38,381.3,36.85ZM307.17,414.72c-48.29,50.89-94.18,75.63-100.51,78.17-6.33-2.54-52.21-27.28-100.54-78.2C58.48,363.41,3.83,294.34,4.46,214.91c0-57,10.51-115.8,31.12-174.75a427.69,427.69,0,0,1,342.17,0c20.6,59,31.07,117.72,31.12,174.71C409.49,294.34,354.85,363.41,307.17,414.72Z"/><path class="cls-1" d="M388.47,214.89c0-48-8.39-100-24.14-150.35l-2.89-9.24-9.05-3.47a407,407,0,0,0-291.45,0l-9,3.47L49,64.54C33.24,114.9,24.9,166.89,24.86,214.81v.26c-.57,72.2,51.05,137.1,96.07,185.58l.16.17a424.74,424.74,0,0,0,74.7,62.42l10.88,7.05,10.87-7.05a424.28,424.28,0,0,0,74.7-62.42l.15-.16c45-48.49,96.65-113.4,96.08-185.53Zm-85.72,77.72a20,20,0,1,1-28.28,28.28l-66.14-66.13L142.2,320.89a20,20,0,0,1-28.29-28.28l66.14-66.14-66.14-66.13a20,20,0,0,1,28.29-28.29l66.13,66.14,66.14-66.14a20,20,0,1,1,28.28,28.29l-66.13,66.13Z"/></svg>