<svg xmlns="http://www.w3.org/2000/svg" xmlns:xlink="http://www.w3.org/1999/xlink" width="1000" height="1000" viewBox="0 0 1000 1000"><defs><linearGradient id="a" x2="0" y2="1" gradientUnits="objectBoundingBox"><stop offset="0" stop-color="#792E88"/><stop offset="1" stop-color="#904e95"/></linearGradient><clipPath id="c"><rect width="1000" height="1000"/></clipPath></defs><g id="b" clip-path="url(#c)"><path d="M986.517,633.343q17.616,100.194-47.344,176.165T789.433,930.621q-84.779,45.142-176.165,44.041t-191.579,20.92Q321.5,1017.6,255.433,941.631T135.421,790.79q-53.95-74.87-85.88-166.255T25.318,431.855q7.707-101.295,79.274-172.862T257.635,138.981Q339.111,90.535,430.5,40.989t186.074-6.606q94.689,42.94,181.67,89.183T914.95,264.5q29.728,94.689,41.839,181.67T986.517,633.343Z" transform="translate(-7.829 1006.806) rotate(-90)" fill="url(#a)"/><g transform="translate(46 207)"><path d="M454.907,586.067c-3.122,24.458-14.6,46.835-26.846,68.39-.4.734-.821,1.457-1.248,2.191H299.539c-2.574-.668-5.115-1.4-7.645-2.191a139.13,139.13,0,0,1-40.186-19.77c-46.824-33.735-64.842-97.481-56.7-154.6,5.06-35.488,20.635-71.72,50.964-90.833,16.013-10.11,36.583-13.4,55.017-9.639.482.088.964.2,1.457.3,15.86,3.571,29.989,12.443,38.029,26.736,14.458,25.685,5.849,57.5-1.259,86.09-7.087,28.587-10.932,62.8,9.638,83.889-6.791-19.989-.088-43.834,16.134-57.35,12.256-10.2,29.321-14.02,44.885-10.854,1.489.318,2.958.679,4.4,1.117a48.849,48.849,0,0,1,10.044,4.206C448.576,527.295,458.4,558.5,454.907,586.067Z" transform="translate(-184.774 -257.053)" fill="#f2f2f2"/><path d="M373.278,654.33c3.527.821,7.064,1.544,10.624,2.191H364.658c-2.52-.679-5.028-1.4-7.514-2.191q-8.2-2.563-16.145-5.882c-21.249-8.916-40.822-22.3-55.63-40.11a113.222,113.222,0,0,1-17.547-28.664,130.182,130.182,0,0,1-8.981-36.681c-2.684-25.849.055-52.41,5.169-77.8a324.7,324.7,0,0,1,25.367-76.09q2.087-4.354,4.315-8.653a1.689,1.689,0,0,1,1.128-.964,1.947,1.947,0,0,1,1.457.3,2.307,2.307,0,0,1,.909,3.045,320.962,320.962,0,0,0-26.922,73.341c-5.827,24.83-9.135,50.811-8.007,76.342,1.073,23.856,7.306,47.317,21.446,66.824,12.914,17.81,30.745,31.851,50.471,41.413a185.252,185.252,0,0,0,39.1,13.582Z" transform="translate(-178.611 -256.925)" fill="#fff"/><path d="M404.829,645.31h-5.674c-.635-.723-1.249-1.457-1.851-2.191a120.932,120.932,0,0,1-25.455-54.392,118,118,0,0,1,10.175-73.439,120.749,120.749,0,0,1,11-18.2c1.49.318,2.958.679,4.4,1.117a114.145,114.145,0,0,0,5.444,144.919C403.5,643.854,404.161,644.589,404.829,645.31Z" transform="translate(-167.927 -245.715)" fill="#fff"/><path d="M868.445,620.184c.824,6.455,3.853,12.361,7.085,18.049.107.194.217.385.329.578h33.59c.679-.176,1.35-.37,2.018-.578a36.719,36.719,0,0,0,10.606-5.218c12.358-8.9,17.113-25.727,14.965-40.8-1.336-9.366-5.446-18.928-13.45-23.972a20.194,20.194,0,0,0-14.52-2.544c-.127.023-.255.052-.384.078a14.983,14.983,0,0,0-10.037,7.056c-3.816,6.779-1.544,15.176.332,22.721s2.885,16.575-2.544,22.14a13.849,13.849,0,0,0-16.1-18c-.393.084-.781.179-1.162.295a12.9,12.9,0,0,0-2.651,1.11C870.116,604.672,867.522,612.908,868.445,620.184Z" transform="translate(-120.436 -239.215)" fill="#f2f2f2"/><path d="M886.857,638.2c-.931.217-1.864.408-2.8.578h5.079c.665-.179,1.327-.37,1.983-.578q2.164-.676,4.261-1.552a38.226,38.226,0,0,0,14.682-10.586,29.88,29.88,0,0,0,4.631-7.565,34.358,34.358,0,0,0,2.37-9.681,68.851,68.851,0,0,0-1.364-20.533A85.7,85.7,0,0,0,909,568.2q-.551-1.149-1.139-2.284a.445.445,0,0,0-.3-.254.514.514,0,0,0-.384.078.609.609,0,0,0-.24.8,84.709,84.709,0,0,1,7.105,19.356,74.508,74.508,0,0,1,2.113,20.148,32.147,32.147,0,0,1-5.66,17.636,35.582,35.582,0,0,1-13.32,10.93,48.888,48.888,0,0,1-10.32,3.584Z" transform="translate(-118.931 -239.181)" fill="#fff"/><path d="M876.437,635.819h1.5c.168-.191.33-.384.488-.578a31.916,31.916,0,0,0,6.718-14.355,31.143,31.143,0,0,0-2.685-19.382,31.873,31.873,0,0,0-2.9-4.8c-.393.084-.781.179-1.162.295a30.125,30.125,0,0,1-1.437,38.247Q876.7,635.531,876.437,635.819Z" transform="translate(-119.657 -236.222)" fill="#fff"/><path d="M601.254,483.78H496.126l-1.115-32.323a9.7,9.7,0,0,1,10.877-9.966l61.177,7.491h.008a34.272,34.272,0,0,1,34.18,34.25Z" transform="translate(-156.006 -251.02)" fill="#792E88"/><path d="M556.256,375.414H482.935a7.423,7.423,0,0,0-7.425,7.425V456.16a7.423,7.423,0,0,0,7.425,7.425h73.321a7.423,7.423,0,0,0,7.425-7.425V382.839a7.423,7.423,0,0,0-7.425-7.425Z" transform="translate(-157.863 -257.31)" fill="#ccc"/><path d="M538.215,428.02,503.6,434.761a7.9,7.9,0,0,1-9.251-6.236l-2.661-13.665a7.9,7.9,0,0,1,6.236-9.252l34.618-6.741a7.9,7.9,0,0,1,9.251,6.236l2.661,13.665A7.9,7.9,0,0,1,538.215,428.02Z" transform="translate(-156.336 -255.089)" fill="#3f3d56"/><path d="M530.322,411.052,503.9,416.2a1.856,1.856,0,1,1-.71-3.644l26.419-5.145a1.856,1.856,0,1,1,.71,3.644Z" transform="translate(-155.368 -254.264)" fill="#fff"/><path d="M524.524,418.008l-13.665,2.661a1.856,1.856,0,0,1-.71-3.644l13.665-2.661a1.856,1.856,0,1,1,.71,3.644Z" transform="translate(-154.706 -253.601)" fill="#fff"/><path d="M563.681,382.839v9.745H475.51v-9.745a7.423,7.423,0,0,1,7.425-7.425h73.321A7.423,7.423,0,0,1,563.681,382.839Z" transform="translate(-157.863 -257.31)" fill="#b3b3b3"/><path d="M727.371,397.632a11.766,11.766,0,0,0-16.641-6.971L609.857,354.47l-4.443,25.2L705.966,407.32a11.83,11.83,0,0,0,21.4-9.688Z" transform="translate(-145.484 -259.306)" fill="#ffb8b8"/><path d="M727.371,397.632a11.766,11.766,0,0,0-16.641-6.971L609.857,354.47l-4.443,25.2L705.966,407.32a11.83,11.83,0,0,0,21.4-9.688Z" transform="translate(-145.484 -259.306)" opacity="0.2"/><path d="M630.13,359.859,620.6,384.744a5.276,5.276,0,0,1-7.515,2.712l-23.15-13.03A14.652,14.652,0,0,1,600.5,347.089l25.851,5.734a5.276,5.276,0,0,1,3.783,7.036Z" transform="translate(-147.852 -260.103)" fill="#792E88"/><path d="M727.155,414.914,691.01,431.343l4.745,17.865a277.914,277.914,0,0,1,7.163,105.86h0l26.427,5.519,21.906-55.86L743.584,441.2Z" transform="translate(-137.327 -253.546)" fill="#792E88"/><path d="M792.592,490.414c-23.748,0-43.1,17.264-44.041,38.883h88.081C835.693,507.678,816.34,490.414,792.592,490.414Z" transform="translate(-131.844 -246.351)" fill="#3f3d56"/><path d="M803.339,501.544c-1.236-97.589-56.815-88.611-56.815-88.611s1.04,30.376,1.539,31.321c35.417,67.01-23.034,145.569-97.437,131.117q-2.1-.409-4.043-.829a37.877,37.877,0,0,1-29.752-42.457c7.329-58.856-29.125-57.815-29.125-57.815H534.4L506.72,449.356a8.047,8.047,0,0,0-12.934,3.2l-3.561,9.666s-52.574,5.477-48.193,56.955h16.254a32.822,32.822,0,0,0,.175,4.381l121.305-.986c7.111-.058,13.387,5.7,13.416,12.815a12.873,12.873,0,0,1-13.3,12.92l-19.557-.652c-6.024,26.835,8.762,44.907,25.055,56.271a91.072,91.072,0,0,0,52.155,16.019h53.13c69,0,81.052-58.051,81.052-58.051C807.861,546.559,803.339,501.544,803.339,501.544Z" transform="translate(-161.078 -253.755)" fill="#3f3d56"/><circle cx="61.61" cy="61.61" r="61.61" transform="translate(595.852 274.732)" fill="#3f3d56"/><circle cx="15.101" cy="15.101" r="15.101" transform="translate(642.362 321.242)" fill="#fff"/><circle cx="70.92" cy="70.92" r="70.92" transform="translate(275.478 256.112)" fill="#3f3d56"/><circle cx="17.382" cy="17.382" r="17.382" transform="translate(329.016 309.65)" fill="#fff"/><path d="M692.316,440.425,679.31,405.1a14.938,14.938,0,0,1,8.858-19.179L725.452,372.2a26.284,26.284,0,1,1,18.165,49.331Z" transform="translate(-138.53 -257.771)" fill="#3f3d56"/><path d="M756.118,396.813a25.794,25.794,0,0,1-9.639,20.088A32.846,32.846,0,0,1,724.9,371.665a25.745,25.745,0,0,1,31.216,25.148Z" transform="translate(-134.373 -257.723)" fill="#792E88"/><ellipse cx="15.334" cy="18.62" rx="15.334" ry="18.62" transform="translate(274.93 235.301)" fill="#792E88"/><path d="M450.071,295.035H463.5l6.389-34.827H450.069Z" transform="translate(42.89 24.797)" fill="#ffb8b8"/><path d="M632.444,555.588H658.89a16.853,16.853,0,0,1,16.853,16.853v.547l-43.3,0Z" transform="translate(-142.908 -240.14)" fill="#2f2e41"/><path d="M657.695,557.573q-.235,0-.471-.022L638.64,556.2a4.929,4.929,0,0,1-4.172-6.6l24.87-55.876a3.832,3.832,0,0,0-.215-3.066,3.78,3.78,0,0,0-2.422-1.927c-11.695-3.057-41.7-11.2-67.674-20.721-11.128-4.081-18.137-9.977-20.831-17.527-3.552-9.953,1.7-19.03,1.928-19.41l.176-.3,24.441,2.222,26.5,2.254L679.3,466.38a22,22,0,0,1,9.659,28.241l-26.769,60.03A4.925,4.925,0,0,1,657.695,557.573Z" transform="translate(-149.148 -252.035)" fill="#2f2e41"/><circle cx="26.902" cy="26.902" r="26.902" transform="translate(422.942 16.604)" fill="#ffb8b8"/><path d="M443.071,298.035H456.5l6.389-34.827H443.069Z" transform="translate(42.222 25.083)" fill="#ffb8b8"/><path d="M625.444,558.588H651.89a16.853,16.853,0,0,1,16.853,16.853v.547l-43.3,0Z" transform="translate(-143.575 -239.854)" fill="#2f2e41"/><path d="M650.695,560.573q-.235,0-.471-.022L631.64,559.2a4.929,4.929,0,0,1-4.172-6.6l24.87-55.876a3.832,3.832,0,0,0-.215-3.066,3.78,3.78,0,0,0-2.422-1.927c-11.695-3.057-41.7-11.2-67.674-20.721-11.128-4.081-18.137-9.977-20.831-17.527-3.552-9.953,1.7-19.03,1.928-19.41l.176-.3,24.441,2.222,26.5,2.254L672.3,469.38a22,22,0,0,1,9.659,28.241l-26.769,60.03a4.925,4.925,0,0,1-4.5,2.921Z" transform="translate(-149.815 -251.749)" fill="#2f2e41"/><path d="M607.639,346.652l-28.478-9.858s-17.877,13.735-9.289,47.808a84.351,84.351,0,0,1-3.724,52.925,54.528,54.528,0,0,1-2.868,6.058s31.764,38.335,61.337,9.858l-11.5-55.312S631.188,361.438,607.639,346.652Z" transform="translate(-149.499 -260.99)" fill="#792E88"/><path d="M603,338.907c-3.829-5.731-6.85-13.678-2.635-19.13,4.161-5.382,12.368-4.589,18.741-6.971,8.876-3.317,14.024-13.745,12.419-23.084s-9.1-17.08-18.033-20.248-19-2.137-27.747,1.51c-10.766,4.49-20,13.177-23.874,24.18s-1.8,24.215,6.231,32.672c8.613,9.067,22.131,11.484,34.636,11.337" transform="translate(-149.814 -267.585)" fill="#2f2e41"/><path d="M587.234,289.344c-4.825,3.928-12.186,2.183-17.364-1.264s-9.381-8.355-14.985-11.058c-9.879-4.764-21.823-1.6-31.437,3.68s-18.137,12.569-28.293,16.71-23.115,4.346-30.8-3.474a28.184,28.184,0,0,0,41.3,33.266c11.128-6.778,17.274-20.99,29.755-24.731,6.906-2.07,14.322-.4,21.3,1.4s14.258,3.757,21.3,2.22,13.633-7.868,12.737-15.022Z" transform="translate(-159.074 -266.909)" fill="#2f2e41"/><path d="M726.261,395.342a11.766,11.766,0,0,0-17.374-4.865L604.319,367.008l-1.3,25.555,103.2,15.034a11.83,11.83,0,0,0,20.046-12.255Z" transform="translate(-145.712 -258.111)" fill="#ffb8b8"/><path d="M625.225,369.974l-6.382,25.871a5.276,5.276,0,0,1-7.123,3.618l-24.581-10.074a14.652,14.652,0,0,1,7.1-28.431l26.361,2.5a5.276,5.276,0,0,1,4.623,6.516Z" transform="translate(-148.284 -258.729)" fill="#792E88"/><circle cx="7.667" cy="7.667" r="7.667" transform="translate(560.802 142.201)" fill="#792E88"/><path d="M1093.5,631.509a1.1,1.1,0,0,1-1.1,1.1H186.6a1.1,1.1,0,0,1,0-2.191H1092.4A1.1,1.1,0,0,1,1093.5,631.509Z" transform="translate(-185.5 -233.01)" fill="#3f3d56"/></g></g></svg>