<?xml version="1.0" encoding="utf-8"?>
<!-- Generator: Adobe Illustrator 24.0.1, SVG Export Plug-In . SVG Version: 6.00 Build 0)  -->
<svg version="1.1" id="Layer_1" xmlns="http://www.w3.org/2000/svg" xmlns:xlink="http://www.w3.org/1999/xlink" x="0px" y="0px"
	 viewBox="0 0 512 512" style="enable-background:new 0 0 512 512;" xml:space="preserve">
<style type="text/css">
	.st0{fill:url(#SVGID_1_);}
	.st1{fill:url(#SVGID_2_);}
	.st2{fill:url(#SVGID_3_);}
	.st3{fill:url(#SVGID_4_);}
	.st4{fill:url(#SVGID_5_);}
	.st5{fill:url(#SVGID_6_);}
	.st6{fill:url(#SVGID_7_);}
	.st7{fill:url(#SVGID_8_);}
	.st8{fill:url(#SVGID_9_);}
	.st9{fill:url(#SVGID_10_);}
	.st10{fill:url(#SVGID_11_);}
	.st11{fill:url(#SVGID_12_);}
	.st12{fill:url(#SVGID_13_);}
</style>
<linearGradient id="SVGID_1_" gradientUnits="userSpaceOnUse" x1="253.2" y1="120.874" x2="253.2" y2="292.293" gradientTransform="matrix(1 0 0 -1 0 512)">
	<stop  offset="0" style="stop-color:#C045CE"/>
	<stop  offset="1" style="stop-color:#82278A"/>
</linearGradient>
<path class="st0" d="M178.2,192h150c3.3,0,6-2.7,6-6s-2.7-6-6-6h-150c-3.3,0-6,2.7-6,6S174.9,192,178.2,192L178.2,192z"/>
<linearGradient id="SVGID_2_" gradientUnits="userSpaceOnUse" x1="108.1815" y1="120.874" x2="108.1815" y2="292.293" gradientTransform="matrix(1 0 0 -1 0 512)">
	<stop  offset="0" style="stop-color:#C045CE"/>
	<stop  offset="1" style="stop-color:#82278A"/>
</linearGradient>
<path class="st1" d="M117.6,184.9l-13.3,12.7l-5.4-5.4c-2.3-2.4-6.1-2.4-8.5-0.1c-2.4,2.3-2.4,6.1-0.1,8.5c0,0,0.1,0.1,0.1,0.1
	l9.6,9.6c2.3,2.3,6,2.3,8.4,0.1l17.6-16.8c2.4-2.3,2.5-6.1,0.2-8.5C123.9,182.7,120.1,182.6,117.6,184.9
	C117.6,184.9,117.6,184.9,117.6,184.9L117.6,184.9z"/>
<linearGradient id="SVGID_3_" gradientUnits="userSpaceOnUse" x1="108.2" y1="120.874" x2="108.2" y2="292.293" gradientTransform="matrix(1 0 0 -1 0 512)">
	<stop  offset="0" style="stop-color:#C045CE"/>
	<stop  offset="1" style="stop-color:#82278A"/>
</linearGradient>
<path class="st2" d="M108.2,156.9c-22.5,0-40.7,18.2-40.7,40.7s18.2,40.7,40.7,40.7s40.7-18.2,40.7-40.7c0,0,0,0,0,0
	C148.9,175.1,130.7,156.9,108.2,156.9z M108.2,226.3c-15.9,0-28.7-12.9-28.7-28.7s12.9-28.7,28.7-28.7s28.7,12.9,28.7,28.7l0,0
	C136.9,213.5,124.1,226.3,108.2,226.3L108.2,226.3z"/>
<linearGradient id="SVGID_4_" gradientUnits="userSpaceOnUse" x1="253.2" y1="120.874" x2="253.2" y2="292.293" gradientTransform="matrix(1 0 0 -1 0 512)">
	<stop  offset="0" style="stop-color:#C045CE"/>
	<stop  offset="1" style="stop-color:#82278A"/>
</linearGradient>
<path class="st3" d="M178.2,292h150c3.3,0,6-2.7,6-6s-2.7-6-6-6h-150c-3.3,0-6,2.7-6,6S174.9,292,178.2,292L178.2,292z"/>
<g>
	
		<linearGradient id="SVGID_5_" gradientUnits="userSpaceOnUse" x1="108.1813" y1="120.874" x2="108.1813" y2="292.293" gradientTransform="matrix(1 0 0 -1 0 512)">
		<stop  offset="0" style="stop-color:#C045CE"/>
		<stop  offset="1" style="stop-color:#82278A"/>
	</linearGradient>
	<path class="st4" d="M117.6,284.9l-13.3,12.7l-5.4-5.4c-2.3-2.4-6.1-2.4-8.5-0.1c-2.4,2.3-2.4,6.1-0.1,8.5c0,0,0.1,0.1,0.1,0.1
		l9.6,9.6c2.3,2.3,6,2.3,8.4,0.1l17.6-16.8c2.4-2.3,2.5-6.1,0.2-8.5C123.9,282.7,120.1,282.6,117.6,284.9
		C117.6,284.9,117.6,284.9,117.6,284.9L117.6,284.9z"/>
	
		<linearGradient id="SVGID_6_" gradientUnits="userSpaceOnUse" x1="108.2" y1="120.874" x2="108.2" y2="292.293" gradientTransform="matrix(1 0 0 -1 0 512)">
		<stop  offset="0" style="stop-color:#C045CE"/>
		<stop  offset="1" style="stop-color:#82278A"/>
	</linearGradient>
	<path class="st5" d="M108.2,256.9c-22.5,0-40.7,18.2-40.7,40.7c0,22.5,18.2,40.7,40.7,40.7s40.7-18.2,40.7-40.7c0,0,0,0,0,0
		C148.9,275.1,130.7,256.9,108.2,256.9z M108.2,326.3c-15.9,0-28.7-12.9-28.7-28.7c0-15.9,12.9-28.7,28.7-28.7s28.7,12.9,28.7,28.7
		C136.9,313.5,124.1,326.3,108.2,326.3L108.2,326.3z"/>
	
		<linearGradient id="SVGID_7_" gradientUnits="userSpaceOnUse" x1="108.1813" y1="120.874" x2="108.1813" y2="292.293" gradientTransform="matrix(1 0 0 -1 0 512)">
		<stop  offset="0" style="stop-color:#C045CE"/>
		<stop  offset="1" style="stop-color:#82278A"/>
	</linearGradient>
	<path class="st6" d="M117.6,384.9l-13.3,12.7l-5.4-5.4c-2.3-2.4-6.1-2.4-8.5-0.1c-2.4,2.3-2.4,6.1-0.1,8.5c0,0,0.1,0.1,0.1,0.1
		l9.6,9.6c2.3,2.3,6,2.3,8.4,0.1l17.6-16.8c2.4-2.3,2.5-6.1,0.2-8.5C123.9,382.7,120.1,382.6,117.6,384.9
		C117.6,384.9,117.6,384.9,117.6,384.9L117.6,384.9z"/>
	
		<linearGradient id="SVGID_8_" gradientUnits="userSpaceOnUse" x1="108.2" y1="120.874" x2="108.2" y2="292.293" gradientTransform="matrix(1 0 0 -1 0 512)">
		<stop  offset="0" style="stop-color:#C045CE"/>
		<stop  offset="1" style="stop-color:#82278A"/>
	</linearGradient>
	<path class="st7" d="M108.2,356.9c-22.5,0-40.7,18.2-40.7,40.7c0,22.5,18.2,40.7,40.7,40.7s40.7-18.2,40.7-40.7c0,0,0,0,0,0
		C148.9,375.1,130.7,356.9,108.2,356.9z M108.2,426.3c-15.9,0-28.7-12.9-28.7-28.7c0-15.9,12.9-28.7,28.7-28.7s28.7,12.9,28.7,28.7
		C136.9,413.5,124.1,426.3,108.2,426.3L108.2,426.3z"/>
</g>
<linearGradient id="SVGID_9_" gradientUnits="userSpaceOnUse" x1="218.2" y1="120.874" x2="218.2" y2="292.293" gradientTransform="matrix(1 0 0 -1 0 512)">
	<stop  offset="0" style="stop-color:#C045CE"/>
	<stop  offset="1" style="stop-color:#82278A"/>
</linearGradient>
<path class="st8" d="M178.2,212h80c3.3,0,6-2.7,6-6s-2.7-6-6-6h-80c-3.3,0-6,2.7-6,6S174.9,212,178.2,212L178.2,212z"/>
<linearGradient id="SVGID_10_" gradientUnits="userSpaceOnUse" x1="218.2" y1="120.874" x2="218.2" y2="292.293" gradientTransform="matrix(1 0 0 -1 0 512)">
	<stop  offset="0" style="stop-color:#C045CE"/>
	<stop  offset="1" style="stop-color:#82278A"/>
</linearGradient>
<path class="st9" d="M178.2,312h80c3.3,0,6-2.7,6-6s-2.7-6-6-6h-80c-3.3,0-6,2.7-6,6S174.9,312,178.2,312L178.2,312z"/>
<linearGradient id="SVGID_11_" gradientUnits="userSpaceOnUse" x1="59" y1="120.874" x2="59" y2="292.293" gradientTransform="matrix(1 0 0 -1 0 512)">
	<stop  offset="0" style="stop-color:#C045CE"/>
	<stop  offset="1" style="stop-color:#82278A"/>
</linearGradient>
<path class="st10" d="M59,94.1c-3.3,0-6,2.7-6,6v6.3c0,3.3,2.7,6,6,6s6-2.7,6-6v-6.3C65,96.8,62.3,94.1,59,94.1z"/>
<linearGradient id="SVGID_12_" gradientUnits="userSpaceOnUse" x1="59" y1="120.874" x2="59" y2="292.293" gradientTransform="matrix(1 0 0 -1 0 512)">
	<stop  offset="0" style="stop-color:#C045CE"/>
	<stop  offset="1" style="stop-color:#82278A"/>
</linearGradient>
<path class="st11" d="M59,119.4c-3.3,0-6,2.7-6,6v58c0,3.3,2.7,6,6,6s6-2.7,6-6v-58C65,122.1,62.3,119.4,59,119.4z"/>
<linearGradient id="SVGID_13_" gradientUnits="userSpaceOnUse" x1="256.0832" y1="120.874" x2="256.0832" y2="292.293" gradientTransform="matrix(1 0 0 -1 0 512)">
	<stop  offset="0" style="stop-color:#C045CE"/>
	<stop  offset="1" style="stop-color:#82278A"/>
</linearGradient>
<path class="st12" d="M457.3,267.7c-8.1-1.7-16.6-0.1-23.5,4.5L372,312.8V87.6c0-19.8-16.3-35.6-36.2-35.6H298V33.4c0-3.3-2.7-6-6-6
	s-6,2.7-6,6V52h-51V33.4c0-3.3-2.7-6-6-6s-6,2.7-6,6V52h-50V33.4c0-3.3-2.7-6-6-6s-6,2.7-6,6V52h-51V33.4c0-3.3-2.7-6-6-6
	s-6,2.7-6,6V52H65.8C46.2,51.9,30.1,67.7,30,87.3c0,0.1,0,0.2,0,0.3v361c0,19.9,16,36.4,35.8,36.4h270c19.9,0,36.2-16.5,36.2-36.4
	v-61.2l96.1-63.1c14.4-9.5,18.4-28.8,9-43.2C472.5,274.2,465.4,269.4,457.3,267.7L457.3,267.7z M291.7,89.6
	c5.9,0,10.6,4.8,10.6,10.6s-4.8,10.6-10.6,10.6s-10.6-4.8-10.6-10.6c0,0,0,0,0,0C281.1,94.3,285.8,89.6,291.7,89.6z M229.1,89.6
	c5.9,0,10.6,4.8,10.6,10.6c0,5.9-4.8,10.6-10.6,10.6c-5.9,0-10.6-4.8-10.6-10.6C218.5,94.3,223.3,89.6,229.1,89.6L229.1,89.6z
	 M166.6,89.6c5.9,0,10.6,4.8,10.6,10.6s-4.8,10.6-10.6,10.6c-5.9,0-10.6-4.8-10.6-10.6C156,94.3,160.8,89.6,166.6,89.6z M104.1,89.6
	c5.9,0,10.6,4.8,10.6,10.6c0,5.9-4.8,10.6-10.6,10.6c-5.9,0-10.6-4.8-10.6-10.6C93.5,94.3,98.2,89.6,104.1,89.6z M360,448.6
	c-0.1,13.4-10.8,24.2-24.2,24.4h-270C52.6,473,42,461.9,42,448.6v-361C42,74.6,52.5,64,65.5,64c0.1,0,0.2,0,0.3,0H98v14.4
	c-9,2.6-16.6,11.4-16.6,21.8c0,12.5,10.1,22.6,22.6,22.6s22.6-10.1,22.6-22.6c0.1-10.2-6.7-19.2-16.6-21.8V64h51v14.4
	c-9.9,2.5-16.9,11.5-16.8,21.8c0,12.5,10.1,22.6,22.6,22.6s22.6-10.1,22.6-22.6c-0.2-10.1-6.8-18.9-16.5-21.8V64h50v14.4
	c-9,2.6-16.5,11.4-16.5,21.8c0,12.5,10.1,22.6,22.6,22.6s22.6-10.1,22.6-22.6c0,0,0,0,0,0c0.1-10.2-6.7-19.2-16.7-21.8V64h51v14.4
	c-9.9,2.5-16.9,11.5-16.8,21.8c0,12.5,10.1,22.6,22.6,22.6c12.5,0,22.6-10.1,22.6-22.6c0-10.4-7.5-19.2-16.5-21.8V64h37.8
	c13.2,0,24.2,10.4,24.2,23.6v233l-22.5,14.8c-2.8,1.8-3.5,5.5-1.7,8.3c0.1,0.1,0.2,0.3,0.3,0.4c1.9,2.5,5.4,3,8,1.3l89.2-58.6
	l7.3,11l-151.2,99.3l-7.3-11l28.4-18.6c2.8-1.8,3.5-5.5,1.7-8.3c-1.8-2.8-5.5-3.5-8.3-1.7l0,0l-33.4,21.9c-0.1,0-0.1,0.1-0.2,0.1
	c-0.2,0.1-0.3,0.2-0.4,0.3c0,0-0.1,0.1-0.1,0.1h-91.6c-3.3,0-6,2.7-6,6s2.7,6,6,6H263l-4.2,8c-0.2,0-0.4,0-0.6,0h-80
	c-3.3,0-6,2.7-6,6s2.7,6,6,6h74.2l-6.9,13.1c-1.6,2.9-0.4,6.6,2.5,8.1c0.9,0.5,1.8,0.7,2.8,0.7h0.2l50.7-1.3c0.1,0,0.2,0,0.4,0
	s0.3,0,0.4,0c0.2,0,0.3-0.1,0.5-0.1c0.1,0,0.2,0,0.3-0.1c0.3-0.1,0.5-0.2,0.8-0.3c0.1,0,0.1-0.1,0.2-0.1c0.2-0.1,0.4-0.2,0.6-0.3
	c0,0,0,0,0.1,0l55.2-36.3L360,448.6z M290.6,420.9l-29.7,0.8l13.5-25.4L290.6,420.9z M303.2,418.3l-0.5-0.7l-6.8-10.3L447.1,308
	l7.3,11L303.2,418.3z M464.2,312.2l-20.8-31.6c5.2-2.2,11-2,16.1,0.5c1.4,0.7,2.8,1.6,4,2.6c8,7,8.9,19.2,1.9,27.2
	C465.1,311.3,464.6,311.8,464.2,312.2L464.2,312.2z"/>
</svg>
