<?xml version="1.0" encoding="utf-8"?>
<!-- Generator: Adobe Illustrator 24.0.1, SVG Export Plug-In . SVG Version: 6.00 Build 0)  -->
<svg version="1.1" id="Layer_1" xmlns="http://www.w3.org/2000/svg" xmlns:xlink="http://www.w3.org/1999/xlink" x="0px" y="0px"
	 viewBox="0 0 512 512" style="enable-background:new 0 0 512 512;" xml:space="preserve">
<style type="text/css">
	.st0{fill:url(#SVGID_1_);}
	.st1{fill:url(#SVGID_2_);}
	.st2{fill:url(#SVGID_3_);}
	.st3{fill:url(#SVGID_4_);}
	.st4{fill:url(#SVGID_5_);}
	.st5{fill:url(#SVGID_6_);}
	.st6{fill:url(#SVGID_7_);}
	.st7{fill:url(#SVGID_8_);}
	.st8{fill:url(#SVGID_9_);}
</style>
<title>Commercial delivery</title>
<linearGradient id="SVGID_1_" gradientUnits="userSpaceOnUse" x1="256" y1="16" x2="256" y2="492.424" gradientTransform="matrix(1 0 0 -1 0 512)">
	<stop  offset="0" style="stop-color:#C045CE"/>
	<stop  offset="1" style="stop-color:#82278A"/>
</linearGradient>
<path class="st0" d="M472.9,224H448c-2.9-10.6-12.5-17.9-23.4-18H398v-65c0.1-2.5-1.2-4.8-3.3-6.1L207.1,26.6c-2.2-1.3-4.8-1.3-7,0
	L12.5,134.9c-2.2,1.3-3.5,3.6-3.5,6.1v216.7c0,2.5,1.3,4.8,3.5,6.1l187.7,108.3c1.1,0.6,2.3,0.9,3.5,0.9c1.3,0,2.5-0.3,3.6-0.9
	l98.7-57v41.2c0,16.4,13.2,29.7,29.6,29.7c0.1,0,0.2,0,0.3,0h137c16.5,0.2,29.9-13.1,30.1-29.5c0-0.1,0-0.1,0-0.2V254.2
	C503,237.6,489.5,224.1,472.9,224z M435,230.8c0,5.6-4.5,10.2-10.2,10.2l0,0h-40.7c-5.6,0-10.2-4.5-10.2-10.2l0,0v-0.7
	c0-5.6,4.5-10.2,10.2-10.2c0,0,0,0,0,0h40.7c5.6,0,10.2,4.5,10.2,10.2V230.8z M203.7,241.2L122,194.1L295.6,93.8l81.7,47.2
	L203.7,241.2z M203.7,40.7l78,45L108,186l-78-45L203.7,40.7z M23,153.1l174,100.3v200.5L23,353.6V153.1z M211,453.9V253.3l173-100.3
	V206h0.2c-10.9,0.1-20.5,7.4-23.4,18h-24.9c-16.6,0.1-30,13.6-29.9,30.2v144.8L211,453.9z M489,456.3c0,8.7-7.1,15.8-15.9,15.7
	c-0.1,0-0.1,0-0.2,0h-137c-8.6,0.1-15.7-6.7-15.9-15.4c0-0.1,0-0.2,0-0.4V254.2c-0.1-8.8,7-16.1,15.9-16.2c0,0,0,0,0,0h25.2
	c3.1,10.2,12.5,17.1,23.1,17h40.4c10.6,0.1,20.1-6.8,23.1-17h25.2c8.9,0.1,16.1,7.3,16.1,16.2V456.3z"/>
<linearGradient id="SVGID_2_" gradientUnits="userSpaceOnUse" x1="360.4999" y1="16" x2="360.4999" y2="492.424" gradientTransform="matrix(1 0 0 -1 0 512)">
	<stop  offset="0" style="stop-color:#C045CE"/>
	<stop  offset="1" style="stop-color:#82278A"/>
</linearGradient>
<path class="st1" d="M343.9,325h7.3c3.9,0,7-3.1,7-7s-3.1-7-7-7H351v-19h19.3c0.9,2.9,3.6,4.8,6.7,4.7c3.9,0,7-3.1,7-7V285
	c0-3.9-3.2-7-7.1-7h-33c-3.9,0-7,3.2-6.9,7c0,0,0,0,0,0v33C337,321.8,340.1,325,343.9,325C343.9,325,343.9,325,343.9,325z"/>
<linearGradient id="SVGID_3_" gradientUnits="userSpaceOnUse" x1="360.5" y1="16" x2="360.5" y2="492.424" gradientTransform="matrix(1 0 0 -1 0 512)">
	<stop  offset="0" style="stop-color:#C045CE"/>
	<stop  offset="1" style="stop-color:#82278A"/>
</linearGradient>
<path class="st2" d="M384,349c0-3.9-3.1-7-7-7h-33c-3.9,0-7,3.1-7,7v33c0,3.9,3.1,7,7,7h33c3.9,0,7-3.1,7-7V349z M351,356h19v19h-19
	V356z"/>
<linearGradient id="SVGID_4_" gradientUnits="userSpaceOnUse" x1="360.4998" y1="16" x2="360.4998" y2="492.424" gradientTransform="matrix(1 0 0 -1 0 512)">
	<stop  offset="0" style="stop-color:#C045CE"/>
	<stop  offset="1" style="stop-color:#82278A"/>
</linearGradient>
<path class="st3" d="M351.3,439H351v-19h18.9c0.1,3.9,3.3,7,7.2,6.9c3.8-0.1,6.8-3.1,6.9-6.9v-6.7c0-3.9-3.1-7.1-7.1-7.3h-33
	c-3.9,0.1-7,3.4-6.9,7.3v33c0,3.7,3,6.8,6.7,6.8c0.1,0,0.1,0,0.2,0h7.3c3.9,0,7-3.1,7-7S355.1,439,351.3,439L351.3,439z"/>
<linearGradient id="SVGID_5_" gradientUnits="userSpaceOnUse" x1="379.6745" y1="16" x2="379.6745" y2="492.424" gradientTransform="matrix(1 0 0 -1 0 512)">
	<stop  offset="0" style="stop-color:#C045CE"/>
	<stop  offset="1" style="stop-color:#82278A"/>
</linearGradient>
<path class="st4" d="M393,286.6l-20.5,20.5l-6.2-6.2c-2.7-2.7-7.2-2.7-9.9,0s-2.7,7.2,0,9.9l11.2,11.2c2.7,2.7,7.2,2.7,9.9,0
	c0,0,0,0,0,0l25.5-25.5c2.7-2.7,2.7-7.2,0-9.9S395.8,283.9,393,286.6L393,286.6z"/>
<linearGradient id="SVGID_6_" gradientUnits="userSpaceOnUse" x1="379.6745" y1="16" x2="379.6745" y2="492.424" gradientTransform="matrix(1 0 0 -1 0 512)">
	<stop  offset="0" style="stop-color:#C045CE"/>
	<stop  offset="1" style="stop-color:#82278A"/>
</linearGradient>
<path class="st5" d="M393,415.8l-20.5,20.5l-6.2-6.2c-2.7-2.7-7.2-2.7-9.9,0s-2.7,7.2,0,9.9l11.2,11.2c2.7,2.7,7.2,2.7,9.9,0
	c0,0,0,0,0,0l25.5-25.5c2.7-2.7,2.7-7.2,0-9.9S395.8,413.1,393,415.8L393,415.8z"/>
<linearGradient id="SVGID_7_" gradientUnits="userSpaceOnUse" x1="442.874" y1="16" x2="442.874" y2="492.424" gradientTransform="matrix(1 0 0 -1 0 512)">
	<stop  offset="0" style="stop-color:#C045CE"/>
	<stop  offset="1" style="stop-color:#82278A"/>
</linearGradient>
<path class="st6" d="M464.9,295h-44c-3.9,0-7,3.1-7,7s3.1,7,7,7h44c3.9,0,7-3.1,7-7S468.7,295,464.9,295z"/>
<linearGradient id="SVGID_8_" gradientUnits="userSpaceOnUse" x1="442.874" y1="16" x2="442.874" y2="492.424" gradientTransform="matrix(1 0 0 -1 0 512)">
	<stop  offset="0" style="stop-color:#C045CE"/>
	<stop  offset="1" style="stop-color:#82278A"/>
</linearGradient>
<path class="st7" d="M464.9,359h-44c-3.9,0-7,3.1-7,7s3.1,7,7,7h44c3.9,0,7-3.1,7-7S468.7,359,464.9,359z"/>
<linearGradient id="SVGID_9_" gradientUnits="userSpaceOnUse" x1="442.874" y1="16" x2="442.874" y2="492.424" gradientTransform="matrix(1 0 0 -1 0 512)">
	<stop  offset="0" style="stop-color:#C045CE"/>
	<stop  offset="1" style="stop-color:#82278A"/>
</linearGradient>
<path class="st8" d="M464.9,423h-44c-3.9,0-7,3.1-7,7s3.1,7,7,7h44c3.9,0,7-3.1,7-7S468.7,423,464.9,423z"/>
</svg>
