<svg id="Layer_1" data-name="Layer 1" xmlns="http://www.w3.org/2000/svg" viewBox="0 0 1011.35 866.64"><defs><style>.cls-1{fill:#d93851;}.cls-2{fill:#1ccbcd;}.cls-3{fill:#01cfce;}.cls-4{fill:#c65404;}.cls-5{fill:#feae75;}.cls-6{fill:#023265;}.cls-7{fill:#f5b17f;}.cls-8{fill:#2d77b3;}.cls-9{fill:#ed9a61;}.cls-10{fill:#01b0ae;}.cls-11{fill:#c8e2f2;}.cls-12{fill:#c1dbee;}.cls-13{fill:#3f94d3;}.cls-14{fill:#f48e3f;}.cls-15{fill:#4ba3e3;}.cls-16{fill:#d3ecfb;}.cls-17{fill:#fefefe;}.cls-18{fill:#01c4c3;}.cls-19{fill:#327fbc;}.cls-20{fill:#01bab9;}.cls-21{fill:#398ac8;}.cls-22{fill:#919bab;}.cls-23{fill:#8791a3;}</style></defs><title>Untitled-3</title><path class="cls-1" d="M376.66,116.41c8-8,15.57-16.44,24.14-23.74C450.89,50,518.28,51.11,564.16,77.34c18.08,10.34,31.48,25.37,40.72,44.06.81,1.62,1.66,3.22,2.48,4.84,1.42,4.92,3,9.81,4.24,14.77,3.65,14.12,2.87,28.58,3,43,.57,3.55.71,7.23,1.79,10.61,2.26,7.12,5.74,13.92,7.4,21.16,2.18,9.47,4.47,19.29,4,28.84-.27,6,.53,10.1,4.32,14.13,1.7,1.82,3.35,3.7,5.12,5.46,13.41,13.37,29.3,23.43,45,33.79l1.29,1.09c6.58,5.16,13.14,10.35,19.76,15.45a14.26,14.26,0,0,0,3.29,1.41l-.05-.07c.31.63.62,1.26.94,1.89l10.1,12a8.11,8.11,0,0,0,.74,2.26c8.27,11.75,11.26,25.17,10.94,39.13-.55,23.21-10,42.7-26.9,58.53-4.26,4-8.92,7.56-13.21,11.15l21.37,14.09a128,128,0,0,1,33.12,44.68c1.77,6,4.14,11.85,5.14,17.95,1.27,7.66,1.42,15.51,2.06,23.27-3.48-12.92-8.38-25.21-16-36.29-18.47-26.74-44.31-44.06-73.24-57.45-4-1.91-8-4.15-12.13-5.69-15.82-5.85-31.73-11.49-47.61-17.2C590,417.79,578,411.71,566.34,405c-13.42-7.72-24.81-17.39-28-33.75-1.11-5.7-2.36-11.37-3.63-17-.72-3.17.88-4.78,3.39-6.34C551.17,339.79,560,328,565.63,314c5.44-13.55,10-27.46,14.93-41.21l4.12-11.48c-69-23.49-130.3-58.2-177.56-116-11.82,23.33-16.51,47.41-16.37,72.62-8-.22-10.22.64-12.09,6.47-1.18,3.68-2.08,7.91-1.44,11.61A120.59,120.59,0,0,0,383,257.53c4,10.62,9.74,20,21.83,23.17,7.25,12.27,14.66,24.44,21.69,36.82,7.48,13.19,17,24.45,29.43,33.23-2.2,14.58-5.69,28.79-12.23,42.12l-9.92,10.35c-6.34-7-13.12-13.69-18.94-21.12-12.18-15.53-23.86-31.46-35.75-47.23-3.55-6.35-7.17-12.67-10.63-19.07-9.49-17.56-16.37-36.16-21.65-55.37-1.7-14.25-4.22-28.47-4.84-42.76-.51-11.49,1.27-23.07,2-34.61l3.6-9.42c3.43-9,6.09-18.33,10.48-26.8C363.52,136.31,370.4,126.52,376.66,116.41Z"/><path class="cls-2" d="M426.67,835.76c-15-8.78-29-19-39.84-32.71-6.16-7.79-11.43-16.3-17.1-24.48-3.88-10.52-8.43-20.86-11.41-31.63-2.43-8.82-3-18.15-4.36-27.25.79-9.72,1.06-19.51,2.49-29.13,2.43-16.36,8.73-31.47,16.57-46,5.68-7.52,11-15.38,17.12-22.51,11-12.84,24.82-22.32,39.57-30.46a23.59,23.59,0,0,0,2.8-.94c28.33-13.54,58-16.71,88.41-9.91,11.4,2.54,22.26,7.49,33.37,11.35L569,600.78l1.52,1.17,21.13,18.55C599,631,607.17,640.88,613.35,652c10.79,19.33,15,40.66,15.54,62.71-.72,25.75-7.13,49.82-20.73,71.89a137.29,137.29,0,0,1-138.59,63.27C454.46,847.42,440.34,842.38,426.67,835.76ZM504.31,703a11.57,11.57,0,0,1-.54-1.89c0-15,0-30-.12-44.92-.06-7.84-4.71-12.65-11.78-12.52-6.85.12-11.18,4.89-11.2,12.53-.05,13.64,0,27.29,0,40.93V703h-45c-9.17,0-14.44,4.13-14.54,11.37s5.11,11.51,14.3,11.73c1.33,0,2.66,0,4,0,12.15,0,24.3.12,36.45-.08,3.65-.06,4.92.9,4.86,4.73-.22,14-.1,27.95-.08,41.93,0,7.76,4.59,12.83,11.47,12.78s11.39-5.19,11.4-12.95c0-13.64,0-27.29,0-40.93,0-1.74.18-3.48.29-5.48h6.56c13.15,0,26.3.11,39.44-.07,8.49-.11,13.07-4.53,12.93-11.87-.13-6.94-5-11.11-13.13-11.15-11.32-.06-22.63,0-33.95,0Z"/><path class="cls-3" d="M1.17,466.6C-1,446.23-.72,426,6.77,406.63c11.54-29.92,32-51.94,60.85-65.81,18.87-9.08,38.2-17.21,57.35-25.7a37.64,37.64,0,0,1,5.72-1.54c-.15,14.47,7.34,25.28,17.11,34.76,12.5,12.12,28.08,18.71,44.89,21.2,15.21,2.25,30.75,2.28,46.14,3.29-3.65,6.31-7.34,12.6-11,18.93-10.43,18.26-21.15,36.37-31.11,54.89a168.74,168.74,0,0,0-13,29.94c-2.16,7.08-1.64,15.06-1.86,22.64-.27,9.47-.06,19-.07,28.44-8.44.35-16.88.79-25.32,1-21.22.62-42.45,1.94-63.6-1.13q2.75-21.35,5.49-42.7,1.3-10.11,2.64-20.23a8.81,8.81,0,0,0-3.53,3.73q-5.58,8.69-11.2,17.33c-3.6-3.56-6.59-8.57-10.93-10.4A197.91,197.91,0,0,0,41.61,464c-9.22-2.07-19-1.6-28.55-2.25C8.38,461.62,4.12,462.51,1.17,466.6Z"/><path class="cls-4" d="M132,150l-4.11-28.42-.89,0L124.63,140c-6.24-11.59-8.3-23.54-2.12-35.68,2.68-5.25,6.45-10,9.73-14.91l.76-.92-1.6-.08L115.49,93a27.94,27.94,0,0,1,.62-4c1-3.17,2.2-6.27,3.21-9.44,6.87-21.55,22.23-32.21,44.13-34.69a8.38,8.38,0,0,0,5.35-2.72c13.4-18.38,32-27.08,54.08-28.95,22.51-1.92,43.58,3.47,63.34,14.21,1,.53,1.89,1.25,3.74,2.5l-12,3.44c6.09,1.33,11.72,2.07,17,3.81,15.83,5.21,25.34,16.46,29.64,32.37.52,1.91,1.15,3.79,1.74,5.69l3,22.83-1.73.81L322,91.61l-1.69,1.13c6.13,8.33,7.12,17.69,6.78,27.5-.41,12.2-4.35,23.45-8.36,34.73-3.21,5.14-6.3,10.36-9.71,15.36-.85,1.24-2.74,1.76-4.15,2.61-.72-11.49-1.44-23-2.24-35.86l-8,9.44c-3.07-10-5.65-19.64-9-29-4.27-12-21.05-22.92-33.65-21.88,7.15,8,19.25,11.27,20,23.76L219.85,99.54l-.59,1.14c6.45,5.84,12.9,11.68,20.33,18.39-15,.25-27.69-1.74-39.12-9.56-4.3-2.94-9.61-4.41-14.4-6.65-3.69-1.73-5.59-.55-7.28,3.1-5.38,11.61-11.39,22.93-16.68,34.59-5,11-9.39,22.31-14.06,33.48l-3.61,7.22c-1.44-8.35-2.69-15.67-4-23.19l-6.19.67C133.46,155.63,132.73,152.82,132,150Z"/><path class="cls-5" d="M148.05,174c4.67-11.17,9.06-22.46,14.06-33.48,5.29-11.66,11.3-23,16.68-34.59,1.69-3.65,3.59-4.83,7.28-3.1,4.79,2.24,10.1,3.71,14.4,6.65,11.43,7.82,24.09,9.81,39.12,9.56-7.43-6.71-13.88-12.55-20.33-18.39l.59-1.14,52.26,19.86c-.79-12.49-12.89-15.78-20-23.76,12.6-1,29.38,9.93,33.65,21.88,3.34,9.36,5.92,19,9,29l8-9.44c.8,12.87,1.52,24.37,2.24,35.86-1.45,3.47-3.06,6.88-4.3,10.42-2.39,6.85-4.57,13.77-6.84,20.66-2,5.2-4.07,10.37-6,15.61-4.78,13.12-11.45,24.89-23.31,33a8.73,8.73,0,0,0-1.67,2.27l-5,2c-1.44.41-2.92.69-4.29,1.23-13.85,5.51-28.09,6.59-42.33,2.49-6.72-1.93-12.91-5.75-19.33-8.71-13.91-13.7-22.67-31-33-47.18-2.38-6.68-4.78-13.36-7.15-20C150.44,181.16,149.26,177.59,148.05,174Z"/><path class="cls-6" d="M655,142c-6.89-11.17-14.06-22.19-20.56-33.58-4.85-8.49-3.45-11.81,5.1-16.28C646,88.75,652.46,85.31,658.71,82c-4.09-8.88-8.31-17.19-11.74-25.81a64.17,64.17,0,0,1-4.13-16.34c-.82-7.44,1.58-9.61,9-9.66q36-.24,71.9-.4c16.81-.09,33.62-.21,50.42-.27,11.06,0,15.63,3.14,19.29,13.57,1.15,3.26,1.83,6.69,2.81,10.37,7.8-.9,15.66-1.74,23.49-2.74,6.3-.8,11.56.75,15.19,6.24q14.31,21.63,28.5,43.33c.94,1.43,1.2,3.31,1.77,5-1.81,5.91-2.69,12.34-5.66,17.59-4.27,7.56-10,14.27-15.19,21.34l-9.1,9.63c-3.53,1.88-2.48-1.33-2.76-2.65-6-28.09-22.56-49.16-44.16-66.94-2.19-1.8-3.64-1.1-5.55.53C778,88.86,773.1,92.92,768,96.57c-32,22.72-66.58,40.89-101.35,58.8a29.16,29.16,0,0,1-3.87-3.36C660.07,148.76,657.59,145.34,655,142Z"/><path class="cls-7" d="M13.06,461.75c9.54.65,19.33.18,28.55,2.25a197.91,197.91,0,0,1,33.8,11.31c4.34,1.83,7.33,6.84,10.93,10.4-2.29,13.59-4.58,27.18-7.06,41.87H92.94c21.15,3.07,42.38,1.75,63.6,1.13,8.44-.25,16.88-.69,25.32-1l46.34-.84q-4.26,19.95-8.53,39.9c-8.32-1.19-16.61-2.72-25-3.44-4.41-.38-9.28-3.45-14.05,1.27l10.23,19.07-8,1.27-120.12,16c-9.22,1-18.42,2.57-27.66,2.73C20,603.9,5.64,587.4,6.84,573.45c2.45-28.61,3.48-57.34,5.06-86,.12-2.15-.06-4.32-.1-6.48Z"/><path class="cls-7" d="M373,644.6c-7.84,14.49-14.14,29.6-16.57,46-1.43,9.62-1.7,19.41-2.49,29.13q-10.83,1.45-21.67,2.93l-35.43,4.93c-6.58.79-13.2,1.33-19.72,2.42-14.63,2.45-31.61-9.25-33.16-24-1.13-10.69-.81-21.54-1-32.31-.17-10-.13-19.94-.19-29.91l.09-3.6,0-34.46c1.26-1,2.41-2.69,3.79-2.91,8-1.26,16.06-2.36,24.14-3.16A182.24,182.24,0,0,1,336.4,605c8.9,2.38,18,5.08,23.76,13.41v26.2l10.94-.52Z"/><path class="cls-8" d="M866.22,301.09c10.2,3.51,20.76,6.25,30.55,10.67,26,11.7,45.66,30.9,61.58,54.22,1.86,2.73,3.86,5.36,5.79,8,13.3,20.8,24.05,42.75,30.18,66.79,1.36,12.65,2.79,25.29,4,37.95.13,1.39-1.12,2.91-1.73,4.36,1-7.8-.58-10.77-7.33-13.36l-1.94-1.32-1.06-.66a.8.8,0,0,1-.91-.28l-1.67-.79-.23-.08-2.16-.87-18.08-4.18c-.84-.57-1.63-1.49-2.54-1.64a76.07,76.07,0,0,0-10.82-1.3c-13.11-.22-26.23-.46-39.33-.15-6.19.14-12.34,1.51-19.17,2.42,1-14-4.47-25.8-8.65-38-.72-1.26-1.84-2.44-2.09-3.78-1.49-7.92-2.71-15.89-4.14-23.82-3.91-21.87-8-43.71-11.77-65.6-1.68-9.71-2.77-19.53-4.13-29.3Z"/><path class="cls-7" d="M257.82,256.93l5-2c1,4.5,2,9,3,13.51,2.08,8.72,3.67,18.15,10.64,24.18,11.51,9.95,25.64,14.85,40.58,17.3l3.57,1.38-1.92,12.54c-5.65,17.55-16.34,31-33.54,38-10.08,4.1-20.93,6.32-31.43,9.38l-14.89,1.61c-15.39-1-30.93-1-46.14-3.29-16.81-2.49-32.39-9.08-44.89-21.2-9.77-9.48-17.26-20.29-17.11-34.76,3.78-1.1,7.6-2.08,11.33-3.34,8-2.69,15.92-5.53,23.87-8.31,1.62.65,3.29,2,4.87,1.87,22.12-1.45,43.14-6.79,62.56-17.84C245.09,279.26,252.83,269.29,257.82,256.93Z"/><path class="cls-9" d="M257.82,256.93c-5,12.36-12.73,22.33-24.5,29C213.9,297,192.88,302.35,170.76,303.8c-1.58.1-3.25-1.22-4.87-1.87,11.08-4.54,16.06-13.78,19-24.6q3.47-12.7,7-25.39c6.42,3,12.61,6.78,19.33,8.71,14.24,4.1,28.48,3,42.33-2.49C254.9,257.62,256.38,257.34,257.82,256.93Z"/><path class="cls-9" d="M648.71,168l-1.08-11.32c.73-5.76,1.77-11.37,7.41-14.65,2.55,3.36,5,6.78,7.7,10a29.16,29.16,0,0,0,3.87,3.36c.82,7.54,1.32,15.13,2.56,22.6,1.54,9.27,3.69,18.43,5.58,27.64l-7.17-2.19c-3.69-4.76-8.17-9.12-10.88-14.39C653.28,182.4,651.31,175,648.71,168Z"/><path class="cls-9" d="M148.05,174c1.21,3.56,2.39,7.13,3.64,10.68,2.37,6.69,4.77,13.37,7.15,20-4.45-1.88-10.07-2.64-13.15-5.84-11.5-12-16.55-26.84-15.71-43.51.09-1.83,1.32-3.6,2-5.4.73,2.81,1.46,5.62,2.27,8.72l6.19-.67c1.29,7.52,2.54,14.84,4,23.19Z"/><path class="cls-10" d="M13.06,461.75,11.8,481C6.74,477.3,1,474.16,1.17,466.6,4.12,462.51,8.38,461.62,13.06,461.75Z"/><path class="cls-5" d="M433.76,403.22l9.92-10.36c6.42-2.61,13.22-4.57,19.19-8,13-7.37,25.51-15.47,38.21-23.31a2.33,2.33,0,0,0,.66-1c-8.53-.92-17-1.2-25.26-2.91-7-1.46-13.73-4.56-20.57-6.93-12.41-8.78-22-20-29.43-33.23-7-12.38-14.44-24.55-21.69-36.82-.72-2-1.41-4-2.17-6A186.37,186.37,0,0,1,390.75,218c-.14-25.21,4.55-49.29,16.37-72.62,47.26,57.78,108.55,92.49,177.56,116l-4.12,11.48c-4.94,13.75-9.49,27.66-14.93,41.21-5.62,14-14.46,25.76-27.53,33.86-2.51,1.56-4.11,3.17-3.39,6.34,1.27,5.66,2.52,11.33,3.63,17,3.19,16.36,14.58,26,28,33.75,11.65,6.7,23.65,12.78,35.5,19.13-1.09,5.69-2,11.44-3.31,17.08-7.64,32.08-35.27,58.67-65.85,63.47-19.9,3.12-39.88,4.36-60,2.32-2.63-.43-5.26-.81-7.87-1.27-26.52-4.72-49.31-16.09-65.6-38.14-9.49-12.86-16.39-27-16.31-43.6,2-.67,4.05-1.46,6.13-2,6.9-1.78,14-3,20.69-5.31C418.48,413.66,427.18,410.24,433.76,403.22Z"/><path class="cls-11" d="M472.7,507c20.1,2,40.08.8,60-2.32,30.58-4.8,58.21-31.39,65.85-63.47,1.35-5.64,2.22-11.39,3.31-17.08,15.88,5.71,31.79,11.35,47.61,17.2,4.18,1.54,8.09,3.78,12.13,5.69.33,4.11,1,8.21,1,12.32q.12,64.76.07,129.53l-26,3.22c1.88-15.41-4.16-28.56-8.4-42.73,0,6.85,0,13,0,19.13q0,13.15-.08,26.3c-7.68-11.4-15.06-23-23.17-34.11-4-5.43-6.23-5.22-9.75.37-8.5,13.47-16.53,27.24-24.74,40.89L569,600.78q5.7-13.47,11.4-26.94c1.38-3.24,2.47-6.63-1.43-8.65-3.66-1.9-6.15.29-8.22,3.33-5.42,7.92-11,15.75-16.47,23.61-11.11-3.86-22-8.81-33.37-11.35-30.44-6.8-60.08-3.63-88.41,9.91a23.59,23.59,0,0,1-2.8.94,48.18,48.18,0,0,1,2.07-5.45c3.67-7,7.47-14,11.21-21.06,9.19-17.23,18.41-34.44,27.52-51.71A42.69,42.69,0,0,0,472.7,507Z"/><path class="cls-7" d="M985.27,490.82q-4.92,23-9.85,46.09c-1.21,5.66-1.78,11.56-3.73,17-2.1,5.81-5.49,11.14-8.31,16.68-7.36,6.69-15.57,11.17-25.94,10.11-15.71-3.31-31.41-6.65-47.12-9.92q-39-8.13-78-16.14a89.41,89.41,0,0,0-9.86-.91c-.46-.61-.84-1.66-1.4-1.77-16.47-3.11-33-6.12-49.46-9.16-.27-.66-.54-1.32-.8-2-.64-7.76-.79-15.61-2.06-23.27-1-6.1-3.37-12-5.14-17.95l44.16-6.12,18-2.59c4.43-.4,8.89-.67,13.3-1.22q27-3.37,53.91-6.9c4.18-.55,8.32-1.36,12.47-2.05,4.72.77,7.09-1.15,7.38-6a19,19,0,0,1,1.54-6.73c.78-1.66,2.3-3.69,3.88-4.11a132.1,132.1,0,0,1,17.49-3.52c15.84-1.95,31.68-2.09,47.39,1.28l18.08,4.18,2.16.87.23.08,1.67.79a.8.8,0,0,0,.91.28l1.06.66,1.94,1.32Q987.26,480.29,985.27,490.82Z"/><path class="cls-12" d="M750.85,540.77c.26.66.53,1.32.8,2q1.94,8.67,3.85,17.35c.52,10.89,1.27,21.78,1.44,32.68.08,5-1,10-1.53,14.94l-7.94-6.05,0,.05a13.39,13.39,0,0,0-2.58-2.17,93.27,93.27,0,0,0-33.38-8.76l-24.85-2-24.1,0q0-64.77-.07-129.53c0-4.11-.63-8.21-1-12.32,28.93,13.39,54.77,30.71,73.24,57.45C742.47,515.56,747.37,527.85,750.85,540.77Z"/><path class="cls-10" d="M433.76,403.22c-6.58,7-15.28,10.44-24,13.47C403,419,396,420.22,389.05,422c-2.08.54-4.09,1.33-6.13,2-5.54.68-11.39.43-16.55,2.22-16,5.52-31.7,11.82-47.52,17.82,0-3.24-.1-6.49-.05-9.74.31-21.93.6-43.86,1-65.8.2-10.94.85-21.89.86-32.83,0-3.94-1.28-7.89-2-11.83l1.92-12.54c11.4,4.46,22.83,8.85,34.19,13.41,8.14,3.27,16.19,6.77,24.27,10.16,11.89,15.77,23.57,31.7,35.75,47.23C420.64,389.53,427.42,396.2,433.76,403.22Z"/><path class="cls-13" d="M787.81,493.43l-44.16,6.12a128,128,0,0,0-33.12-44.68c2-5.25,3.29-10.83,6-15.68,11-20.07,22.44-39.95,33.84-59.82,4.19-7.29,8.78-14.36,13.18-21.54,0,2.82-.32,5.71.17,8.46,2.69,15.24,5.62,30.44,8.39,45.67,2.88,15.89,5.51,31.81,8.53,47.67C782.76,470.94,785.39,482.17,787.81,493.43Z"/><path class="cls-14" d="M717.59,329.71q-5-6-10.11-12l-.93-1.89.05.07q-2.1-8.51-4.22-17Q704.09,280,705.81,261c3.37,2.6,7,5,10.07,7.84,21.62,19.89,52.62,19.71,73.41,2.94,1-.81,2.36-1.18,4.77-2.34-7.5,17.25-19.12,28.66-33.92,37.09-5.48,3.12-11.48,5.45-16.64,9-7.31,5.05-14,10.92-21,16.43Z"/><path class="cls-15" d="M717.59,329.71l4.88,2.29c4.35,2.59,8.51,5.63,13.11,7.67,11.54,5.13,23.67,5,35.88,3l-8,15.2c-4.4,7.18-9,14.25-13.18,21.54-11.4,19.87-22.79,39.75-33.84,59.82-2.67,4.85-4,10.43-6,15.68l-21.37-14.09c4.29-3.59,9-7.16,13.21-11.15,16.9-15.83,26.35-35.32,26.9-58.53.32-14-2.67-27.38-10.94-39.13A8.11,8.11,0,0,1,717.59,329.71Z"/><path class="cls-14" d="M455.91,350.75c6.84,2.37,13.54,5.47,20.57,6.93,8.22,1.71,16.73,2,25.26,2.91a2.33,2.33,0,0,1-.66,1c-12.7,7.84-25.25,15.94-38.21,23.31-6,3.4-12.77,5.36-19.19,8C450.22,379.54,453.71,365.33,455.91,350.75Z"/><path class="cls-9" d="M390.75,218a186.37,186.37,0,0,0,11.87,56.69c.76,2,1.45,4,2.17,6-12.09-3.18-17.86-12.55-21.83-23.17a120.59,120.59,0,0,1-5.74-21.47c-.64-3.7.26-7.93,1.44-11.61C380.53,218.62,382.71,217.76,390.75,218Z"/><path class="cls-15" d="M683.55,299.05l18.83-.15q2.11,8.5,4.22,17a14.26,14.26,0,0,1-3.29-1.41C696.69,309.4,690.13,304.21,683.55,299.05Z"/><path class="cls-15" d="M706.55,315.84l.93,1.89Z"/><path class="cls-16" d="M318.85,444c15.82-6,31.54-12.3,47.52-17.82,5.16-1.79,11-1.54,16.55-2.22-.08,16.59,6.82,30.74,16.31,43.6,16.29,22,39.08,33.42,65.6,38.14,2.61.46,5.24.84,7.87,1.27a42.69,42.69,0,0,1-2.19,6.4c-9.11,17.27-18.33,34.48-27.52,51.71-3.74,7-7.54,14-11.21,21.06a48.18,48.18,0,0,0-2.07,5.45c-14.75,8.14-28.53,17.62-39.57,30.46-6.14,7.13-11.44,15-17.12,22.51l-1.92-.54q1.5-38.67,3-77.34A51,51,0,0,0,370,578.83l-9.81,39.55c-5.72-8.33-14.86-11-23.76-13.41a182.24,182.24,0,0,0-65.6-5.37c-8.08.8-16.13,1.9-24.14,3.16-1.38.22-2.53,1.9-3.79,2.91-8.89,2.8-18.18,4.94-23.28,14-.57-1.78-1.66-3.56-1.63-5.33.13-9.68.56-19.35.84-29,0-1.64-.1-3.28-.15-4.92l1-13.69q4.26-20,8.53-39.9A150,150,0,0,1,253.34,488c6.39-5.56,12.23-12,19.28-16.49C287.7,461.83,303.4,453.14,318.85,444Z"/><path class="cls-7" d="M742.89,626.39q-6.55,30.09-13.1,60.19a40.83,40.83,0,0,0-.48,5c-.72,2.52-1.52,5-2.13,7.57-4.73,19.49-23.07,31.25-43.32,27.26-18.38-3.63-36.65-7.79-55-11.71-.58-22-4.75-43.38-15.54-62.71-6.18-11.07-14.4-21-21.7-31.45,1.16-.59,2.26-1.56,3.48-1.71,11.88-1.49,23.79-2.85,35.69-4.25,5.3.4,7.87-2,8.13-7.36.12-2.45,1.31-4.83,1.55-7.28.29-3,1.85-4.39,4.71-4.74q20.71-2.52,41.42-5.1l24.85,1.86c3.84.8,7.75,1.39,11.51,2.45,8.21,2.32,16.36,4.88,24.53,7.35l0-.05Q745.18,614,742.89,626.39Z"/><path class="cls-17" d="M504.31,703H515.7c11.32,0,22.63,0,33.95,0,8.16,0,13,4.21,13.13,11.15.14,7.34-4.44,11.76-12.93,11.87-13.14.18-26.29.06-39.44.07h-6.56c-.11,2-.29,3.74-.29,5.48,0,13.64,0,27.29,0,40.93,0,7.76-4.58,12.91-11.4,12.95s-11.46-5-11.47-12.78c0-14-.14-28,.08-41.93.06-3.83-1.21-4.79-4.86-4.73-12.15.2-24.3.08-36.45.08-1.33,0-2.66,0-4,0-9.19-.22-14.4-4.5-14.3-11.73S426.51,703,435.68,703h45v-5.87c0-13.64,0-27.29,0-40.93,0-7.64,4.35-12.41,11.2-12.53,7.07-.13,11.72,4.68,11.78,12.52.11,15,.08,30,.12,44.92A11.57,11.57,0,0,0,504.31,703Z"/><path class="cls-9" d="M630.82,614.54c-11.9,1.4-23.81,2.76-35.69,4.25-1.22.15-2.32,1.12-3.48,1.71L570.52,602c8.21-13.65,16.24-27.42,24.74-40.89,3.52-5.59,5.78-5.8,9.75-.37,8.11,11.09,15.49,22.71,23.17,34.11C630.45,601.19,632.59,607.6,630.82,614.54Z"/><path class="cls-9" d="M554.29,592.13c5.5-7.86,11.05-15.69,16.47-23.61,2.07-3,4.56-5.23,8.22-3.33,3.9,2,2.81,5.41,1.43,8.65q-5.73,13.45-11.4,26.94Z"/><path class="cls-18" d="M253.34,488a150,150,0,0,0-25.14,38.83l-46.34.84c0-9.48-.2-19,.07-28.44.22-7.58-.3-15.56,1.86-22.64a168.74,168.74,0,0,1,13-29.94c10-18.52,20.68-36.63,31.11-54.89,3.61-6.33,7.3-12.62,11-18.93l14.89-1.61c-.3,11.08-.67,22.17-.88,33.26-.39,20.71-.64,41.43-1.05,62.15-.08,3.95-1,7.93-.76,11.82C251.28,481.65,248.37,485.89,253.34,488Z"/><path class="cls-10" d="M92.94,527.58H79.28c2.48-14.69,4.77-28.28,7.06-41.87q5.61-8.65,11.2-17.33a8.81,8.81,0,0,1,3.53-3.73q-1.32,10.13-2.64,20.23Q95.67,506.23,92.94,527.58Z"/><path class="cls-9" d="M306.84,196l-13.08,8c2.27-6.89,4.45-13.81,6.84-20.66,1.24-3.54,2.85-7,4.3-10.42,1.41-.85,3.3-1.37,4.15-2.61,3.41-5,6.5-10.22,9.71-15.36,2.32,7.73-.41,15-2.79,22C313.71,183.56,309.94,189.66,306.84,196Z"/><path class="cls-17" d="M131.4,88.39l1.6.08-.76.92Z"/><path class="cls-5" d="M705.81,261c-3.69-5-7.42-10.07-11.06-15.16a115.49,115.49,0,0,1-17.64-35.44,29.74,29.74,0,0,0-2.36-4.81c-1.89-9.21-4-18.37-5.58-27.64-1.24-7.47-1.74-15.06-2.56-22.6C701.38,137.46,736,119.29,768,96.57c5.14-3.65,10-7.71,14.83-11.8,1.91-1.63,3.36-2.33,5.55-.53,21.6,17.78,38.18,38.85,44.16,66.94.28,1.32-.77,4.53,2.76,2.65.41.86,1.2,1.73,1.16,2.56-.4,7.2-.37,14.5-1.58,21.58-1.53,8.87-4.12,17.56-6.25,26.32q-7.07,19.32-14.15,38.63c-2.06,3-4.44,5.79-6.08,9a12.17,12.17,0,0,0-1.28,6.91c2.08,13.49,4.49,26.94,6.78,40.4l-3.48,14.34c-2.78,3.72-5.28,7.69-8.38,11.12-8.26,9.14-19.08,14.13-30.54,18-12.21,2-24.34,2.17-35.88-3-4.6-2-8.76-5.08-13.11-7.67,7-5.51,13.72-11.38,21-16.43,5.16-3.57,11.16-5.9,16.64-9,14.8-8.43,26.42-19.84,33.92-37.09-2.41,1.16-3.77,1.53-4.77,2.34-20.79,16.77-51.79,16.95-73.41-2.94C712.76,266,709.18,263.62,705.81,261Z"/><path class="cls-9" d="M828.59,204.29c2.13-8.76,4.72-17.45,6.25-26.32,1.21-7.08,1.18-14.38,1.58-21.58,0-.83-.75-1.7-1.16-2.56l9.1-9.63a16.15,16.15,0,0,1,5.21,13.37c-.23,4.47-.14,8.94-.19,13.41-2.65,11.58-7.76,21.83-16.44,30.1A40.66,40.66,0,0,1,828.59,204.29Z"/><path class="cls-5" d="M219.67,566.73l-1,13.69-27.78,3.22-10.23-19.08c4.77-4.72,9.64-1.65,14.05-1.27C203.06,564,211.35,565.54,219.67,566.73Z"/><path class="cls-8" d="M360.16,618.38,370,578.83a51,51,0,0,1,4.14-12.11q-1.5,38.67-3,77.34l-10.94.52Z"/><path class="cls-8" d="M219.59,619.7c5.1-9.09,14.39-11.23,23.28-14l0,34.46c-6.43-2.88-13.1-5.33-19.19-8.8C219.6,629,217.88,624.67,219.59,619.7Z"/><path class="cls-19" d="M810.38,313.55l3.48-14.34c13.51-.1,27-.26,40.54-.22,2.05,0,4.1.95,6.15,1.46,1.36,9.77,2.45,19.59,4.13,29.3,3.77,21.89,7.86,43.73,11.77,65.6,1.43,7.93,2.65,15.9,4.14,23.82.25,1.34,1.37,2.52,2.09,3.77,0,2.49-.12,5-.07,7.46q.3,16.35.67,32.69c-6.3-9.36-12.22-19-19-28-5.1-6.71-6.63-6.28-11.8.48a43.71,43.71,0,0,0-3.09,4.54q-6.92,11.85-13.74,23.75l-3,1.12c2.72-6.59,5.65-13.11,8-19.82.73-2,.84-5.37-.35-6.71-1-1.12-4.29-.22-6.56-.22-1.06-5.52-2.19-11-3.17-16.56-4.09-22.93-8-45.89-12.24-68.79C815.87,339.74,813,326.66,810.38,313.55Z"/><path class="cls-6" d="M883.28,463.09q-.35-16.35-.67-32.69c-.05-2.49,0-5,.07-7.46,4.18,12.17,9.66,24,8.65,38,6.83-.91,13-2.28,19.17-2.42,13.1-.31,26.22-.07,39.33.15a76.07,76.07,0,0,1,10.82,1.3c.91.15,1.7,1.07,2.54,1.64-15.71-3.37-31.55-3.23-47.39-1.28a132.1,132.1,0,0,0-17.49,3.52c-1.58.42-3.1,2.45-3.88,4.11a19,19,0,0,0-1.54,6.73c-.29,4.86-2.66,6.78-7.38,6C887.89,474.42,884.78,468.86,883.28,463.09Z"/><path class="cls-6" d="M985.27,490.82q2-10.53,4-21.06c6.75,2.59,8.38,5.56,7.33,13.36Z"/><path class="cls-6" d="M985.33,467.5l-1.67-.79Z"/><path class="cls-6" d="M983.43,466.63l-2.16-.87Z"/><path class="cls-6" d="M987.3,468.44l-1.06-.66Z"/><path class="cls-20" d="M253.34,488c-5-2.11-2.06-6.35-2.31-9.55-.29-3.89.68-7.87.76-11.82.41-20.72.66-41.44,1.05-62.15.21-11.09.58-22.18.88-33.26,10.5-3.06,21.35-5.28,31.43-9.38,17.2-7,27.89-20.45,33.54-38,.7,3.94,2,7.89,2,11.83,0,10.94-.66,21.89-.86,32.83-.41,21.94-.7,43.87-1,65.8-.05,3.25,0,6.5.05,9.74-15.45,9.1-31.15,17.79-46.23,27.47C265.57,476,259.73,482.44,253.34,488Z"/><path class="cls-9" d="M755.5,560.1q-1.92-8.67-3.85-17.35c16.49,3,33,6,49.46,9.16.56.11.94,1.16,1.4,1.77l-36.24,5Z"/><path class="cls-8" d="M742.89,626.39q2.29-12.36,4.58-24.72l7.94,6.05C758.05,616.56,753.74,623,742.89,626.39Z"/><path class="cls-8" d="M630.82,614.54c1.77-6.94-.37-13.35-2.64-19.74q0-13.15.08-26.3c0-6.14,0-12.28,0-19.13,4.24,14.17,10.28,27.32,8.4,42.73l26-3.22,24.09,0-.06,1.23q-20.71,2.55-41.43,5.1c-2.86.35-4.42,1.69-4.71,4.74-.24,2.45-1.43,4.83-1.55,7.28C638.69,612.54,636.12,614.94,630.82,614.54Z"/><path class="cls-21" d="M810.38,313.55c2.65,13.11,5.49,26.19,7.91,39.35,4.21,22.9,8.15,45.86,12.24,68.79,1,5.53,2.11,11,3.17,16.56-1.26,1.94-2.48,3.92-3.79,5.82-10,14.59-21.7,28.28-24.08,46.77l-18,2.59c-2.42-11.26-5-22.49-7.21-33.8-3-15.86-5.65-31.78-8.53-47.67-2.77-15.23-5.7-30.43-8.39-45.67-.49-2.75-.14-5.64-.17-8.46l8-15.2c11.46-3.83,22.28-8.82,30.54-18C805.1,321.24,807.6,317.27,810.38,313.55Z"/><path class="cls-9" d="M805.83,490.84c2.38-18.49,14.1-32.18,24.08-46.77,1.31-1.9,2.53-3.88,3.79-5.82,2.27,0,5.57-.9,6.56.22,1.19,1.34,1.08,4.67.35,6.71-2.39,6.71-5.32,13.23-8,19.81q-2.8,6.39-5.62,12.78l1.75.71,6.92-14.6q6.86-11.88,13.74-23.75a43.71,43.71,0,0,1,3.09-4.54c5.17-6.76,6.7-7.19,11.8-.48,6.81,9,12.73,18.62,19,28,1.5,5.77,4.61,11.33,2.23,17.58-4.15.69-8.29,1.5-12.47,2.05q-26.94,3.52-53.91,6.9C814.72,490.17,810.26,490.44,805.83,490.84Z"/><path class="cls-22" d="M747.52,601.72c-8.17-2.47-16.32-5-24.53-7.35-3.76-1.06-7.67-1.65-11.51-2.45,0-.38.06-.75.08-1.13a93.27,93.27,0,0,1,33.38,8.76A13.39,13.39,0,0,1,747.52,601.72Z"/><path class="cls-23" d="M711.56,590.79c0,.38,0,.75-.08,1.13l-24.85-1.86c0-.41,0-.82.07-1.23Z"/><path class="cls-23" d="M835.62,463.88l-6.92,14.6-1.75-.71q2.82-6.39,5.62-12.78Z"/></svg>