<svg id="Layer_1" data-name="Layer 1" xmlns="http://www.w3.org/2000/svg" viewBox="0 0 388.79 434.99"><defs><style>.cls-1{fill:#94be47;}.cls-2{fill:#5f8d3e;}</style></defs><title>shopify</title><path class="cls-1" d="M5.56,384.25c1.27-.79,1.37-2.08,1.53-3.39q4.22-32.72,8.44-65.43c2.19-17.06,4.28-34.14,6.47-51.21,1.68-13.09,3.47-26.16,5.15-39.25,1.92-15,3.75-30,5.67-45.05,1.69-13.22,3.46-26.42,5.16-39.63.42-3.21.84-6.42,1.08-9.64.47-6.31,3.15-10.62,9.67-12.4,7.23-2,14.3-4.5,21.46-6.74,6.17-1.94,12.33-3.93,18.56-5.66,2.7-.75,3.85-2.25,4.52-4.92a211.59,211.59,0,0,1,19.59-51c8.48-15.37,19-29,33.79-38.92,8.18-5.47,17.06-9.35,26.83-10.67C185-1.17,195,2,202.87,10.92a4.4,4.4,0,0,0,3.58,1.87c14.28-.13,24.88,6.73,33.22,17.76,4.8,6.37,8.15,13.5,11,20.91,1.53,4,.7,4,5,2.64,3.46-1.07,6.95-2,10.44-3a7.94,7.94,0,0,1,7,1.05A1.6,1.6,0,0,0,271.56,54c.23,4.92-1.14,9.75-.81,14.68a12.84,12.84,0,0,1,0,3.1c-1.4,7.13-.4,14.4-1.33,21.59a151.52,151.52,0,0,0-.79,16.11c-.17,8.27-1.4,16.49-1,24.78a12.83,12.83,0,0,1-.08,3.1c-1.39,7-.64,14.16-1.23,21.23a204.67,204.67,0,0,0-1.13,20.89,49.28,49.28,0,0,1,0,5.7,185.81,185.81,0,0,0-1.34,21.21c.08,7.12-1.32,14.16-.87,21.29a1.59,1.59,0,0,1,0,.38c-1.28,7.12-.4,14.37-1.37,21.53-.72,5.35-.38,10.81-.7,16.23-.48,8.11-1.46,16.23-1,24.39a10.06,10.06,0,0,1,0,2.33c-1.42,7.62-.76,15.36-1.29,23-.47,6.68-1.23,13.37-1.1,20.11a25.23,25.23,0,0,1-.07,5.7c-1.19,5.47-.35,11.05-1.19,16.57s-.33,11.06-.76,16.62c-.77,10.13-1.18,20.31-1.56,30.46-.32,8.65-1,17.29-1.09,26-6.44-.66-12.73-2.19-19.08-3.36-24.69-4.54-49.34-9.23-74-13.88Q123.43,406.9,87.21,400q-39.85-7.48-79.73-14.9a13.57,13.57,0,0,0-1.92-.1Zm70.05-81.32c-3.74,12.34-7.24,24-10.79,35.57-.5,1.62.19,2.72,1.21,3.82a56.67,56.67,0,0,0,9.74,8.29c18.67,12.56,39.15,17.95,61.55,15,19.41-2.57,34-12.51,43.27-29.83,6.42-12,8.9-25,8.68-38.59a58.77,58.77,0,0,0-13.08-36.56c-6.84-8.65-15.27-15.43-24.45-21.35-5.35-3.45-10.55-7-15-11.7-8.16-8.62-6.85-21.26,3-27.89a26.74,26.74,0,0,1,13.52-4.33,73.26,73.26,0,0,1,34.45,6.15c3.06,1.34,3.13,1.31,4.12-1.62q7.27-21.52,14.47-43.05c.92-2.76.84-2.94-1.79-4a59.07,59.07,0,0,0-16.1-4.18,120.14,120.14,0,0,0-29.05,0c-14.08,1.72-27.35,5.93-39.14,13.88-23.19,15.64-34,37.89-34,65.63,0,12.53,4.37,23.55,12.07,33.29A88.6,88.6,0,0,0,116,277.7a59.78,59.78,0,0,1,12.45,11.63c3.74,4.87,5.87,10.3,5.46,16.58-.54,8.22-5.69,14-13.72,15.59-4.23.84-8.25.08-12.26-1C98,318,89.19,313.1,81,307ZM188.3,17.57a14,14,0,0,0-8.08-2.66A32.59,32.59,0,0,0,167,17.41c-13.68,5.21-23.89,14.7-32.3,26.39-10.86,15.11-17.92,32-23.35,49.67a18.54,18.54,0,0,0-1.28,5,1.42,1.42,0,0,0,1.63.33c9.88-3.06,19.75-6.19,29.65-9.19,1.78-.54,2.36-1.59,2.71-3.29a141,141,0,0,1,10.35-32.05c5.66-12,13-22.67,23.83-30.65A65.62,65.62,0,0,1,188.3,17.57ZM161.35,83a1.43,1.43,0,0,0,1.5.08c12.59-3.93,25.15-7.92,37.76-11.75,2-.62,2.49-1.64,2.52-3.58a136.25,136.25,0,0,0-1.81-23.19,73.81,73.81,0,0,0-2.88-11.66c-.53-1.65-1.32-2.06-2.83-1.15-.77.47-1.63.78-2.42,1.21a52.77,52.77,0,0,0-17.54,16.18c-6.94,9.72-11.1,20.7-14.35,32.07C161.13,81.81,160.91,82.47,161.35,83ZM218,65.76l18.93-5.83c1.68-.51,1.24-1.64.85-2.79-2.59-7.62-5.84-14.91-11.07-21.13-2.86-3.4-6.22-6.21-10.61-7.47-1-.27-2.13-.93-2.92-.09-.63.68.13,1.69.37,2.51a111.34,111.34,0,0,1,3.77,21.3C217.63,56.58,218,60.92,218,65.76Z"/><path class="cls-2" d="M252.75,431c.05-8.66.77-17.3,1.09-26,.38-10.15.79-20.33,1.56-30.46.43-5.56-.06-11.17.76-16.62s0-11.1,1.19-16.57a25.23,25.23,0,0,0,.07-5.7c-.13-6.74.63-13.43,1.1-20.11.53-7.68-.13-15.42,1.29-23a10.06,10.06,0,0,0,0-2.33c-.44-8.16.54-16.28,1-24.39.32-5.42,0-10.88.7-16.23,1-7.16.09-14.41,1.37-21.53a1.59,1.59,0,0,0,0-.38c-.45-7.13,1-14.17.87-21.29a185.81,185.81,0,0,1,1.34-21.21,49.28,49.28,0,0,0,0-5.7,204.67,204.67,0,0,1,1.13-20.89c.59-7.07-.16-14.21,1.23-21.23a12.83,12.83,0,0,0,.08-3.1c-.43-8.29.8-16.51,1-24.78a151.52,151.52,0,0,1,.79-16.11c.93-7.19-.07-14.46,1.33-21.59a12.84,12.84,0,0,0,0-3.1c-.33-4.93,1-9.76.81-14.68a1.6,1.6,0,0,1,1.58-1.82c1.64.36,2.53,1.73,3.62,2.8,6.83,6.73,13.71,13.4,20.39,20.27a10.56,10.56,0,0,0,7.48,3.33c8.79.49,17.57,1.14,26.36,1.73,1,.07,2.07.08,3.1.22,3.17.43,4,1.11,4.47,4.36,1.05,6.51,2,13,3,19.56q5,33.39,9.94,66.78c3.48,23.55,6.88,47.11,10.35,70.66,2.46,16.64,5,33.26,7.46,49.9q4.46,29.94,8.85,59.9,3.35,22.65,6.77,45.29c.86,5.66.91,5.62-4.85,6.87l-87.94,19.08L254.58,431C254,431.17,253.34,431.5,252.75,431Z"/></svg>