<?xml version="1.0" encoding="utf-8"?>
<!-- Generator: Adobe Illustrator 24.0.1, SVG Export Plug-In . SVG Version: 6.00 Build 0)  -->
<svg version="1.1" id="Layer_1" xmlns="http://www.w3.org/2000/svg" xmlns:xlink="http://www.w3.org/1999/xlink" x="0px" y="0px"
	 viewBox="0 0 384 384" style="enable-background:new 0 0 384 384;" xml:space="preserve">
<style type="text/css">
	.st0{fill:url(#SVGID_1_);}
</style>
<linearGradient id="SVGID_1_" gradientUnits="userSpaceOnUse" x1="192" y1="-58.217" x2="192" y2="430.946" gradientTransform="matrix(1 0 0 -1 0 384)">
	<stop  offset="0" style="stop-color:#C045CE"/>
	<stop  offset="1" style="stop-color:#82278A"/>
</linearGradient>
<path class="st0" d="M384,200.6c0-0.1,0-0.2,0-0.3c0-0.1,0-0.2-0.1-0.4s0-0.2-0.1-0.3s-0.1-0.2-0.1-0.3s-0.1-0.2-0.1-0.3
	c0-0.1-0.1-0.2-0.1-0.3c0-0.1-0.1-0.2-0.1-0.3c0-0.1-0.1-0.2-0.1-0.3c-0.1-0.1-0.1-0.2-0.2-0.3c-0.1-0.1-0.1-0.2-0.2-0.3
	c-0.1-0.1-0.1-0.2-0.2-0.3c-0.1-0.1-0.1-0.2-0.2-0.3c-0.1-0.1-0.2-0.2-0.2-0.3c0,0-0.1-0.1-0.1-0.1l-51.5-56.1
	c-5.1-5.6-12.3-8.7-19.9-8.7h-93.3V59c0-14.9-12.1-27-27-27H27C12.1,32,0,44.1,0,59v231.7c0,14.9,12.1,27,27,27h18.6
	c3.4,20.2,20.9,35,41.4,35c20.5,0,38-14.8,41.4-35h127.2c3.4,20.2,20.9,35,41.4,35c20.5,0,38-14.8,41.4-35H357c14.9,0,27-12.1,27-27
	v-89.6c0-0.1,0-0.1,0-0.2C384,200.9,384,200.7,384,200.6z M310.7,145.6c3.6,0,7.1,1.5,9.6,4.2l40.8,44.4H217.5v-48.6H310.7z
	 M14,290.7V59c0-7.2,5.8-13,13-13h163.5c7.2,0,13,5.8,13,13v244.7h-75.1c-3.4-20.2-20.9-35-41.4-35s-38,14.8-41.4,35H27
	C19.8,303.7,14,297.9,14,290.7z M87,338.7c-15.5,0-28-12.5-28-28c0-15.5,12.5-28,28-28s28,12.5,28,28
	C115,326.2,102.5,338.7,87,338.7z M297,338.7c-15.5,0-28-12.5-28-28c0-15.5,12.5-28,28-28s28,12.5,28,28
	C325,326.2,312.5,338.7,297,338.7z M370,290.7c0,7.2-5.8,13-13,13h-18.6c-3.4-20.2-20.9-35-41.4-35c-20.5,0-38,14.8-41.4,35h-38.1
	v-95.6H370V290.7z"/>
</svg>
