<svg id="Layer_1" data-name="Layer 1" xmlns="http://www.w3.org/2000/svg" viewBox="0 0 399.4 402.44"><defs><style>.cls-1{fill:#9a5c8e;}</style></defs><title>woo</title><path class="cls-1" d="M127.25,14.34a32.26,32.26,0,0,0,11.63-4c10.92-2.66,21.73-5.78,32.9-7.27L186.1,1.51l25.66-.14a9.28,9.28,0,0,0,5,.69l14.93,1.31c3.49,1.68,7.37,1.68,11.05,2.54l3,.27c4.13,2,8.7,2.54,13,3.86l15.87,5.6c9.93,4.31,19.52,9.31,29,14.46l9.89,6.24c1.19,1.95,3.16,2.82,5.09,3.74,5.64,4.82,11.36,9.56,16.91,14.48,9.15,8.14,16.81,17.67,24.85,26.85a8.4,8.4,0,0,0,3.11,4.65l6.88,10.44L384.59,124l6.12,17.87c.81,2.72,1.63,5.44,2.44,8.16l1.55,6.79q1.35,6.55,2.69,13.09l1.32,13.93c.11,1.35-.21,2.78.69,4V214.7c-1.31,4.27-1,8.75-1.69,13.09l-3.12,18.81-.87,2.14q-1.81,6.4-3.61,12.83c-1.24,3.89-3.32,7.52-3.73,11.67a102.71,102.71,0,0,0-7.07,16.08q-4.37,7.59-8.72,15.17a209.44,209.44,0,0,1-26.29,33.84,206.87,206.87,0,0,1-39.72,32.47l-13.82,7.69-1.11.73-15.17,6.71c-4.53,1.92-9.54,2.61-13.78,5.26l-8.88,2.28c-2.05.55-4.31.42-6.09,1.87l-18.93,3.12L213.46,400l-25.65.14a9.21,9.21,0,0,0-5.05-.69l-15.9-1.62-11.06-2.37c-10.59-2.25-20.75-5.9-30.89-9.59-4.52-2-8.78-4.54-13.64-5.69a4.75,4.75,0,0,0-3.33-2A65.92,65.92,0,0,0,96.73,372a233.44,233.44,0,0,1-46.14-38.29,295.19,295.19,0,0,1-21.66-29.2c-2.56-4.71-4.75-9.63-8-14a1.41,1.41,0,0,0-.11-1l-6.36-14c-3.7-10.16-7.4-20.31-9.64-30.92-1.11-4-.78-8.24-2.69-12Q1.53,225.2.86,217.74l-.07-1c-.06-.63-.11-1.26-.16-1.88,0-1.08.4-2.24-.63-3.1l.35-25.66q.75-6.67,1.52-13.34l3.61-18.81.38-1.13,3.3-12.85c2.66-4.73,3.78-10,5.7-15A288,288,0,0,1,30.05,95c2.42-2,3.29-5,5-7.45s3.65-5,5.47-7.45A233.7,233.7,0,0,1,79,41.71l9-6.51,7-4.44C105.29,24.42,116.34,19.51,127.25,14.34ZM87.31,222.06c-.6-2-1.09-3.35-1.41-4.75-5-21.42-9.17-43-12.09-64.78-.62-4.62-2-8.84-7.11-10.36-9.08-2.73-17.06,4.24-15.48,13.67,4.35,25.92,8.34,51.92,14.87,77.41,2.38,9.27,4.48,18.68,9,27.23,3.2,6.09,7.64,6.83,13,2.55a42.35,42.35,0,0,0,9.78-11.82c7.18-12.12,12.45-25.2,19.06-37.61,1.55-2.91,3.09-5.84,5.06-9.56.57,1.83.8,2.59,1,3.35,6,19.47,13.71,38,28.05,53,2.3,2.41,4.6,4.79,8.19,5.16,7.33.74,11.9-4.23,11.51-13.2-.9-20.48,1.48-40.67,5.1-60.75a183.25,183.25,0,0,1,12-40.78c2.38-5.47-.43-11-5.74-13.67-4.92-2.5-10.52-1-14,3.92a32.49,32.49,0,0,0-2.86,5.21c-5.88,12.69-8.93,26.21-11.29,39.9-1.59,9.2-2.78,18.48-4.35,29-1.89-5.46-3.38-9.63-4.77-13.82a242.14,242.14,0,0,1-8-32.7c-.87-4.74-2.33-9.14-8.08-10-5.13-.74-8.7,1.36-11.92,7-1.22,2.16-2.43,4.33-3.58,6.53C104.69,188.69,96.14,205.1,87.31,222.06Zm260.54-26.93c0-6.35-.17-11.17-1.38-15.85C343,166,336.19,155.62,322.05,151.89c-13-3.42-24.68-.57-33.51,9.47-16.87,19.21-22.28,41.74-14.53,66.1,8.05,25.3,38.41,31.73,56.67,12.47C342.87,227.08,347.56,211.05,347.85,195.13ZM264,193.7a58.74,58.74,0,0,0-1.36-14.31c-3.32-13.14-10.07-23.49-23.86-27.38-12.63-3.56-24.39-1.18-33.31,8.57-17.7,19.38-22.84,42.24-15.24,67.26,3.75,12.34,12.81,20.51,25.94,22.59,14,2.23,25.36-2.68,33.88-14.14C259.44,223.62,263.82,209.37,264,193.7Z"/><path class="cls-1" d="M325.8,192.8c-.18,9.52-2,17.33-6,24.6a23.1,23.1,0,0,1-7.92,8.73c-6.11,3.88-11,2.84-14.37-3.67-6.25-12-4.94-24,.89-35.72,2.22-4.44,5-8.58,9.22-11.54,5.36-3.79,10.43-2.78,14,2.81A26.67,26.67,0,0,1,325.8,192.8Z"/><path class="cls-1" d="M241.92,193.07c-.22,9.43-2.06,17.23-6,24.49a22.88,22.88,0,0,1-8,8.67c-5.87,3.69-10.89,2.7-14.12-3.47-6.35-12.14-5.13-24.3.86-36.17,2.24-4.44,5.07-8.57,9.28-11.49,5.18-3.59,10.31-2.65,13.66,2.63A27.12,27.12,0,0,1,241.92,193.07Z"/></svg>