<svg id="Layer_1" data-name="Layer 1" xmlns="http://www.w3.org/2000/svg" xmlns:xlink="http://www.w3.org/1999/xlink" viewBox="0 0 2000 1053.11"><defs><style>.cls-1{fill:#fff;fill-rule:evenodd;}.cls-2{fill:none;}.cls-3{clip-path:url(#clip-path);}.cls-4{fill:#7f3160;}.cls-5{fill:#833765;}.cls-6{fill:#803160;}.cls-7{fill:#ed1c24;}.cls-8{clip-path:url(#clip-path-2);}.cls-9{mask:url(#mask);}.cls-10{fill:#0f9d58;}.cls-11{fill:#f1f1f1;}.cls-12{fill:#263238;fill-opacity:0.2;}.cls-13{fill:url(#radial-gradient);}</style><clipPath id="clip-path"><circle class="cls-2" cx="530.05" cy="523.74" r="523.74"/></clipPath><clipPath id="clip-path-2"><circle class="cls-2" cx="1465.58" cy="523.74" r="523.74"/></clipPath><mask id="mask" x="905.77" y="-439.85" width="1124.57" height="1546.29" maskUnits="userSpaceOnUse"><g id="mask-2"><path id="path-1" class="cls-1" d="M1608.63-439.85H1011.2c-58,0-105.43,47.44-105.43,105.43V1001c0,58,47.45,105.43,105.43,105.43h913.72c58,0,105.43-47.45,105.43-105.43V-18.14Z"/></g></mask><radialGradient id="radial-gradient" cx="471.08" cy="1475.12" r="38.31" gradientTransform="matrix(47.33, 0, 0, -47.33, -21358.83, 69802.13)" gradientUnits="userSpaceOnUse"><stop offset="0" stop-color="#fff" stop-opacity="0.1"/><stop offset="1" stop-color="#fff" stop-opacity="0"/></radialGradient></defs><title>you can &amp;amp; google sheets</title><g class="cls-3"><path class="cls-4" d="M1087.57,253a585.26,585.26,0,0,0-2.77-62.24C1077,115.52,1044.05,54.56,981.42,11,932.84-22.83,877.36-32.55,819.63-32.92c-96.35-.62-192.59-.18-289.06-.18H266.23a640.34,640.34,0,0,0-67.51,2.74c-76.81,7.53-139,40.67-183,104.84-33.14,48.29-42.84,103.46-42.95,160.57q-.39,281-.18,562a483.21,483.21,0,0,0,5.34,77.59c11.48,71,46.94,126.67,107.33,166,47.61,31,101.29,39.71,156.44,39.86,185.36.52,370.7.16,556.06.24,20.86,0,41.54-.73,62.29-2.61,76.79-7.33,139.19-40,183.62-104,33.74-48.6,43.57-104.11,43.67-161.66C1087.75,625.87,1087.49,439.42,1087.57,253Zm-882,269.74c-7.83,12.62-12.18,25.42-10.67,40.31a161.81,161.81,0,0,1,0,19.45c-.28,20,2.3,15.88-17.31,17.29-12.49.88-17.42-2.61-15.41-15.39,4.8-30.24-4.62-56.6-21.62-81.4-9.25-13.48-16.27-28.53-24.77-42.58-4.4-7.25-1.93-8,5.22-8.76,17.49-1.8,30.63,1.64,37.7,20.26,4.38,11.52,12.26,21.75,19.9,34.89l25.68-44.33c5.21-8.76,29.07-15.44,37.49-10.25,5,3.11.58,6.1-.8,8.56C229.44,481.58,218,502.49,205.53,522.7Zm95.82,78.59c-33.9,0-60-25.27-60.15-58.41,0-33.58,25.37-58.43,59.76-58.49s60,24.38,60,58.1S335.4,601.21,301.35,601.29ZM477,599.54a26.28,26.28,0,0,0-7.82,0c-8.87,1.51-12.88-2.14-11.27-14.16-16.29,17.21-32.43,19.32-50.09,11.47s-24-22.73-24.12-41c0-19.94.32-39.92-.26-59.84-.26-8.45,3.16-9.91,10.64-10,21.36,0,21.36-.39,21.36,21.12,0,14.76-.26,29.52.23,44.33s6.73,21.9,18.25,22.21c13,.39,23-8.52,23.47-22.5q1.05-26.64.13-53.32c-.29-9.07,2.61-13,11.68-11.66a25.63,25.63,0,0,0,7.82,0c10.12-1.72,13.46,1.86,13.2,12.49q-1.15,44.32,0,88.45C490.6,597.74,486.84,600.92,477,599.54Zm73.58-59c9.46,30.25,46.72,40.21,72.07,18.25,14.86-13,16.32,4.38,23,8.66,9.88,6.31.8,10.92-3.42,14.52-25.76,21.8-54.76,25.45-85,11.79-28.89-13-42.56-36.92-43-69.75.73-31.42,15.64-55.54,45.5-68.45,30.51-13,59.27-8.16,85,13.2,6,4.92,8.48,9.36,1.13,15.15a27.48,27.48,0,0,0-6,6.78c-4.82,7.45-8.6,7.82-15.64,1.3a46.33,46.33,0,0,0-57.89-3.78C550.36,499.28,544.15,519.91,550.62,540.56Zm211,58.8c-8.16-1.8-20.85,7-22.84-10.9-20.33,15.09-38.17,16.55-55.14,5.21C669.73,584.44,665.42,571,668,555.24c2.45-14.11,12.47-20.86,25.61-24.46,12-3.26,24.12-2.61,36.21-2.35,9.5.16,8.87-4.4,5.87-10.43a14.4,14.4,0,0,0-12.49-8,49.61,49.61,0,0,0-25.37,4.15c-12.1,5.21-19,2-23.86-10.17-2.06-5.21,1.46-6.26,4.18-7.82,20.85-12.05,43.15-15.65,66.3-8.19,16.17,5.22,24.43,17.76,24.88,34.5.57,23,0,45.94.41,68.89.13,6.23-1.93,9.36-8.11,8Zm132.05,0a31.56,31.56,0,0,0-3.89,0C870.71,599,873.26,602,873,583c-.18-16.47.34-32.95-.34-49.54-.7-17-7-24.35-19.06-24.43-13.22,0-23,10.25-23.47,25.84a455,455,0,0,0,.13,49.41c1.05,13.2-3.83,17-15.85,15a31,31,0,0,0-7.82,0c-6,.63-8.32-1.61-8.27-8,.26-32.55.18-65.19,0-97.57,0-5.22,1.44-8.14,7.28-7.83a85.11,85.11,0,0,0,15.64,0c7.69-1,9.28,3.6,9,11.84,17.54-14.44,34.36-17.94,52-8.68s22.47,25.39,22.53,43.83-.47,37.29.23,55.93c.21,9.1-3.13,11.84-11.32,10.64Z"/><path class="cls-5" d="M723.86,550.47c3.91,2.42,13.3-5.06,13.92,6.39.52,9.56-9.75,18.48-21.25,18.25-8.47-.13-17.08-1.57-17.26-12.86C699.14,553.86,706,550.62,723.86,550.47Z"/><path class="cls-6" d="M329.28,543.17c-.16,18.07-11.5,30.5-28,30.58s-28.68-13.17-28.32-31.6,12-30.92,28.06-31C317.52,511.1,329.43,524.73,329.28,543.17Z"/></g><circle class="cls-7" cx="1465.58" cy="523.74" r="523.74"/><g class="cls-8"><g id="Consumer-Apps-Sheets-Large-VD-R8-"><g id="Group"><g id="Clipped"><g class="cls-9"><path id="Path" class="cls-10" d="M1608.63-439.85H1011.2c-58,0-105.43,47.44-105.43,105.43V1001c0,58,47.45,105.43,105.43,105.43h913.72c58,0,105.43-47.45,105.43-105.43V-18.14l-246-175.71Z"/></g></g><g id="Clipped-2" data-name="Clipped"><g class="cls-9"><path id="Shape" class="cls-11" d="M1186.92,315.72V825.29H1749.2V315.72Zm246,439.29H1257.2V667.15h175.72Zm0-140.58H1257.2V526.58h175.72Zm0-140.57H1257.2V386h175.72Zm246,281.15H1503.2V667.15h175.72Zm0-140.58H1503.2V526.58h175.72Zm0-140.57H1503.2V386h175.72Z"/></g></g><g id="Clipped-3" data-name="Clipped"><g class="cls-9"><path id="Path-2" data-name="Path" class="cls-12" d="M1924.92,1097.65H1011.2c-58,0-105.43-47.44-105.43-105.43V1001c0,58,47.45,105.43,105.43,105.43h913.72c58,0,105.43-47.45,105.43-105.43v-8.79C2030.35,1050.21,1982.9,1097.65,1924.92,1097.65Z"/></g></g></g><path id="Path-3-2" data-name="Path" class="cls-13" d="M1606.16-62.07H1008.73c-58,0-105.43,47.45-105.43,105.43V1378.79c0,58,47.44,105.43,105.43,105.43h913.71c58,0,105.43-47.44,105.43-105.43V359.65Z"/></g></g></svg>