<svg id="Layer_1" data-name="Layer 1" xmlns="http://www.w3.org/2000/svg" viewBox="0 0 427.63 427.24"><defs><style>.cls-1{fill:#7f3160;}.cls-2{fill:#833765;}.cls-3{fill:#803160;}</style></defs><title>youcan</title><path class="cls-1" d="M427.62,109.77a223.8,223.8,0,0,0-1.06-23.87c-3-28.84-15.63-52.22-39.65-68.93C368.28,4,347,.27,324.86.13,287.91-.11,251,.06,214,.06q-50.69,0-101.38,0C104,0,95.35.26,86.73,1.11,57.27,4,33.42,16.71,16.54,41.32,3.83,59.84.11,81,.07,102.9Q-.08,210.66,0,318.43a185.09,185.09,0,0,0,2.05,29.76c4.4,27.23,18,48.58,41.16,63.65,18.26,11.87,38.85,15.23,60,15.29,71.09.2,142.17.06,213.26.09,8,0,15.93-.28,23.89-1,29.45-2.81,53.38-15.33,70.42-39.87,12.94-18.64,16.71-39.93,16.75-62C427.69,252.79,427.59,181.28,427.62,109.77ZM89.34,213.22c-3,4.84-4.67,9.75-4.09,15.46a61.86,61.86,0,0,1,0,7.46c-.11,7.66.88,6.09-6.64,6.63-4.79.34-6.68-1-5.91-5.9,1.84-11.6-1.77-21.71-8.29-31.22-3.55-5.17-6.24-10.94-9.5-16.33-1.69-2.78-.74-3.07,2-3.36,6.71-.69,11.75.63,14.46,7.77,1.68,4.42,4.7,8.34,7.63,13.38l9.85-17c2-3.36,11.15-5.92,14.38-3.93,1.92,1.19.22,2.34-.31,3.28C98.51,197.45,94.14,205.47,89.34,213.22Zm36.75,30.14c-13,0-23-9.69-23.07-22.4,0-12.88,9.73-22.41,22.92-22.43s23,9.35,23,22.28S139.15,243.33,126.09,243.36Zm67.38-.67a10,10,0,0,0-3,0c-3.4.58-4.94-.82-4.32-5.43-6.25,6.6-12.44,7.41-19.21,4.4s-9.22-8.72-9.25-15.74c0-7.65.12-15.31-.1-22.95-.1-3.24,1.21-3.8,4.08-3.82,8.19,0,8.19-.15,8.19,8.1,0,5.66-.1,11.32.09,17s2.58,8.4,7,8.52c5,.15,8.8-3.27,9-8.63.27-6.81.28-13.64.05-20.45-.11-3.48,1-5,4.48-4.47a10,10,0,0,0,3,0c3.88-.66,5.16.71,5.06,4.79q-.44,17,0,33.92C198.67,242,197.23,243.22,193.47,242.69Zm28.22-22.62c3.63,11.6,17.92,15.42,27.64,7,5.7-5,6.26,1.68,8.82,3.32,3.79,2.42.31,4.19-1.31,5.57-9.88,8.36-21,9.76-32.62,4.52-11.08-5-16.32-14.16-16.49-26.75.28-12.05,6-21.3,17.45-26.25,11.7-5,22.73-3.13,32.62,5.06,2.29,1.89,3.25,3.59.43,5.81a10.63,10.63,0,0,0-2.31,2.6c-1.85,2.86-3.3,3-6,.5A17.77,17.77,0,0,0,227.72,200C221.59,204.24,219.21,212.15,221.69,220.07Zm80.94,22.55c-3.13-.69-8,2.68-8.76-4.18-7.8,5.79-14.64,6.35-21.15,2-5.35-3.54-7-8.68-6-14.74.94-5.41,4.78-8,9.82-9.38,4.59-1.25,9.25-1,13.89-.9,3.64.06,3.4-1.69,2.25-4a5.51,5.51,0,0,0-4.79-3.08,19,19,0,0,0-9.73,1.59c-4.64,2-7.29.75-9.15-3.9-.79-2,.56-2.4,1.6-3,8-4.62,16.55-6,25.43-3.14,6.2,2,9.37,6.81,9.54,13.23.22,8.81,0,17.62.16,26.42C305.79,241.93,305,243.13,302.63,242.62Zm50.64,0a12.33,12.33,0,0,0-1.49,0c-7.33-.13-6.35,1-6.44-6.26-.07-6.32.13-12.64-.13-19-.27-6.52-2.67-9.34-7.31-9.37-5.07,0-8.84,3.93-9,9.91a173.58,173.58,0,0,0,.05,18.95c.4,5.06-1.47,6.51-6.08,5.75a11.59,11.59,0,0,0-3,0c-2.32.24-3.19-.62-3.17-3.06.1-12.48.07-25,0-37.42,0-2,.55-3.12,2.79-3a33.17,33.17,0,0,0,6,0c2.95-.39,3.56,1.38,3.45,4.54,6.73-5.54,13.18-6.88,19.94-3.33s8.62,9.74,8.64,16.81-.18,14.3.09,21.45C357.69,242.08,356.41,243.13,353.27,242.67Z"/><path class="cls-2" d="M288.13,223.87c1.5.93,5.1-1.94,5.34,2.45.2,3.67-3.74,7.09-8.15,7-3.25-.05-6.55-.6-6.62-4.93C278.65,225.17,281.29,223.93,288.13,223.87Z"/><path class="cls-3" d="M136.8,221.07c-.06,6.93-4.41,11.7-10.73,11.73s-11-5.05-10.86-12.12,4.62-11.86,10.76-11.89C132.29,208.77,136.86,214,136.8,221.07Z"/></svg>